<svg id="Layer_1" data-name="Layer 1" xmlns="http://www.w3.org/2000/svg" viewBox="0 0 514.33 659.21"><title>body</title><path d="M1085.36,664.68c1.58,15.85,2.87,31.76,4.89,47.55,1.81,14.18,4.86,28.49,12.4,40.84a54.87,54.87,0,0,0,12.48,14.46c5,4,11.27,7.69,17.88,6.86,6.77-.84,10.45-6.67,12.32-12.68,2.23-7.16,2.68-14.75,2.65-22.2,0-8.51-.68-17,0-25.54.33-4.07,1.23-8.33,0-12.35a10,10,0,0,0-6.49-7.07l-.4,3c3.44,0,5.12,3.79,6.41,6.4a15.79,15.79,0,0,0,5.82,7,22.32,22.32,0,0,0,8.28,2.67c1.36.2,2.72.35,4.09.46a10.36,10.36,0,0,0,5.16-.39c2.58-1.11,3.92-4,3.83-6.73-.12-3.39-2.2-6.26-4.17-8.86a164.29,164.29,0,0,0-12-13.88c-8.45-8.92-17.51-17.4-24.74-27.38a69.88,69.88,0,0,1-8.71-15.52c-2.69-6.93-3.75-14.3-5.46-21.49a139.72,139.72,0,0,0-8.21-23.32c-3.18-7.29-6.47-15.22-5.33-23.34a1.57,1.57,0,0,0-1.05-1.85,1.51,1.51,0,0,0-1.84,1c-1,7,.79,13.82,3.38,20.33s5.78,13,7.92,19.83c2.24,7.09,3.42,14.4,5.22,21.6a66.08,66.08,0,0,0,7.2,17.7c6,10.23,14.34,18.85,22.56,27.31,4.19,4.32,8.4,8.62,12.37,13.13,2,2.28,4,4.62,5.82,7s4.42,5.39,4,8.6a3.68,3.68,0,0,1-2.33,3.17c-1.53.46-3.53,0-5.09-.13-3.21-.34-6.59-.9-9.38-2.59-3.1-1.88-4.21-5.07-5.87-8.09s-4.28-5.66-7.88-5.67a1.5,1.5,0,0,0-.4,2.94c2.66.79,4.15,3.43,4.65,6,.69,3.6-.18,7.38-.45,11-.53,7.11-.16,14.24,0,21.36.14,6.9.09,13.88-1.34,20.66-1.17,5.54-3.28,12.93-9.46,14.67-5.93,1.68-12.24-2.07-16.73-5.6a52,52,0,0,1-11.75-13.3c-7.1-11.32-10.24-24.48-12.08-37.58-1.14-8.11-1.84-16.28-2.65-24.43l-2.56-25.54c-.19-1.9-3.2-1.92-3,0Z" transform="translate(-660.41 -119.05)"/><path d="M1106.33,573.09a135.56,135.56,0,0,1-8.95-26.21c-1-4.55-1.74-9.16-2.87-13.69a74.64,74.64,0,0,0-4.79-13c-7.87-17.1-16.86-33.72-21.51-52.08a90.49,90.49,0,0,1-2.7-31.12c.2-1.92-2.81-1.91-3,0-1.9,18.94,3.46,37.63,10.75,54.92,3.68,8.72,7.86,17.21,12,25.74a97.59,97.59,0,0,1,5.51,13.1c1.42,4.54,2.16,9.25,3.12,13.9a138.12,138.12,0,0,0,9.9,29.91c.81,1.75,3.4.23,2.59-1.51Z" transform="translate(-660.41 -119.05)"/><path d="M1087.05,663.78l-6.59-15.67c-1.08-2.56-2.15-5.13-3.23-7.69a24,24,0,0,0-3.66-6.46,60.53,60.53,0,0,1-4.75-5.72c-1.46-2.2-2.77-4.51-4.13-6.78l-8.84-14.77L1047,591.92a152.84,152.84,0,0,1-8-14.12c-2.22-4.79-3.93-9.8-6.33-14.52s-5.1-9.21-7.24-14c-4.85-10.9-5.65-23-6.43-34.73-.12-1.92-3.12-1.93-3,0,.69,10.42,1.39,21,4.77,31a94.9,94.9,0,0,0,6.74,14.41,141.79,141.79,0,0,1,6.72,14.28c4.18,10.28,10.34,19.57,16,29.06l9,15c2.73,4.55,5.23,9.41,8.47,13.63,1.72,2.23,3.93,4,5.29,6.54,1.45,2.68,2.49,5.62,3.67,8.42l7.45,17.72a1.54,1.54,0,0,0,1.84,1,1.51,1.51,0,0,0,1-1.85Z" transform="translate(-660.41 -119.05)"/><path d="M1018.37,515.16c2.52-12.23,0-24.55-2.55-36.55-1.29-6-2.64-12-3.38-18.08a81.28,81.28,0,0,1,.14-19.53c.91-7.62,2.14-15.21,3.23-22.8a1.56,1.56,0,0,0-1-1.85,1.51,1.51,0,0,0-1.84,1c-1,6.77-2,13.53-2.91,20.3a90,90,0,0,0-.89,19.74c1,12.33,4.82,24.19,6.56,36.41a59.85,59.85,0,0,1-.21,20.51c-.38,1.89,2.51,2.69,2.9.8Z" transform="translate(-660.41 -119.05)"/><path d="M1066.15,436.73c-2.53-17.12-2.35-34.48-2.6-51.75-.24-16.3-.61-33.05-4.61-49a60.18,60.18,0,0,0-7.89-18.83,41.25,41.25,0,0,0-15.92-13.84,169.72,169.72,0,0,0-22.84-9.45c-7.76-2.63-15.69-4.54-23.6-6.64-13.56-3.6-28.56-9.09-35.44-22.36a25.71,25.71,0,0,1-1.85-4.63c-.55-1.85-3.45-1.06-2.9.79,4.09,13.76,17.12,21.91,30,26.3,7.74,2.64,15.76,4.28,23.61,6.51a189.11,189.11,0,0,1,23.47,8.33c7,3.05,14.17,6.32,19.44,12.07,4.55,5,7.55,11.16,9.61,17.51a111.09,111.09,0,0,1,4.32,21.91c1,8.53,1.32,17.11,1.51,25.68.39,17.25,0,34.56,2,51.73q.38,3.22.85,6.42c.28,1.9,3.17,1.1,2.89-.8Z" transform="translate(-660.41 -119.05)"/><path d="M1021.38,702.24c-2.21-7.37-2.08-15.06-1.58-22.66.48-7.37,1.2-14.71.76-22.1-.84-14.08-4.72-27.73-8.6-41.22s-7.91-27.16-8.78-41.25c-.48-7.8.6-15.57.25-23.37-.35-7.59-2.76-14.75-4.39-22.11-3.66-16.53-1-33.72,4.9-49.41.68-1.81-2.22-2.59-2.89-.8-5.24,14-8,29.28-6.08,44.23,1,7.58,3.55,14.78,4.84,22.29,1.36,7.95.17,16,.2,24,.11,28.64,14.13,54.74,17.15,82.93.9,8.36.36,16.6-.23,25s-.91,17.1,1.56,25.34c.55,1.84,3.45,1.06,2.89-.8Z" transform="translate(-660.41 -119.05)"/><path d="M1002.05,480.7a1.5,1.5,0,0,0,0-3,1.5,1.5,0,0,0,0,3Z" transform="translate(-660.41 -119.05)"/><path d="M1004.5,478.63c-.5-7.76,3.17-14.84,5.57-22,2.55-7.6,2.65-15.4,3.11-23.33a49.69,49.69,0,0,1,2.25-13.21c.62-1.83-2.27-2.62-2.89-.8-2.63,7.71-2.27,15.92-2.88,23.93a50.11,50.11,0,0,1-2.14,11.58c-1.19,3.75-2.73,7.37-4,11.1a33.54,33.54,0,0,0-2,12.74c.13,1.92,3.13,1.93,3,0Z" transform="translate(-660.41 -119.05)"/><path d="M710.42,646c-3.31,8-9.07,14.66-15.55,20.26a126.7,126.7,0,0,1-10.61,8c-3.64,2.53-7.17,5.24-9.61,9s-3.72,8.12-5.75,12.1-5.38,7.52-7.31,11.69c-1.53,3.32-2.11,8,1.66,10.14s8-.3,10.79-3.1c1.78-1.81,3.47-3.68,5.39-5.36a59.08,59.08,0,0,1,6.13-4.68,99,99,0,0,1,13.69-7.53c1.75-.82.22-3.4-1.52-2.59-7.85,3.65-15.49,8-21.84,14-1.54,1.45-2.9,3-4.41,4.52s-3,2.56-5,2.58c-4.82,0-2.86-5.67-1.41-8.11,2.25-3.77,5.07-7.15,6.95-11.14,1.82-3.84,3.11-8,5.54-11.48s6-5.88,9.4-8.23a115.2,115.2,0,0,0,9.86-7.49c7-6,12.93-13.16,16.47-21.71.74-1.78-2.16-2.56-2.89-.8Z" transform="translate(-660.41 -119.05)"/><path d="M685.89,701.8l.53,35.42.27,17.46.13,8.73c0,2.49.25,4.6,2.18,6.36,3.56,3.25,7.86,6.29,12.51,7.71,4.9,1.5,10,.71,14.65-1.29,8.19-3.54,14.84-10.31,19.63-17.69a84.69,84.69,0,0,0,10.4-24.75,174.66,174.66,0,0,0,4.94-31.34c.42-5.76.59-11.55.49-17.33s-.68-11.34-.23-17c.85-10.65,6.83-19.81,12.6-28.45,12-18,24.78-35.48,34.83-54.64,1.24-2.38,2.44-4.77,3.59-7.19.82-1.74-1.76-3.26-2.59-1.52-9.08,19.06-21.18,36.41-33,53.83-5.7,8.38-12,16.76-15.69,26.26a42.31,42.31,0,0,0-2.88,15.09c-.08,5.6.4,11.19.41,16.79a190.6,190.6,0,0,1-2.92,33.38,111.24,111.24,0,0,1-7.38,25.75c-3.41,7.71-8.1,14.93-14.57,20.43a32.17,32.17,0,0,1-12.23,6.83,17.67,17.67,0,0,1-14-2.25,45.2,45.2,0,0,1-5.84-4.26,4.17,4.17,0,0,1-1.76-2.37,23.4,23.4,0,0,1-.14-4.1l-.27-17.22L689,710.28l-.12-8.48c0-1.93-3-1.93-3,0Z" transform="translate(-660.41 -119.05)"/><path d="M803.19,576.77c.28-10.66,5.25-20.37,9-30.11,4-10.3,5.88-21,6.77-32,.93-11.31,1-22.7,2.68-33.93.85-5.71,2.25-11.32,3.11-17a84.78,84.78,0,0,0,.79-17.07c-.7-13.13-4-25.95-7.53-38.54a1.5,1.5,0,0,0-2.89.79c3.15,11.12,6.09,22.4,7.14,33.94a87,87,0,0,1,0,17.38c-.63,5.8-2.09,11.46-3.06,17.2-3.72,21.93-1.12,44.78-8.92,66-4,10.92-9.78,21.47-10.09,33.36-.05,1.93,2.95,1.93,3,0Z" transform="translate(-660.41 -119.05)"/><path d="M818.39,474.75c6.49,8.67,10.58,18.75,13.65,29.07,1.58,5.3,3.28,10.79,3.73,16.33.48,5.91-.61,11.77-2,17.47s-3.11,11.31-4.58,17-2.86,11.44-4.16,17.19q-3.91,17.37-6.77,35-3.21,19.69-5.15,39.56c-.18,1.92,2.82,1.9,3,0A603.44,603.44,0,0,1,827.3,575.2c2.57-11.66,5.68-23.16,8.77-34.69,1.5-5.63,2.8-11.41,2.81-17.27s-1.45-11.34-3-16.84c-3.25-11.71-7.59-23.35-14.92-33.17-1.15-1.52-3.75,0-2.6,1.52Z" transform="translate(-660.41 -119.05)"/><path d="M813,646.42q-1.37,23.45-1.64,46.93c0,1.93,3,1.93,3,0q.27-23.48,1.64-46.93c.11-1.93-2.89-1.92-3,0Z" transform="translate(-660.41 -119.05)"/><path d="M825.25,569.54c.75,4.67,3.09,8.83,5.7,12.71,2.85,4.25,5.81,8.42,8.55,12.75s5.5,9,8,13.65a124.58,124.58,0,0,0,6.59,11.27A33.33,33.33,0,0,0,864.4,630a1.5,1.5,0,0,0,1.52-2.59c-7.34-4.33-11.39-12.19-15.33-19.42a279.89,279.89,0,0,0-15.85-25.49c-2.93-4.21-5.77-8.59-6.6-13.75-.3-1.9-3.2-1.09-2.89.8Z" transform="translate(-660.41 -119.05)"/><path d="M965.67,635.13a31.31,31.31,0,0,0,8.8-9.7c2.61-4.14,5-8.42,7.62-12.55q4.27-6.69,9-13.1c2.76-3.78,5.68-7.46,8.13-11.46a34,34,0,0,0,5.25-14.32c.19-1.92-2.81-1.9-3,0-.91,8.82-6.9,16.07-12,22.93a287.22,287.22,0,0,0-16.09,24.56c-2.46,4.13-5.13,8.32-9.2,11-1.6,1.07-.1,3.67,1.51,2.59Z" transform="translate(-660.41 -119.05)"/><path d="M713.23,647.88c3.82-3.8,4.72-9.72,6.07-14.71q2.41-9,4.7-18,4.57-18,8.6-36.21t7.51-36.45c1.11-5.84,2.16-11.69,3.67-17.43a84.33,84.33,0,0,1,6.4-16.69c3.16-6.21,6.6-12.29,9.92-18.41l10.15-18.68c.92-1.7-1.67-3.22-2.59-1.52-6,11-11.95,21.92-17.87,32.91a102.31,102.31,0,0,0-7.32,16.22,137.83,137.83,0,0,0-4.15,17c-4.68,24.22-9.72,48.33-15.66,72.28q-2.48,10-5.12,19.92c-.87,3.28-1.75,6.57-2.66,9.84-.78,2.82-1.65,5.7-3.77,7.81a1.5,1.5,0,0,0,2.12,2.12Z" transform="translate(-660.41 -119.05)"/><path d="M771.36,469a166,166,0,0,1-2-35.83c.59-11.14,2.36-22.24,1.91-33.42a58.73,58.73,0,0,0-3.39-18.19c-.67-1.8-3.57-1-2.89.79,3.93,10.54,3.67,21.86,2.81,32.9-.91,11.52-2,22.93-1.48,34.51a170.89,170.89,0,0,0,2.14,20c.32,1.9,3.21,1.09,2.9-.8Z" transform="translate(-660.41 -119.05)"/><path d="M768.24,382.34a175.66,175.66,0,0,1-1.2-19.85,65.83,65.83,0,0,1,3.2-19.38,139.93,139.93,0,0,1,7.1-18A40.66,40.66,0,0,1,787.5,311.8c8.75-7.55,20-11.36,31.06-13.86,6.26-1.4,12.6-2.42,18.91-3.59a59,59,0,0,0,17.91-6c3.26-1.77,6.46-3.67,9.67-5.53,2.79-1.6,5.6-3.15,8.28-4.92,4.73-3.12,9.11-7.07,10.77-12.67.55-1.85-2.34-2.65-2.89-.8-1.47,4.95-5.54,8.37-9.71,11.09-5.16,3.36-10.64,6.3-16,9.34a52.45,52.45,0,0,1-8.9,4.21,68.14,68.14,0,0,1-9.24,2.29c-6.31,1.2-12.65,2.2-18.91,3.58-11.33,2.49-22.54,6.32-31.7,13.65A42.15,42.15,0,0,0,776.12,321a122.44,122.44,0,0,0-7.46,17.52,71.93,71.93,0,0,0-4.53,21.34c-.36,7.51.37,15,1.11,22.5.19,1.9,3.19,1.92,3,0Z" transform="translate(-660.41 -119.05)"/><path d="M883.45,263.25c.09-6.67-4.12-12.66-3.54-19.33.17-1.93-2.83-1.92-3,0-.59,6.73,3.63,12.67,3.54,19.33,0,1.93,3,1.93,3,0Z" transform="translate(-660.41 -119.05)"/><path d="M951.17,258.28A57.44,57.44,0,0,1,950,244c.09-1.93-2.91-1.93-3,0a61,61,0,0,0,1.25,15.13,1.5,1.5,0,0,0,2.9-.8Z" transform="translate(-660.41 -119.05)"/><path d="M916.25,122.41c6.49-1.12,13.06.39,19,2.89a78.93,78.93,0,0,1,16.38,9.31,27.11,27.11,0,0,1,10.4,14.33c1.77,6,1.94,12.4,2.33,18.63l1.31,21.19c.22,3.57.59,7.15.59,10.72a18.53,18.53,0,0,1-2.62,9.34c-1.59,2.83-3.37,5.55-5,8.38s-3.22,6-4.67,9.06-2.69,6.08-4,9.14a30.51,30.51,0,0,1-4.49,7.94c-4.14,4.89-10.36,7.9-15.81,11.06-2.84,1.65-5.69,3.33-8.6,4.84s-5.89,2.63-9.13,2.35c-5.49-.48-10.08-4.53-14.46-7.47-4.86-3.26-10.58-5-15.31-8.47-5.06-3.68-7.22-10-9.73-15.46-2.92-6.38-5.79-12.78-8.35-19.31a64.86,64.86,0,0,1-3.16-9.56,32.12,32.12,0,0,1-.32-10.4c.36-3.44.89-6.85,1.08-10.3s.18-7,.19-10.56c.07-12.1,1-25.8,11.73-33.51a76.62,76.62,0,0,1,17.15-8.69,70.92,70.92,0,0,1,19.39-4.69,55.58,55.58,0,0,1,9.48,0c1.92.18,1.91-2.82,0-3-14-1.29-27.71,3.14-40,9.36-5.81,2.93-11.32,6.44-14.87,12-3.3,5.2-4.78,11.35-5.4,17.42-.75,7.25-.23,14.55-.65,21.81s-2.24,14.42-.54,21.71a73.76,73.76,0,0,0,3.5,10.22c1.35,3.4,2.79,6.78,4.26,10.13s3,6.74,4.55,10.1a79.05,79.05,0,0,0,4.47,9,21.7,21.7,0,0,0,6.38,6.63,65.74,65.74,0,0,0,8.13,4.3,60.13,60.13,0,0,1,7.83,4.6,68.25,68.25,0,0,0,7.39,4.75,18.63,18.63,0,0,0,8,2.29,20.11,20.11,0,0,0,9.49-2.6c3.21-1.62,6.31-3.47,9.42-5.28s6-3.48,9-5.39a31.37,31.37,0,0,0,7.31-6.22,34.77,34.77,0,0,0,4.86-8.63,173.9,173.9,0,0,1,9.18-19c1.7-3,3.69-5.83,5.19-8.92a20.86,20.86,0,0,0,2.1-9.82c-.15-7.44-.88-14.9-1.34-22.33-.44-7-.62-14.15-1.55-21.15-.84-6.34-2.68-12.48-6.84-17.46s-9.86-8.41-15.4-11.49c-5.88-3.29-12.21-6.07-18.94-7a31.77,31.77,0,0,0-9.78.17c-1.9.32-1.09,3.21.8,2.89Z" transform="translate(-660.41 -119.05)"/><path d="M919.3,181.34a38.76,38.76,0,0,1,27.23.78c1.78.73,2.56-2.18.79-2.89a41.32,41.32,0,0,0-28.82-.78c-1.81.63-1,3.53.8,2.89Z" transform="translate(-660.41 -119.05)"/><path d="M945.24,189.49a14.38,14.38,0,0,0-4.59-3.4,16,16,0,0,0-6-2.14,12.44,12.44,0,0,0-10.41,4.63,1.52,1.52,0,0,0,.53,2.06,1.55,1.55,0,0,0,2.06-.54,7.25,7.25,0,0,1,3.5-2.4A10.12,10.12,0,0,1,935,187a15,15,0,0,1,4.45,1.84,11.81,11.81,0,0,1,3.71,2.79c1.24,1.48,3.36-.65,2.12-2.12Z" transform="translate(-660.41 -119.05)"/><path d="M929.12,188.58a4.9,4.9,0,0,0,1.63,3.49,4.78,4.78,0,0,0,4,1.18,5,5,0,0,0,3.25-2.14,4.3,4.3,0,0,0,.7-1.68,2.38,2.38,0,0,0-.17-1.6,2,2,0,0,0-1.63-1,5.76,5.76,0,0,0-1.31.12c-.39,0-.77.12-1.16.2a16.14,16.14,0,0,0-2.25.67,1.51,1.51,0,0,0,.4,2.95l1.65,0a1.5,1.5,0,0,0,1.06-2.56,1.71,1.71,0,0,0-1.06-.44c.12,0,.21,0,0,0l-.24,0-.54-.11c-.34-.08-.67-.17-1-.28l.66,2.51c-.17.12-.18.14,0,.05l-.07,0c.16,0,.13,0-.09,0h.21a1.5,1.5,0,0,0,.4-2.94l-1.9-.47-.4,3,1.21,0a1.5,1.5,0,1,0,0-3l-1.21,0a1.5,1.5,0,0,0-.4,2.94l1.9.47.4-3a3.23,3.23,0,0,0-2.13.81,1.46,1.46,0,0,0-.39,1.46,1.54,1.54,0,0,0,1,1,13.75,13.75,0,0,0,2.55.53v-3l-1.65,0,.4,2.95a15.12,15.12,0,0,1,3.1-.84l.19,0c.17,0-.08,0-.1,0a1.93,1.93,0,0,1,.42,0c.08,0,.34,0,.11,0h-.12l-.76-.77a.66.66,0,0,1,0-.44c-.07.19-.1.4-.16.59s.06-.15.06-.15a.52.52,0,0,0-.06.13l-.16.28a.76.76,0,0,0-.08.11c-.11.17.19-.22.06-.08l-.19.21a1.8,1.8,0,0,1-.2.19c-.25.22.18-.1,0,0s-.35.2-.53.3.15-.06.15-.06a.65.65,0,0,0-.13,0,1.92,1.92,0,0,1-.32.09s-.16,0-.18,0,.33,0,.17,0a2.62,2.62,0,0,1-.28,0h-.28l.17,0a.71.71,0,0,0-.22-.05l-.26-.08-.13-.05s.29.14.15.06l-.24-.13c-.06,0-.37-.26-.19-.11s-.08-.08-.13-.12a2.39,2.39,0,0,1-.22-.23c-.22-.25.11.18,0,0a3.28,3.28,0,0,1-.2-.31c0-.06-.18-.37-.08-.15s0-.1,0-.16,0-.25-.09-.36,0,.34,0,.18,0-.16,0-.23a1.5,1.5,0,0,0-3,0Z" transform="translate(-660.41 -119.05)"/><path d="M904.06,189c-1.34-4.24-6.88-4.36-10.52-4.59a24.63,24.63,0,0,0-7,.11A4.32,4.32,0,0,0,884.1,186c-.49.61-.79,1.69-1.49,2.06-1.72.89-.2,3.48,1.51,2.59a4.23,4.23,0,0,0,1.62-1.63c.33-.54.55-1.23,1.16-1.5a6,6,0,0,1,2.24-.23c1.1,0,2.2,0,3.3.05a35.73,35.73,0,0,1,5.66.58c1.13.24,2.67.64,3.06,1.87.58,1.84,3.48,1.06,2.9-.79Z" transform="translate(-660.41 -119.05)"/><path d="M886.41,188.17c1.19,2.06,2.69,4.28,5.11,5,2.85.82,5.35-1,7.37-2.78a1.52,1.52,0,0,0-.66-2.51,13.3,13.3,0,0,0-8.41-.11,1.5,1.5,0,0,0,.8,2.89c1.55-.41,3.11-1.89,2.12-3.59-.84-1.44-2.74-1.19-4-.45a1.5,1.5,0,1,0,1.51,2.59l.32-.17c-.31.14.07,0,.12,0,.26-.1-.14,0,0,0s.08,0-.12,0c.17.05.13,0-.11-.1a.84.84,0,0,1-.44-1s.25-.41.25-.36-.44.23-.12.09a2.4,2.4,0,0,1-.38.12l.8,2.89a10.33,10.33,0,0,1,6.81.12l-.66-2.51A11.36,11.36,0,0,1,894.4,190l-.26.12-.27.1-.38.1s-.37.06-.15,0a4.33,4.33,0,0,1-.72,0c-.19,0,.17.06-.1,0l-.34-.1-.14-.05c.16.07-.17-.08-.2-.1a4.45,4.45,0,0,1-.58-.38c.12.1,0,0,0,0l-.26-.24c-.18-.17-.34-.35-.5-.53s-.16-.19-.23-.29c.09.13,0,0,0-.05s-.29-.41-.43-.62c-.27-.41-.52-.83-.77-1.26a1.5,1.5,0,0,0-2.59,1.51Z" transform="translate(-660.41 -119.05)"/><path d="M904.36,177q-3.33-.5-6.68-.92a57.38,57.38,0,0,0-6.66-.69c-4.12,0-7.76,2-11.18,4.05a1.5,1.5,0,0,0,1.51,2.59c3.12-1.88,6.34-3.79,10.11-3.63a114.88,114.88,0,0,1,12.1,1.5,1.56,1.56,0,0,0,1.85-1.05,1.52,1.52,0,0,0-1-1.85Z" transform="translate(-660.41 -119.05)"/><path d="M915.65,188.56c-.21,4.88.07,9.91,2,14.48,1.69,4.08,5.07,7.83,5.18,12.42l1.5-1.5a115.05,115.05,0,0,1-19-.23c-1.92-.18-1.91,2.82,0,3a115.05,115.05,0,0,0,19,.23,1.53,1.53,0,0,0,1.5-1.5c-.11-4.69-3-8.39-4.92-12.45-2.18-4.49-2.42-9.55-2.21-14.45.08-1.93-2.92-1.92-3,0Z" transform="translate(-660.41 -119.05)"/><path d="M931.89,227.4c-6.49.08-13,.18-19.48.24a72.52,72.52,0,0,1-9.44-.45,46.58,46.58,0,0,0-9.58-.55c-1.91.16-1.92,3.16,0,3a46.54,46.54,0,0,1,9.58.55,72.52,72.52,0,0,0,9.44.45c6.49-.06,13-.16,19.48-.24a1.5,1.5,0,0,0,0-3Z" transform="translate(-660.41 -119.05)"/><path d="M901.3,237.08l25.33,1c1.93.07,1.92-2.93,0-3l-25.33-1c-1.93-.07-1.92,2.93,0,3Z" transform="translate(-660.41 -119.05)"/><path d="M921,236.2a92.24,92.24,0,0,1-13.59.89,1.5,1.5,0,0,0,0,3,99,99,0,0,0,14.39-1,1.51,1.51,0,0,0,1-1.85A1.54,1.54,0,0,0,921,236.2Z" transform="translate(-660.41 -119.05)"/><path d="M958.27,422.35c9.75,1.3,19.77,2.47,29.46.07a34.53,34.53,0,0,0,12.14-5.54,70.59,70.59,0,0,0,10-9.51c1.3-1.42-.82-3.55-2.12-2.12a67.22,67.22,0,0,1-9.36,9,32.52,32.52,0,0,1-11.85,5.34c-9.28,2.19-18.92,1-28.24-.28-.81-.11-1.5.77-1.5,1.5a1.53,1.53,0,0,0,1.5,1.5Z" transform="translate(-660.41 -119.05)"/><path d="M988.72,393.92a3.81,3.81,0,0,0-4.47,2.52,3.91,3.91,0,0,0,.26,2.81,3.7,3.7,0,0,0,2,1.79,4.36,4.36,0,0,0,4.62-.8,3.32,3.32,0,0,0,1.1-2.24,3.26,3.26,0,0,0-.93-2.47,4.21,4.21,0,0,0-2.56-1.27,9.16,9.16,0,0,0-3.29.32,1.5,1.5,0,0,0,0,2.89l1.35.27A7.77,7.77,0,0,1,988,398l-.36-.15c.13.07.08,0-.14-.13s-.2-.29-.13-.16l-.15-.36a.52.52,0,0,1,0,.11l-.05-.39V397l.05-.4a.19.19,0,0,1,0,.1l.16-.36c-.11.19.26-.29.09-.13l.21-.16-.12.06.36-.15-.25.07.4-.05c-.27,0-.55,0-.83,0a2.2,2.2,0,0,0-1.57.68,1.53,1.53,0,0,0-.31,1.64,1.49,1.49,0,0,0,1.37.92l4.25,0v-3H989.4a1.5,1.5,0,0,0,0,3h1.53a1.5,1.5,0,0,0,0-3l-4.25,0,1.06,2.56c.1-.11,0-.07-.16.11a.39.39,0,0,1,.11-.06l-.36.15.2,0-.4.05a4.42,4.42,0,0,1,.63,0,2.56,2.56,0,0,0,1.09-.22,2,2,0,0,0,1.22-2.33,2.24,2.24,0,0,0-1.93-1.45l-1.89-.38v2.89c.45-.1.89-.2,1.34-.27l-.4.06a5.55,5.55,0,0,1,1.35,0l-.4-.05a3.22,3.22,0,0,1,.74.19l-.36-.15.39.19.18.12c-.35-.2-.19-.15-.08-.06l.15.15c.1.11.12.26-.06-.09.06.13.15.23.21.36l-.15-.36a2.75,2.75,0,0,1,.13.47l-.06-.4a1.55,1.55,0,0,1,0,.43l0-.4a2,2,0,0,1-.1.41l.15-.36c-.06.13-.14.24-.2.36.2-.37.17-.21.06-.09l-.15.15c-.24.21.09-.09.11-.07a2,2,0,0,0-.22.14,3,3,0,0,1-.4.2l.36-.15a2.94,2.94,0,0,1-.76.2l.4-.05a2.81,2.81,0,0,1-.71,0l.4.06a3.67,3.67,0,0,1-.74-.2l.36.15-.4-.2a1,1,0,0,0-.17-.12c.19.15.23.19.15.11l-.09-.08a.86.86,0,0,1-.13-.14c-.13-.12.2.31.07.1s-.14-.25-.2-.38l.15.35a3.58,3.58,0,0,1-.16-.56l.06.4a2.43,2.43,0,0,1,0-.66l-.06.4a2.12,2.12,0,0,1,.16-.56l-.15.35c0-.11.11-.21.17-.32s-.25.27-.06.08l.12-.13a.53.53,0,0,0,.14-.12c0,.06-.32.23-.11.09a3.9,3.9,0,0,1,.35-.19l-.36.15a2.58,2.58,0,0,1,.62-.17l-.4.05a2.72,2.72,0,0,1,.57,0l-.4-.06.21,0a1.54,1.54,0,0,0,1.85-1.05,1.52,1.52,0,0,0-1-1.84Z" transform="translate(-660.41 -119.05)"/><path d="M846.61,397.09c-1.8.33-2.12,2.81-1,4a4.35,4.35,0,0,0,4.15.73,3,3,0,0,0,1.77-1.3,2.4,2.4,0,0,0-.06-2.43,4,4,0,0,0-3.65-1.48,5.16,5.16,0,0,0-3.52,1.35,3.6,3.6,0,0,0-.53,4.18c1.36,2.71,5.17,2.91,7.66,1.86a3.2,3.2,0,0,0,2-3.94c-.56-1.51-2.35-2.75-4-2.08a1.63,1.63,0,0,0-.89.68,1.57,1.57,0,0,0-.16,1.16,1.53,1.53,0,0,0,1.85,1,1.47,1.47,0,0,0,.25-.08l-.23,0h.17c.29,0-.34-.11-.07,0l.16.06-.2-.09.15.09c.27.14-.23-.24,0,0a1.14,1.14,0,0,0,.15.16c.08.08,0,0-.1-.13a.71.71,0,0,1,.1.14c.17.25-.08-.33,0,0l0,.08c0,.16,0,.11,0-.15a1,1,0,0,0,0,.17l0-.23a1.09,1.09,0,0,1-.05.17l.09-.19-.09.17c-.13.27.24-.21,0,0l-.13.13c-.12.1-.1.08.08-.06l-.16.1-.26.13s.31-.11.09,0-.38.13-.57.17l-.48.1c-.4.06.32,0-.08,0l-.48,0c-.2,0-.41,0-.61,0a2,2,0,0,1-.35,0c.37.1,0,0-.07,0a1.56,1.56,0,0,1-.57-.16c.3.2,0,0-.07-.05s-.4-.21-.18-.1,0,0-.08-.08a2.18,2.18,0,0,1-.21-.22c-.23-.24.16.28,0,0l-.1-.18,0-.08c-.07-.15-.06-.12,0,.08a1.58,1.58,0,0,1-.08-.28c-.1-.31,0,.34,0,0,0-.05,0-.26,0-.29l0,.21a1.33,1.33,0,0,1,0-.19c.07-.31-.18.27,0,0l.1-.15-.13.16.11-.13c0-.05.16-.12.19-.18l-.16.13.15-.1.15-.08.17-.08c-.22.09-.26.1-.1.05l.45-.14.28,0c.33-.07-.36,0,0,0l.48,0c.21,0,.45.05.65,0-.32,0-.25-.05-.08,0l.22,0,.09,0c.15.06.12,0-.1-.05a.9.9,0,0,0,.24.12c.21.11-.09,0-.1-.08l.06.06q.15.16-.09-.12c.16.24-.1-.35,0-.07,0-.27,0-.32,0-.15,0-.25,0-.31,0-.2l0,0a.71.71,0,0,1,.23-.39L849,399c.2-.15.23-.18.1-.09l-.07,0,.11,0a1.53,1.53,0,0,0-.26.08,1.18,1.18,0,0,0-.27.06l.12,0h-.18c-.2,0-.41,0-.61,0s.31.1,0,0c0,0-.27,0-.29-.09l.17.07c-.13-.09-.12-.07.06.06-.13-.12-.11-.09.06.12-.08-.14-.06-.09.05.15,0,0-.09-.33,0,0s0,.17,0,.05c0,.27-.05.32,0,.17s-.17.33,0,.09a.88.88,0,0,1-.34.35c-.25.09-.3.12-.15.08a1.49,1.49,0,0,0,1.05-1.84,1.54,1.54,0,0,0-1.84-1.05Z" transform="translate(-660.41 -119.05)"/><path d="M875.21,410.89c-.75,1.49-2.48,2-3.9,2.7a50.9,50.9,0,0,0-4.89,3.22,23.56,23.56,0,0,1-11.21,3.29,50.16,50.16,0,0,1-11.67-.82,38.71,38.71,0,0,1-10.15-3,17.38,17.38,0,0,1-8.31-7.66c-.87-1.72-3.46-.21-2.59,1.51,3.58,7.08,11.47,10.32,18.84,11.82,8.26,1.68,17.71,2.31,25.39-1.8,2.15-1.15,3.91-2.88,6.11-3.93,1.92-.93,3.95-1.75,5-3.78.86-1.72-1.73-3.24-2.59-1.51Z" transform="translate(-660.41 -119.05)"/><path d="M916.76,536.05a11.42,11.42,0,0,0-3.13,5.51,1.53,1.53,0,0,0,1.45,1.9c1.19.1,2.39.25,3.59.28a4,4,0,0,0,3.45-1.46,4,4,0,0,0,.72-3.32,3.94,3.94,0,0,0-5.74-2.31,3.32,3.32,0,0,0-1.58,3.58,2.78,2.78,0,0,0,5.5-.8,3.12,3.12,0,0,0-3.16-2.84,3.63,3.63,0,0,0-3.31,2.65,1.51,1.51,0,0,0,1,1.85,1.53,1.53,0,0,0,1.85-1.05l0-.08c0-.15,0-.12-.05.1a1.08,1.08,0,0,0,.13-.24c.11-.21,0,.08-.08.09s.15-.17.19-.2l.06-.06c.12-.11.09-.08-.09.06a.54.54,0,0,0,.15-.09c.26-.17-.33.08,0,0,0,0,.44-.12.15,0s0,0,.05,0c.3,0-.36-.09-.07,0l.16,0c.29.08-.29-.18,0,0l.07,0c.13.09.1.06-.1-.09l.12.12c.22.19-.18-.3,0,0s-.06-.36,0,0,0-.41,0-.12v.08c0,.16,0,.11,0-.16a.67.67,0,0,0,0,.19c0,.18.17-.34,0-.1s.26-.24.05,0c0,0-.24.21,0,0s0,0,0,0c.25-.1.29-.12.14-.07s-.1,0,.16,0c-.18,0,0-.09.15,0l-.08,0c-.15-.05-.11,0,.13.06l-.08,0c-.13-.09-.09-.06.1.09,0,0-.11-.11-.12-.12-.21-.21.15.3,0,0,0-.05-.18-.27,0-.05s0-.06,0-.07c0,.26,0,.31,0,.15s0-.12,0,.13l0-.17c0-.29-.18.29,0,0a1.09,1.09,0,0,0,.14-.23s-.25.27-.07.1c0,0,.19-.15.19-.18l-.16.12.15-.1.16-.08-.11,0,.16,0c.06,0,.32,0,0,0s0,0,.05,0h.24c.24,0-.12,0-.15,0a2,2,0,0,0,.48.13c-.24,0-.27-.13-.13-.05l.28.16c.25.14-.19-.2-.07-.06l.15.14c.06.05.11.13.17.18-.25-.2-.14-.21-.07-.07a.64.64,0,0,0,.1.18l-.09-.21.06.15a.94.94,0,0,0,0,.16c.07.24,0-.41,0,0a1.92,1.92,0,0,1,0,.24c0,.14-.09.12,0-.16,0,.12-.08.3-.11.43s.18-.35,0-.1a2.25,2.25,0,0,1-.12.21s-.18.26,0,0,0,0-.09.09-.21.07.06,0c-.07,0-.14.1-.21.13-.27.15,0,0,0,0s-.26.08-.31.09c-.34.1.32,0,0,0h-.44l-.66,0-3-.25,1.45,1.9a9.41,9.41,0,0,1,.38-1.28c0-.06.05-.13.08-.19s0-.13,0,.07a1,1,0,0,1,.12-.28l.31-.59c.11-.19.23-.38.35-.57l.17-.25.13-.18c-.14.2.11-.14.14-.17a2.2,2.2,0,0,1,.2-.23c.16-.18.32-.35.5-.52a1.5,1.5,0,0,0-2.12-2.12Z" transform="translate(-660.41 -119.05)"/><path d="M1139.67,711.76l-10.39,2.32a64.28,64.28,0,0,1-10,1.76c-7,.41-14.2-.5-21.09-1.61-1.89-.3-2.7,2.59-.8,2.89,7.15,1.16,14.63,2.15,21.89,1.72a63.8,63.8,0,0,0,10.35-1.77l10.86-2.42c1.88-.42,1.09-3.31-.8-2.89Z" transform="translate(-660.41 -119.05)"/><path d="M1101.54,717.85c.26,3.41.26,6.82.71,10.22a98.1,98.1,0,0,0,1.94,9.74c1.54,6.45,3.22,12.93,2.73,19.61-.14,1.93,2.86,1.92,3,0,.48-6.63-1.09-13.12-2.63-19.52-.78-3.24-1.55-6.48-2-9.78s-.45-6.85-.72-10.27c-.15-1.91-3.15-1.93-3,0Z" transform="translate(-660.41 -119.05)"/><path d="M1113.22,717.59c2.38,18.5,8.18,36.4,10,55,.19,1.9,3.19,1.92,3,0-1.85-18.6-7.65-36.49-10-55-.24-1.89-3.25-1.92-3,0Z" transform="translate(-660.41 -119.05)"/><path d="M1129.43,715a215.05,215.05,0,0,0,5.82,56.35c.44,1.88,3.34,1.08,2.89-.8a212,212,0,0,1-5.71-55.55c0-1.93-3-1.93-3,0Z" transform="translate(-660.41 -119.05)"/><path d="M745,721.05c-15.5-.49-30.47,5.42-46,4.27-1.93-.15-1.92,2.85,0,3,15.52,1.15,30.49-4.76,46-4.27,1.93.07,1.93-2.93,0-3Z" transform="translate(-660.41 -119.05)"/><path d="M728.6,725.16A241.64,241.64,0,0,0,725,765.61a1.5,1.5,0,0,0,3,0A234.2,234.2,0,0,1,731.5,726c.33-1.89-2.57-2.7-2.9-.8Z" transform="translate(-660.41 -119.05)"/><path d="M712,726.58a342.81,342.81,0,0,0-1,49.85c.1,1.92,3.1,1.93,3,0a342.81,342.81,0,0,1,1-49.85c.18-1.92-2.82-1.91-3,0Z" transform="translate(-660.41 -119.05)"/><path d="M699.87,726.88q-3,24-3.67,48.23c-.06,1.93,2.94,1.93,3,0q.67-24.2,3.67-48.23c.23-1.92-2.77-1.9-3,0Z" transform="translate(-660.41 -119.05)"/></svg>