<svg id="Layer_1" data-name="Layer 1" xmlns="http://www.w3.org/2000/svg" viewBox="0 0 449.45 268.24"><title>eyeRight</title><path d="M1180.51,534.27a319.56,319.56,0,0,0-157-101.77A356.65,356.65,0,0,0,933.16,419a393.23,393.23,0,0,0-92,8.92,401.39,401.39,0,0,0-87.32,29.74c-3.42,1.62-6.8,3.3-10.17,5s-.41,6.93,3,5.18A394.47,394.47,0,0,1,832,436.15a389,389,0,0,1,89.88-11.27,355.36,355.36,0,0,1,89.58,10.57,313.62,313.62,0,0,1,157,94.08q4,4.41,7.84,9c2.49,3,6.72-1.31,4.24-4.24Z" transform="translate(-734.8 -407.28)"/><path d="M987.15,459.31c7.8-2.1,15.79-.39,23.31,2,7.31,2.33,14.48,5.13,21.61,7.94q21.45,8.49,42.1,18.84a536.68,536.68,0,0,1,78.77,48.34c6.52,4.83,13.21,9.63,18.54,15.81,4.59,5.32,8.19,12.1,6.16,19.25l2.09-2.09c-26.37,4.51-53.17,1.32-79.65-.26-13.16-.78-26.21-.56-38.9,3.39-6.08,1.89-12,4.27-18,6.25s-12,3.59-18.17,5a211.27,211.27,0,0,1-74.79,2.52,254.44,254.44,0,0,1-69.7-20.7,303,303,0,0,1-32.12-17.11c-9.58-5.85-19.51-12-26.74-20.74a39.89,39.89,0,0,1-4.44-6.77c-1.81-3.41-7-.38-5.19,3,5.43,10.25,14.7,17.56,24.19,23.85a302.6,302.6,0,0,0,31.89,18.43,268,268,0,0,0,69.9,24,224.73,224.73,0,0,0,76.69,1.47,202.57,202.57,0,0,0,37.14-9.63c6.1-2.2,12.2-4.48,18.56-5.81a89.8,89.8,0,0,1,19.84-1.57c13.53.21,27,1.69,40.55,2.41s27.12.93,40.61-.56c3.33-.37,6.66-.84,10-1.41a2.94,2.94,0,0,0,2.09-2.09c4.22-14.84-8.48-27.34-19.13-35.56q-19.23-14.82-39.75-27.84a541.4,541.4,0,0,0-85.74-44.16c-8.38-3.41-16.85-6.74-25.45-9.58-8.94-2.95-18.5-4.93-27.79-2.42-3.73,1-2.15,6.79,1.59,5.78Z" transform="translate(-734.8 -407.28)"/><path d="M1144.29,571.57a60,60,0,0,0,20.83-25.08c.77-1.75-1.81-3.28-2.59-1.51a57.18,57.18,0,0,1-19.75,24c-1.58,1.09-.08,3.69,1.51,2.59Z" transform="translate(-734.8 -407.28)"/><path d="M976.31,449.56a336,336,0,0,0-80.22,10.19,340.84,340.84,0,0,0-75.48,28.93,326.47,326.47,0,0,0-38.16,23.57c-2.72,2-3.07,5.89,0,7.77,12.44,7.61,26.69-1.89,37.72-7.68q17.88-9.41,36.49-17.34c1.3-.56,2.22-.94,4-1.66s3.36-1.38,5-2q4.64-1.86,9.31-3.63,9.56-3.62,19.25-6.85,19.17-6.37,38.82-11.22,22.26-5.47,45-8.9c1.85-.28,3.38-2.55,3.3-4.34s-1.32-4-3.3-4.34c-13.65-2.57-27.26.34-40.48,3.8s-26.56,7-39.85,10.53L857.48,477q-9.78,2.58-19.56,5.17a149.47,149.47,0,0,0-14.47,4.5c-11,4.14-21.71,10.41-27.25,21.19a4.61,4.61,0,0,0,.7,5.45,4.74,4.74,0,0,0,5.46.71q17.58-8.52,35.52-16.28l4.24-1.81c1.38-.59-.77.32.62-.26l.85-.36,2.54-1.06q4.47-1.84,9-3.64,9.07-3.63,18.26-7A499.07,499.07,0,0,1,948,462.44a368,368,0,0,1,42.3-5.9c2.34-.18,4.62-1.93,4.5-4.5-.1-2.27-2-4.7-4.5-4.5a422.22,422.22,0,0,0-77.65,14A601.78,601.78,0,0,0,838,487.94c-13.56,5.73-26.94,11.86-40.19,18.26l6.16,6.16a33,33,0,0,1,1.77-3c.32-.48.67-.94,1-1.41-.55.77-.21.25-.07.09l.77-.93c.71-.82,1.47-1.6,2.26-2.35.42-.4.84-.78,1.28-1.16l.79-.66c.19-.16,1-.8.18-.16a51.56,51.56,0,0,1,5.91-3.79c1-.58,2.11-1.12,3.19-1.63.55-.25,1.09-.51,1.64-.75l.67-.29c1-.42-.63.25.27-.11,10.47-4.15,21.52-6.64,32.39-9.52L934.24,466c7-1.85,14-3.78,21.13-5,.94-.16,1.88-.31,2.83-.44l.22,0,1.65-.18c1.81-.19,3.62-.32,5.44-.36s3.46,0,5.19.1c.94.06,1.88.15,2.82.26-.67-.08.12,0,.21,0,.63.1,1.25.21,1.88.33V452a502.46,502.46,0,0,0-78.18,18.29A512,512,0,0,0,822.48,501c-6.44,3.26-12.69,7-19.25,10l-1.17.52c.8-.35-.46.17-.5.19-.79.31-1.58.59-2.38.85s-1.85.57-2.79.78l-.79.17c-.2,0-1.86.25-.78.15a23.26,23.26,0,0,1-2.35.12c-.39,0-.77,0-1.16,0-1,0,.71.18-.32,0-.76-.16-1.49-.35-2.23-.58-1.17-.35.72.44-.37-.14-.47-.25-.94-.49-1.4-.77V520a327.66,327.66,0,0,1,33.6-21.12q8.71-4.77,17.69-9,4.5-2.11,9-4.1l2.38-1,.52-.22,1-.41q2.29-1,4.6-1.88a335.22,335.22,0,0,1,76.54-20.51l1.28-.18c.16,0,1.88-.26.94-.14l2.57-.33c1.86-.23,3.71-.45,5.57-.65q5.58-.6,11.18-1,11.19-.82,22.42-.88a4.5,4.5,0,0,0,0-9Z" transform="translate(-734.8 -407.28)"/><path d="M994.54,455.49a74.37,74.37,0,0,1-13.66-.94A1.55,1.55,0,0,0,979,455.6a1.52,1.52,0,0,0,1.05,1.84,77.79,77.79,0,0,0,14.46,1.05c1.93,0,1.93-3,0-3Z" transform="translate(-734.8 -407.28)"/><path d="M1156.06,587.47l-41-3c-6.6-.48-13.24-1.18-19.87-1a71.42,71.42,0,0,0-19.94,3.62c-12.34,3.87-24.61,7.72-37.23,10.63a357.26,357.26,0,0,1-37.49,6.62,369.26,369.26,0,0,1-77.09,1.24c-24.7-2.21-50.13-6.45-72-18.73a115.43,115.43,0,0,1-45.6-47.13c-1.3-2.49-2.5-5-3.62-7.58l-7.07,5.45c7.95,7.11,12.34,17.08,18.75,25.43a92.79,92.79,0,0,0,21.84,20.33c16.44,11.09,35.85,17.36,55.16,21.21,22.44,4.47,45.56,6.27,68.41,6.71a469.07,469.07,0,0,0,74-4.53,457.94,457.94,0,0,0,71.89-16q4.32-1.34,8.62-2.76a4.62,4.62,0,0,0,3.3-4.33c0-1.82-1.38-4.05-3.3-4.34-25.17-3.91-48.57,6.47-71.7,14.86-6.55,2.38-13.16,4.59-19.92,6.31a4.5,4.5,0,0,0,2.39,8.68l62.49-11.58c2.39-.44,3.75-3.34,3.14-5.54a4.59,4.59,0,0,0-5.53-3.14l-62.49,11.58,2.39,8.68c23-5.85,44.41-18.1,68.12-21.21a66.63,66.63,0,0,1,18.71,0v-8.67a460,460,0,0,1-70.56,17.25,453.57,453.57,0,0,1-71.54,5.8c-22.92.06-46.39-1.37-68.61-5.11C881.8,594,863,589,846.45,579.41a86.41,86.41,0,0,1-21.63-17.24c-6.82-7.56-11.45-17.06-17.92-25.2a47,47,0,0,0-5.42-5.78,4.55,4.55,0,0,0-5.91-.36c-1.89,1.51-2.08,3.69-1.16,5.81a124.08,124.08,0,0,0,43.22,52.18C859.3,603.76,885,610,910.73,613.18a367.92,367.92,0,0,0,78.08,1.35A374.37,374.37,0,0,0,1066,599.46c6.27-1.93,12.44-4.26,18.83-5.75s12.81-1.44,19.29-1c13.87.88,27.73,2,41.59,3l10.35.76c2.43.18,4.5-2.2,4.5-4.5a4.59,4.59,0,0,0-4.5-4.5Z" transform="translate(-734.8 -407.28)"/><path d="M938.18,450.85c-8.95-12.32-9.57-28.19-10-42.85,0-1-1.53-1-1.5,0,.42,14.9,1.09,31.08,10.19,43.61.57.77,1.87,0,1.3-.76Z" transform="translate(-734.8 -407.28)"/><path d="M913.91,457.13c-4.8-5.67-10.67-10.4-15.11-16.39a32.5,32.5,0,0,1-5.15-10.31,75.84,75.84,0,0,1-2.13-12.61c-.11-.95-1.61-1-1.5,0a81.1,81.1,0,0,0,2.07,12.58,33.19,33.19,0,0,0,5.19,10.78c4.53,6.25,10.6,11.14,15.57,17,.62.73,1.68-.33,1.06-1.07Z" transform="translate(-734.8 -407.28)"/><path d="M899.67,464.11a8,8,0,0,0-2.1-4.71c-1.3-1.6-2.71-3.1-4.07-4.64A123.81,123.81,0,0,1,885,444.17c-5-7.1-8.69-15.36-8.42-24.18a.75.75,0,0,0-1.5,0c-.26,8.44,3,16.5,7.61,23.44a100.35,100.35,0,0,0,7.85,10.16c1.43,1.66,2.88,3.3,4.33,4.94s3.23,3.31,3.33,5.58c.05,1,1.55,1,1.5,0Z" transform="translate(-734.8 -407.28)"/><path d="M876.11,471c-6-6.14-12-12.4-16.36-19.84a42,42,0,0,1-4.84-11.9,80.08,80.08,0,0,1-1.48-14.9.75.75,0,0,0-1.5,0c.28,7.48.74,14.92,3.68,21.91,2.68,6.35,6.81,11.94,11.32,17.11,2.61,3,5.36,5.84,8.12,8.68.67.7,1.73-.36,1.06-1.06Z" transform="translate(-734.8 -407.28)"/><path d="M848.41,477.26C838.75,464,822,452.54,821.89,434.54a.75.75,0,0,0-1.5,0c.16,18.43,16.84,29.93,26.72,43.47.57.77,1.87,0,1.3-.75Z" transform="translate(-734.8 -407.28)"/><path d="M822.25,494.43A70.94,70.94,0,0,1,792,448c-.17-.95-1.61-.55-1.44.4a72.93,72.93,0,0,0,21.05,39.32,71.44,71.44,0,0,0,9.89,8c.8.54,1.56-.76.76-1.29Z" transform="translate(-734.8 -407.28)"/><path d="M808.56,501.54l-14.09-6.05c-4.41-1.89-9-3.63-13.08-6.1-7.07-4.24-12-11.1-15-18.68a58.39,58.39,0,0,1-3.39-13c-.14-.95-1.58-.54-1.45.4,1.18,8.07,3.84,16.1,8.61,22.78a35.69,35.69,0,0,0,8.2,8.3c3.93,2.83,8.47,4.65,12.9,6.55l16.58,7.13c.88.37,1.64-.92.76-1.3Z" transform="translate(-734.8 -407.28)"/><path d="M795.6,513.53c-20.12-6-39.34-16.94-51.43-34.52a66.73,66.73,0,0,1-7.87-15.27c-.33-.9-1.78-.51-1.45.4,7.22,20.14,23.78,35.24,42.82,44.21A123.53,123.53,0,0,0,795.2,515a.75.75,0,0,0,.4-1.45Z" transform="translate(-734.8 -407.28)"/><path d="M786.92,518.12c-2.64,2.83-6.51,3.62-10.22,3.92-4.28.34-8.6.36-12.9.51s-8.92.48-13.17-1c-3.92-1.36-7.29-3.93-10.37-6.65-.72-.64-1.78.42-1.06,1.06a34.6,34.6,0,0,0,10.65,6.9c4.48,1.66,9.27,1.36,13.95,1.19s9.4-.12,14-.62c3.74-.41,7.5-1.41,10.14-4.25.66-.7-.4-1.77-1.06-1.06Z" transform="translate(-734.8 -407.28)"/><path d="M1014,605.12c.66,13.27-3.78,26.49-1.06,39.7.2.95,1.64.55,1.45-.4-2.69-13,1.77-26.18,1.11-39.3-.05-1-1.55-1-1.5,0Z" transform="translate(-734.8 -407.28)"/><path d="M973.93,612.31q-1,15.83-.6,31.68a.75.75,0,0,0,1.5,0q-.39-15.84.6-31.68c.06-1-1.44-1-1.5,0Z" transform="translate(-734.8 -407.28)"/><path d="M952.58,613.24c-1.17,8.79-8.88,14.86-13.92,21.55a63.09,63.09,0,0,0-12.56,40,.75.75,0,0,0,1.5,0A61.59,61.59,0,0,1,940,635.55c2.66-3.54,5.79-6.71,8.5-10.21s5-7.53,5.62-12.1c.12-1-1.38-1-1.5,0Z" transform="translate(-734.8 -407.28)"/><path d="M919.74,609.83a81.36,81.36,0,0,0-16.53,45,79,79,0,0,0,.51,14c.12.94,1.62.95,1.5,0A79.44,79.44,0,0,1,921,610.58c.59-.76-.71-1.51-1.29-.75Z" transform="translate(-734.8 -407.28)"/><path d="M879.91,603.21c-3.8-.32-6.85,2.31-9.07,5.1a103.63,103.63,0,0,0-7.39,11.16,185.84,185.84,0,0,0-12.58,25q-3.07,7.47-5.48,15.2l1.45.4a14.43,14.43,0,0,0-.39-6.66c-.28-.92-1.73-.53-1.45.4a12.63,12.63,0,0,1,.39,5.86.75.75,0,0,0,1.45.4,182.91,182.91,0,0,1,23.1-48c2.28-3.37,5.36-7.78,10-7.39,1,.09,1-1.41,0-1.5Z" transform="translate(-734.8 -407.28)"/><path d="M843.09,584.77c-14,10.75-21.84,27.28-25.48,44.24a146.09,146.09,0,0,0-2.45,16c-.1,1,1.4,1,1.5,0,1.79-17.43,6.22-35.3,17.37-49.25a57.6,57.6,0,0,1,9.81-9.68c.76-.58,0-1.88-.75-1.29Z" transform="translate(-734.8 -407.28)"/><path d="M828.13,576.06a68.6,68.6,0,0,0-26.66,34.74,65.4,65.4,0,0,0-3,12.51c-.13.94,1.31,1.35,1.44.4a67.15,67.15,0,0,1,19.26-38.48,65.27,65.27,0,0,1,9.67-7.88c.8-.53.05-1.83-.76-1.29Z" transform="translate(-734.8 -407.28)"/><path d="M817.5,563c-7.63,1.83-14.57,6.49-20.75,11.16a66.44,66.44,0,0,0-14.92,15.11,44.33,44.33,0,0,0-5.42,10.7c-.32.91,1.13,1.3,1.44.4,4.66-13.47,16.1-23.29,27.92-30.52a42.17,42.17,0,0,1,12.13-5.4c.94-.22.54-1.67-.4-1.45Z" transform="translate(-734.8 -407.28)"/><path d="M806,544.93c-4.54.23-8.52,2.51-12.18,5a74.22,74.22,0,0,0-24.9,29.16c-2.46,5.15-4.48,10.51-6.61,15.79-.37.89,1.09,1.28,1.44.4,3.44-8.51,6.65-17.14,11.8-24.8a72.82,72.82,0,0,1,17-17.84c3.93-2.91,8.36-6,13.4-6.24,1,0,1-1.55,0-1.5Z" transform="translate(-734.8 -407.28)"/><path d="M800.42,532.39a58.06,58.06,0,0,0-38.18,28.84,54.27,54.27,0,0,0-5,12.92.75.75,0,0,0,1.44.4,56.6,56.6,0,0,1,29.46-36.26,53,53,0,0,1,12.73-4.45c.94-.2.54-1.65-.4-1.45Z" transform="translate(-734.8 -407.28)"/><path d="M913,560.48a36.24,36.24,0,0,0,34.27-23.06A28.35,28.35,0,0,0,950.48,523l-1.34-10a37.51,37.51,0,0,0-9.65-16.55l-7.59-5.87A37.3,37.3,0,0,0,913,485.48a36.18,36.18,0,0,0-34.27,23A28.16,28.16,0,0,0,875.48,523l1.34,10a37.39,37.39,0,0,0,9.64,16.55l7.59,5.87A37.45,37.45,0,0,0,913,560.48Z" transform="translate(-734.8 -407.28)"/><path d="M959.31,459.22c7.48,5.59,12.26,14.23,14.91,23,3.23,10.71,3.56,22,3.7,33.08.13,10.31.08,20.9-3.48,30.71-3,8.34-9,15-16.11,20.06C950,572,940.47,576,931.06,579.83a3.09,3.09,0,0,0-2.09,3.69c.39,1.43,2.18,2.71,3.69,2.1,17.51-7.08,37.31-15.54,45.8-33.72,4.76-10.2,5.51-21.58,5.49-32.68,0-11.92-.22-24.11-3.16-35.73s-8.85-22.27-18.45-29.45c-1.3-1-3.36-.21-4.11,1.08a3.07,3.07,0,0,0,1.08,4.1Z" transform="translate(-734.8 -407.28)"/><path d="M876.62,564.86c-4.9-8.89-12-16.21-17.59-24.66A70.93,70.93,0,0,1,848.42,513a69.81,69.81,0,0,1-.69-16.4,3,3,0,1,0-6,0A76,76,0,0,0,852.46,541a134.46,134.46,0,0,0,9.16,12.73,108.12,108.12,0,0,1,9.82,14.14c1.86,3.39,7,.36,5.18-3Z" transform="translate(-734.8 -407.28)"/></svg>