<svg id="Layer_1" data-name="Layer 1" xmlns="http://www.w3.org/2000/svg" viewBox="0 0 687.06 370.06"><title>handsOnHips</title><path d="M1095.75,357.92c10.84-1.1,21.23,2.47,30.85,7.14a224.44,224.44,0,0,1,26.33,14.81,70.62,70.62,0,0,1,11.48,9.36,56.41,56.41,0,0,1,8.65,12.08,82.73,82.73,0,0,0,8.61,13.26,108.92,108.92,0,0,0,10.81,10.78c17.52,15.75,35.15,31.38,52.73,47.07l26.49,23.64c7.83,7,16.37,13.73,22.53,22.34,5.39,7.54,8.69,17,3.77,25.68-4.31,7.57-12.29,12.11-17.88,18.59-6.53,7.58-9.92,17.51-14.41,26.33s-9.38,17.47-14.62,25.89a342.14,342.14,0,0,1-78.79,88c-14.75,11.58-35.22,23.56-54.12,14-4.53-2.29-7.53-5.85-11-9.39a24.53,24.53,0,0,0-11.25-6.55c-9.6-2.54-19.43-.08-28.83,2.1-5.44,1.26-10.91,2.38-16.52,2.32a1.5,1.5,0,0,0,0,3c11.17.12,21.59-4.45,32.63-5.34a33.17,33.17,0,0,1,14,1.47c5,1.79,8,5.48,11.59,9.14,6.52,6.69,15.67,9.68,24.89,9.57,10-.12,19.38-3.88,27.78-9,8.75-5.35,16.75-12,24.5-18.71s15-13.54,22.09-20.8a348.41,348.41,0,0,0,38.34-47.07q8.52-12.57,15.92-25.84c5-9,9.18-18.25,13.81-27.38a47,47,0,0,1,8.84-12.46c3.17-3.11,6.65-5.88,9.79-9,6.34-6.3,10.17-14.21,8.16-23.26-2.07-9.36-9-17.18-15.69-23.64-8.42-8.09-17.4-15.65-26.11-23.42l-54.34-48.5c-8.24-7.35-17.34-14.39-24.18-23.13-3.39-4.33-5.75-9.28-8.55-14a53.08,53.08,0,0,0-9.17-11.51c-7.17-6.8-15.84-11.75-24.44-16.49-9.34-5.15-18.92-10.45-29.39-12.93a46,46,0,0,0-15.29-1.13c-1.9.19-1.92,3.19,0,3Z" transform="translate(-616.39 -354.71)"/><path d="M1050.92,705.11c.2.06.06-.08.1-.4a2.71,2.71,0,0,1,.53-1.17,10.82,10.82,0,0,1,3.14-2.69,29.59,29.59,0,0,1,7.15-2.88c6.28-1.88,12.65-3.44,19.07-4.71,3.14-.62,6.29-1.16,9.45-1.64,2.44-.38,5.09-1,6.22-3.5,3-6.47-8.07-7.15-11.91-7.31a73.4,73.4,0,0,0-9.26.27,25.38,25.38,0,0,0-8.75,2.1c-2.92,1.34-5.71,3-8.53,4.57l-8.59,4.72a63.16,63.16,0,0,1-8.54,4.39,15.51,15.51,0,0,1-1.91.56c-.22.05-.89.27-1.12.15.31.17.16.18.23-.06a10.39,10.39,0,0,1,2.57-3.44c4.07-4.3,9-8,13.76-11.51,5.43-4.08,11.23-7.72,17.73-9.82a48.37,48.37,0,0,1,20.42-2c1.67.19,2.07-2.67.4-3-9.5-1.58-19.2-3.43-28.87-3.53a26.43,26.43,0,0,0-12.48,2.76,58.84,58.84,0,0,0-9.66,6.7c-1.14.91-8.16,7.29-9.24,4.95-.64-1.37.88-3.38,1.62-4.38a22.76,22.76,0,0,1,4.14-4.18,53.1,53.1,0,0,1,10.05-5.91,101.52,101.52,0,0,1,12.68-5.49c10.4-3.39,21.26-1.54,32-1.49,1.42,0,2.12-2.12.75-2.79a59.49,59.49,0,0,0-46.22-2.58c-1.86.68-3.66,1.72-5.56,2.25-.63.18-1.9.36-2-.58s1-2,1.54-2.62a40.22,40.22,0,0,1,8.61-7.48,47.64,47.64,0,0,1,20.75-7.51,46.28,46.28,0,0,1,12.44.23c3.69.59,8.36,1.42,10.69,4.66,1.12,1.56,3.72.06,2.59-1.51-2.33-3.24-6-4.69-9.79-5.53a48.22,48.22,0,0,0-12-1.13,51.11,51.11,0,0,0-23.31,6.48,47.32,47.32,0,0,0-9.82,7.29c-2.28,2.2-7.39,7.46-3,10.2,1.9,1.17,4,.52,5.89-.32a58.89,58.89,0,0,1,6.33-2.41A55.55,55.55,0,0,1,1064,651.5a56.21,56.21,0,0,1,28.56,5.53l.76-2.8c-10.18-.05-20.55-1.74-30.55.94a79.72,79.72,0,0,0-13.61,5.49,70.49,70.49,0,0,0-11.12,6.17c-3.14,2.27-6.54,5.31-7.86,9.06a5.07,5.07,0,0,0,.58,5c1.43,1.61,3.61,1.54,5.45.74a27.2,27.2,0,0,0,5.37-3.68c1.68-1.31,3.32-2.66,5-4,3.34-2.55,6.93-5,11-6,5.41-1.41,11.38-.54,16.86.08,6,.68,11.91,1.67,17.85,2.66l.39-3a50.72,50.72,0,0,0-19.07,1.46,56.74,56.74,0,0,0-17.16,8.27,158.53,158.53,0,0,0-15,11.75c-2.06,1.83-4.58,4-5.8,6.51s.13,5.17,3.14,4.76c3.17-.44,6-2,8.79-3.56l9-5c3.11-1.71,6.21-3.44,9.34-5.12a22.8,22.8,0,0,1,9-2.75,71.88,71.88,0,0,1,10-.3,33.31,33.31,0,0,1,4.88.57c.76.16,1.51.34,2.25.55.52.16,1.66.35,1.93.91.53,1.07-1,2-1.75,2.31a24.15,24.15,0,0,1-4.56.86q-5.21.83-10.36,1.92-5.62,1.2-11.19,2.69a80.73,80.73,0,0,0-9.84,3.09,16.58,16.58,0,0,0-7.19,5.15c-1.41,1.94-1.7,5.25,1,6.13,1.84.59,2.63-2.31.8-2.89Z" transform="translate(-616.39 -354.71)"/><path d="M1096.49,641.93c3.9,1,6.86,4.59,9.69,7.21l10,9.34,10.24,9.51c2.76,2.56,5.71,5.66,9.62,6.23,3.36.49,7.33-1.31,8-4.9.36-1.89-2.53-2.69-2.9-.8-.58,3-4.31,3.22-6.59,2.14a17.66,17.66,0,0,1-4.15-3c-1.55-1.42-3.08-2.87-4.63-4.3L1107.2,646c-2.94-2.72-5.88-6-9.91-7-1.88-.47-2.68,2.43-.8,2.89Z" transform="translate(-616.39 -354.71)"/><path d="M1142.24,671A470.07,470.07,0,0,0,1184,617.7a509.16,509.16,0,0,0,33.5-58.56c5.43-11,11.12-22,19.68-31,1.34-1.39-.78-3.51-2.12-2.12-7.53,7.84-13,17.32-17.84,27-5,10-9.89,20-15.31,29.71a463.24,463.24,0,0,1-37.16,56.67q-11.68,15.25-24.62,29.5c-1.3,1.43.82,3.55,2.12,2.12Z" transform="translate(-616.39 -354.71)"/><path d="M1226.29,533.66c-8.2-8.23-16.41-16.48-25.22-24.06a236.48,236.48,0,0,0-26.89-19.7c-9.19-5.9-18.57-11.5-27.59-17.67a167.88,167.88,0,0,1-25.81-21.54c-2.27-2.33-4.48-4.71-6.67-7.1a70.78,70.78,0,0,1-6.24-7.27c-3.62-5.19-4.61-11.52-5.54-17.64-.29-1.9-3.19-1.09-2.9.8.84,5.45,1.74,11,4.35,15.92s7.1,9.16,11,13.28a174.72,174.72,0,0,0,25.54,22.76c18,13,37.94,23.13,55.12,37.29,10.17,8.38,19.49,17.72,28.78,27a1.5,1.5,0,0,0,2.12-2.12Z" transform="translate(-616.39 -354.71)"/><path d="M1105,640.28c-7.5-8.86-10.92-20.28-13.38-31.42a262.22,262.22,0,0,1-5.6-39.63c-.83-12.83-1.16-26,.67-38.78a71.65,71.65,0,0,1,4.83-18,87.52,87.52,0,0,1,9.16-15.79c4.18-5.92,8.71-11.6,13.13-17.34l14.1-18.32a1.5,1.5,0,0,0-.54-2.05,1.53,1.53,0,0,0-2,.54c-8.34,10.84-16.87,21.56-25,32.56a105.31,105.31,0,0,0-10.1,16.05,69.82,69.82,0,0,0-5.84,18c-2.38,12.87-2.25,26.26-1.6,39.29a269.88,269.88,0,0,0,5.12,40.44c2.65,13,6.23,26.3,15,36.62,1.25,1.48,3.37-.65,2.13-2.12Z" transform="translate(-616.39 -354.71)"/><path d="M822.34,356.06c-10.69-1-21,2.43-30.52,7a219.72,219.72,0,0,0-27,15.27c-8.17,5.44-15.42,12-20.39,20.54-2.79,4.79-5.13,9.81-8.53,14.22a93.93,93.93,0,0,1-11.07,11.58c-17.65,16.26-35.49,32.31-53.24,48.46l-26.8,24.39c-7.86,7.15-16.23,14.05-22.29,22.88-5.2,7.59-8.23,17-4.42,25.84,3.49,8.12,11.29,13,17.39,19,7.44,7.3,11,17.34,15.72,26.44s9.66,17.79,15.06,26.34a347.9,347.9,0,0,0,36.6,48.07,341.87,341.87,0,0,0,44.46,41c15.18,11.67,35,22.86,54.5,15.1A30.73,30.73,0,0,0,813,714.66c3.5-3.71,6.6-7.36,11.55-9.13,9.83-3.52,20.32-.67,30.1,1.47a69.84,69.84,0,0,0,16.34,2c1.92,0,1.93-3,0-3-11,.22-21.29-4.09-32.12-5-9.26-.77-18.34,1.17-24.89,8.09-3.42,3.61-6.48,7.06-11,9.3a32.63,32.63,0,0,1-13,3.19c-10,.46-19.52-3.09-28-8.14-8.79-5.2-16.8-11.77-24.58-18.35q-11.35-9.61-21.84-20.18a343.61,343.61,0,0,1-38-45.57q-8.43-12.07-15.79-24.84c-5-8.67-9.41-17.6-13.83-26.57a55.27,55.27,0,0,0-8.18-12.78,118.42,118.42,0,0,0-9.37-8.68c-3.25-2.88-6.47-5.94-8.59-9.79a19,19,0,0,1-1.94-13c2-9.59,9.31-17.48,16.19-24,8.42-8,17.17-15.66,25.75-23.47l52.53-47.8c7.88-7.18,16.46-14.05,23.17-22.37,6.47-8,9.77-18,17-25.43,6.79-7,15.23-12,23.63-16.77,9.21-5.22,18.59-10.65,28.9-13.39a44.09,44.09,0,0,1,15.42-1.41c1.92.18,1.91-2.82,0-3Z" transform="translate(-616.39 -354.71)"/><path d="M871.35,708.69c2.41-.8,2.5-3.57,1.42-5.52-1.23-2.2-3.68-3.83-5.89-4.91a47,47,0,0,0-8.16-2.85q-5-1.38-10-2.51t-9.86-2c-1.74-.3-3.47-.59-5.21-.85a24.31,24.31,0,0,1-4.57-.81c-.77-.27-2.3-1.22-1.78-2.29.23-.48,1-.64,1.47-.79a27.08,27.08,0,0,1,2.68-.71,42,42,0,0,1,10-.68,37.11,37.11,0,0,1,9.69,1.11c3.09,1,5.94,2.77,8.77,4.29l9.51,5.09c2.89,1.55,5.74,3.25,8.76,4.53,2.1.89,6.21,2.58,7.7-.11,1.36-2.47-1.38-5.23-2.9-6.85a63.77,63.77,0,0,0-6.88-6.05c-2.55-2-5.1-4-7.72-6-5.74-4.24-11.87-7.93-18.72-10.07a50.58,50.58,0,0,0-21.24-1.9l.39,2.95c5.11-.9,10.21-1.8,15.34-2.51s10.34-1.46,15.48-1.15c9.16.55,15.62,7.39,22.68,12.4,1.65,1.17,3.56,2.43,5.69,2.17a3.94,3.94,0,0,0,3.43-3.71c.29-3.76-3.16-7.33-5.77-9.59a47.79,47.79,0,0,0-10.52-6.53A123.73,123.73,0,0,0,862,657.13a49,49,0,0,0-16.68-2.54c-5.88,0-11.74.67-17.62.75l.76,2.8a56.48,56.48,0,0,1,38.06-4.43,56.41,56.41,0,0,1,6.23,1.86c2,.73,4.07,2,6.23,2.26,1.86.21,4-.65,4.55-2.58.64-2.11-.72-4-2-5.53a42.23,42.23,0,0,0-9.64-8.23A50.92,50.92,0,0,0,849,633.75a49.33,49.33,0,0,0-13.72.73c-4.27.84-8.68,2.24-11.29,5.95-1.12,1.58,1.48,3.08,2.59,1.51,2.06-2.93,6-3.86,9.3-4.53a45.77,45.77,0,0,1,11-.8,47.94,47.94,0,0,1,21.22,6,44.07,44.07,0,0,1,9.15,6.79c.68.66,1.33,1.35,2,2.06s1.64,1.72,1.57,2.6c-.14,1.89-4-.19-4.8-.52a58.37,58.37,0,0,0-23.13-4.36,59.26,59.26,0,0,0-25.82,6.32,1.51,1.51,0,0,0,.76,2.79c9.58-.14,19.4-1.89,28.86.32a68,68,0,0,1,13,4.89A86.68,86.68,0,0,1,880.14,669c3,1.92,6.42,4.57,7.9,7.91.63,1.43.62,3.34-1.47,2.64-1.82-.62-3.49-2.15-5-3.3-6.51-5-12.74-10.36-21.24-11.09-5.3-.45-10.76.37-16,1.08-5.45.73-10.87,1.68-16.29,2.63-1.65.29-1.29,3.16.4,3A48.34,48.34,0,0,1,846.71,673a54.3,54.3,0,0,1,16.53,7.81,159.6,159.6,0,0,1,14.14,10.85c1.1,1,2.18,1.93,3.19,3,.5.52,1,1.06,1.45,1.61s.71,1.15,1.1,1.65c.17.21-.09.51.3.22-.17.12-.7-.06-.9-.09a14,14,0,0,1-1.93-.51,30.1,30.1,0,0,1-4.5-2.09q-8.75-4.66-17.46-9.36a31.19,31.19,0,0,0-8.41-3.52,52.06,52.06,0,0,0-9-.78,47.3,47.3,0,0,0-9.44.57c-2.39.41-6.26.92-7.27,3.52-.91,2.33.59,4.81,2.69,5.84a12.13,12.13,0,0,0,3.75,1c1.66.24,3.32.49,5,.76a206.64,206.64,0,0,1,21.29,4.67,41.45,41.45,0,0,1,8.83,3.08,12.77,12.77,0,0,1,3.32,2.47,3.59,3.59,0,0,1,1,1.45c0,.12.06.29.1.42.12.37-.15.34.1.26-1.82.6-1,3.5.8,2.89Z" transform="translate(-616.39 -354.71)"/><path d="M823.54,640.18c-3.48.9-6,3.46-8.58,5.86l-9.24,8.74-9.24,8.75L792,667.82a31.08,31.08,0,0,1-4.22,3.63,6.64,6.64,0,0,1-4.73,1.32,3.56,3.56,0,0,1-3.12-2.66c-.38-1.89-3.27-1.09-2.89.79.64,3.15,3.86,5,6.9,4.94,3.73,0,6.75-2.66,9.31-5.07q10.14-9.57,20.26-19.18c1.81-1.71,3.59-3.44,5.42-5.13a13.21,13.21,0,0,1,5.46-3.39c1.87-.48,1.08-3.37-.8-2.89Z" transform="translate(-616.39 -354.71)"/><path d="M781,670.45a462.93,462.93,0,0,1-42.29-53q-9.57-14-18.1-28.67c-5.63-9.68-10.79-19.61-15.86-29.59-5.53-10.9-11.43-21.8-20.06-30.61-1.35-1.39-3.47.74-2.12,2.12,7.63,7.79,13.06,17.31,18,26.93,5.11,9.92,10.1,19.88,15.63,29.57A468,468,0,0,0,754,643.36q11.82,15.1,24.87,29.21c1.31,1.42,3.43-.71,2.12-2.12Z" transform="translate(-616.39 -354.71)"/><path d="M695.65,538.17c8.23-8.42,16.47-16.86,25.34-24.61a237.09,237.09,0,0,1,27-20c9.21-6,18.59-11.74,27.56-18.1a171,171,0,0,0,25.76-22.29c2.28-2.42,4.52-4.89,6.73-7.37a59.31,59.31,0,0,0,5.9-7.25c3.43-5.33,4.42-11.7,5.3-17.86a1.55,1.55,0,0,0-1-1.84,1.49,1.49,0,0,0-1.84,1c-.78,5.45-1.56,11.15-4.32,16a38.79,38.79,0,0,1-5,6.55c-1.95,2.19-3.9,4.36-5.88,6.51a170.12,170.12,0,0,1-25.33,22.64C758,484.45,738.52,494.8,721.68,509c-9.95,8.41-19.06,17.73-28.15,27-1.35,1.39.77,3.51,2.12,2.13Z" transform="translate(-616.39 -354.71)"/><path d="M818,643.61c7.63-9.2,11.24-20.75,13.7-32.26a267.3,267.3,0,0,0,5.4-40.12c.78-13.22.92-26.74-1-39.87a74.69,74.69,0,0,0-5.06-18.55,86.16,86.16,0,0,0-9.41-16.16c-4.23-5.92-8.83-11.57-13.33-17.29l-14.73-18.77c-1.2-1.52-3.31.62-2.13,2.12,8.24,10.48,16.62,20.86,24.67,31.49a110.69,110.69,0,0,1,10.15,15.49,66.42,66.42,0,0,1,6.08,17.53c2.56,12.54,2.51,25.68,2,38.42a263.28,263.28,0,0,1-4.51,39.69c-2.42,12.67-5.56,26-14,36.16-1.22,1.48.89,3.61,2.13,2.12Z" transform="translate(-616.39 -354.71)"/></svg>