<svg id="Layer_1" data-name="Layer 1" xmlns="http://www.w3.org/2000/svg" viewBox="0 0 455.71 529.41"><title>rubbingNeck</title><path d="M1069.74,679.66c-11-16.1-13.73-36-14.45-55.06a241.28,241.28,0,0,1,5.88-62.94,244.55,244.55,0,0,1,10.51-34.22,3,3,0,0,0-2.1-3.69,3.07,3.07,0,0,0-3.69,2.1,248.41,248.41,0,0,0-15.35,63.21,245.23,245.23,0,0,0-1.36,32.29,176.16,176.16,0,0,0,3.07,30.48c2.19,10.91,6,21.62,12.31,30.86a3.07,3.07,0,0,0,4.1,1.08,3,3,0,0,0,1.08-4.11Z" transform="translate(-733.26 -274.1)"/><path d="M871.38,423.48V368.86c0-3.86-6-3.87-6,0v54.62c0,3.86,6,3.87,6,0Z" transform="translate(-733.26 -274.1)"/><path d="M866.26,277l.5,55.34.12,13.21a86.26,86.26,0,0,0,.66,12.76c1.35,8.43,7.24,14.19,13.42,19.56,12,10.41,25.61,18.68,39,27.1,6.78,4.25,13.53,8.56,20,13.24a245.35,245.35,0,0,1,19,15.61c6.44,5.72,12.76,11.58,19.37,17.11s13.19,10.48,20.12,15.25a379.11,379.11,0,0,0,43.48,25.5c14.91,7.58,30.43,14.69,47,17.79,15,2.82,32.55,3.14,44.55-7.77,10.31-9.36,13.49-23.6,19-35.83a97.51,97.51,0,0,1,26.68-35,91.33,91.33,0,0,1,8.37-6.15c3.21-2.11.21-7.31-3-5.18a103.28,103.28,0,0,0-30.72,31.23,114.56,114.56,0,0,0-9.52,19.34c-2.44,6.18-4.68,12.49-8,18.28s-7.56,10.48-13.51,13.35c-6.5,3.13-14,3.65-21.13,3.27-16.37-.88-32.09-6.76-46.79-13.69a400.3,400.3,0,0,1-43.48-23.84,296.16,296.16,0,0,1-38.94-29.7c-6.28-5.61-12.48-11.31-19-16.67a228.18,228.18,0,0,0-19.46-14.29c-13-8.61-26.67-16.33-39.27-25.59-6-4.44-12.3-9.24-17.18-15-5.29-6.22-4.67-14.31-4.74-22l-.49-54.08L872.26,277c0-3.86-6-3.87-6,0Z" transform="translate(-733.26 -274.1)"/><path d="M859.91,340.51l-24.23,1.21-12.11.61c-3.33.17-6.85.24-9.63,2.33-2.42,1.82-3.79,4.54-5.74,6.79a49,49,0,0,1-7.31,6.33,36.85,36.85,0,0,0-6.95,6.6,31.47,31.47,0,0,0-4.45,8.22c-5,13.52-1.8,28.06-3,42a45.43,45.43,0,0,1-.85,5.94,4.53,4.53,0,0,1-.64,1.86,5.44,5.44,0,0,1-2.22,1.23c-3,1.28-5.15,3.65-7.14,6.12-4.79,6-9.6,11.95-14.22,18a51.56,51.56,0,0,0-6.26,10.06,45.64,45.64,0,0,0-3.34,11.42c-1.26,7.89-.93,15.88-.52,23.82l1.5-1.5c-5.19.51-8.2,4.93-10.14,9.36-2.75,6.28-5,12.83-7.47,19.23-1.12,2.91-2.54,6-1.65,9.22.82,3,3.33,5.44,5.21,7.79q6.36,7.95,12.93,15.75,13.11,15.6,27,30.54c9.29,10,18.71,20.05,28.68,29.4a14.51,14.51,0,0,0,8.81,4.16c3.78.41,7.61.38,11.4.69A193.3,193.3,0,0,1,851,621.13c1.89.39,2.69-2.5.8-2.89q-9.66-2-19.46-3-5.07-.53-10.16-.8c-2.93-.16-6.11.06-8.9-1s-5-3.71-7.06-5.78-4.45-4.41-6.65-6.64q-6.9-7-13.63-14.08-13.28-14.06-25.9-28.71-6.3-7.32-12.44-14.79-3.07-3.74-6.1-7.51-1.47-1.83-2.93-3.67a10.11,10.11,0,0,1-2.21-3.83c-.42-1.83.29-3.69.92-5.38s1.32-3.41,2-5.11l4.16-10.79c1.66-4.29,3.79-12,9.37-12.51a1.51,1.51,0,0,0,1.5-1.5c-.36-7-.69-14.05.13-21a42.72,42.72,0,0,1,7-19.14c4.19-6.22,9.17-12,13.82-17.84,2-2.51,3.9-5.35,6.44-7.35,2.38-1.86,5.53-2,6.59-5.24,1.15-3.45,1.31-7.49,1.45-11.09s.06-7.51,0-11.26c-.19-6.7-.39-13.47.88-20.09,1.18-6.12,3.56-12.09,8.08-16.5a92.41,92.41,0,0,1,7.3-5.95,32.85,32.85,0,0,0,6.33-6.57,19.54,19.54,0,0,1,3.21-3.81,9.15,9.15,0,0,1,5.16-1.78c4.27-.38,8.59-.45,12.87-.67l26.43-1.32c1.92-.09,1.94-3.09,0-3Z" transform="translate(-733.26 -274.1)"/><path d="M859.79,344.13l-.42,19.56c0,1.93,3,1.93,3,0l.42-19.56c0-1.94-3-1.93-3,0Z" transform="translate(-733.26 -274.1)"/><path d="M860.55,362.7q-13.53,2.3-26.9,5.42c-1.88.44-1.08,3.33.8,2.89q13.37-3.12,26.9-5.42c1.9-.32,1.09-3.21-.8-2.89Z" transform="translate(-733.26 -274.1)"/><path d="M832.92,369.59c0,6.28-.09,12.57,0,18.86a73.52,73.52,0,0,0,2.08,18,1.5,1.5,0,0,0,2.89-.8,70.89,70.89,0,0,1-2-17.72c-.07-6.13,0-12.26,0-18.38a1.5,1.5,0,0,0-3,0Z" transform="translate(-733.26 -274.1)"/><path d="M836.3,407.81c3.35.93,5.42,3.93,7.39,6.59a38.83,38.83,0,0,0,3.45,4.23,36.31,36.31,0,0,0,5.14,4.19c6,4.24,12.4,7.85,18.46,12,1.6,1.08,3.11-1.51,1.52-2.6-6.19-4.2-12.73-7.86-18.82-12.22a28.87,28.87,0,0,1-5-4.36c-1.16-1.32-2.16-2.77-3.22-4.16-2.16-2.85-4.56-5.55-8.13-6.54a1.5,1.5,0,0,0-.79,2.89Z" transform="translate(-733.26 -274.1)"/><path d="M870,434.73l61.48,56.91,30.74,28.46c4.56,4.22,9.24,8.42,12.52,13.76a50.88,50.88,0,0,1,6.11,16c2.65,12.12,2.76,24.77,3.76,37.09q1.67,20.7,3.93,41.33c3,27.41,6.63,54.74,10.64,82s8.4,54.74,12.82,82.08l1.62,10.07c.31,1.9,3.2,1.09,2.9-.8-4.47-27.57-8.93-55.15-13.06-82.78s-7.93-55.26-11.07-83q-2.35-20.8-4.18-41.67c-1.09-12.63-1.47-25.41-3.21-38-1.6-11.54-5.19-22.49-13.29-31.13-4.58-4.9-9.73-9.3-14.65-13.85L941.71,497l-62-57.41-7.55-7c-1.42-1.31-3.54.8-2.12,2.12Z" transform="translate(-733.26 -274.1)"/><path d="M850.32,619.75c4.3,4,8.82,7.86,12.92,12.06a12.53,12.53,0,0,1,3.53,7c.5,2.88.69,5.85.94,8.77,1.06,12,1.42,24.09,1.37,36.16-.09,24.31-1.63,48.62-2.8,72.9l-2,41.25c-.09,1.93,2.91,1.93,3,0q1.8-37.23,3.6-74.46c1.15-24.61,2-49.31,0-73.89-.27-3.28-.55-6.58-1-9.84a16.22,16.22,0,0,0-3-8.26,59,59,0,0,0-6.75-6.66l-7.69-7.14c-1.41-1.32-3.54.8-2.12,2.12Z" transform="translate(-733.26 -274.1)"/><path d="M804.34,560.56A333.4,333.4,0,0,0,766.65,528c-3.15-2.34-6.45-5-7.7-8.86-.45-1.37-2.62-.79-2.17.6a18,18,0,0,0,6.08,8.15c3,2.52,6.33,4.77,9.46,7.2q10.27,8,19.88,16.84,5.38,5,10.55,10.19a1.12,1.12,0,0,0,1.59-1.59Z" transform="translate(-733.26 -274.1)"/><path d="M829.48,369.19c-11.75-1.52-24.35-2.89-35.28,2.7-1.29.66-.16,2.61,1.13,1.95,10.52-5.39,22.87-3.86,34.15-2.4,1.43.18,1.42-2.07,0-2.25Z" transform="translate(-733.26 -274.1)"/><path d="M827.68,402c-5.45,6.21-11,12.28-18.16,16.54-6.77,4-14.23,6.64-21.56,9.42-4.15,1.58-8.27,3.22-12.27,5.17-1.3.63-.16,2.57,1.14,1.94,14.28-6.94,30.4-10.07,42.49-21a126.73,126.73,0,0,0,10-10.5c1-1.08-.64-2.68-1.6-1.59Z" transform="translate(-733.26 -274.1)"/></svg>