<?xml version="1.0" encoding="utf-8"?>
<!-- Generator: Adobe Illustrator 23.0.5, SVG Export Plug-In . SVG Version: 6.00 Build 0)  -->
<svg version="1.1" xmlns="http://www.w3.org/2000/svg" xmlns:xlink="http://www.w3.org/1999/xlink" x="0px" y="0px"
	 viewBox="0 0 1920 1080" style="enable-background:new 0 0 1920 1080;" xml:space="preserve">
<style type="text/css">
	.st0{stroke:#000000;stroke-width:5;stroke-miterlimit:10;}
	.st1{fill:#999999;stroke:#666666;stroke-width:5;stroke-miterlimit:10;}
	.st2{fill:#666666;stroke:#000000;stroke-width:5;stroke-miterlimit:10;}
	.st3{fill:#4D4D4D;stroke:#000000;stroke-width:5;stroke-miterlimit:10;}
	.st4{fill:none;stroke:#000000;stroke-width:5;stroke-miterlimit:10;}
	.st5{fill:#FFFFFF;stroke:#000000;stroke-width:5;stroke-miterlimit:10;}
	.st6{fill:none;stroke:#000000;stroke-width:9;stroke-miterlimit:10;}
	.st7{fill:#666666;stroke:#666666;stroke-width:9;stroke-miterlimit:10;}
</style>
<g id="Layer_2">
</g>
<g id="Layer_1">
	<g id="Tv">
		<path class="st0" d="M1233.5,890.5c-179-1.67-358-3.33-537-5c-10-115-20-230-30-345c198.67-2.33,397.33-4.67,596-7
			C1252.83,652.5,1243.17,771.5,1233.5,890.5z"/>
		<path class="st1" d="M1194.5,867.5c-158.67,0-317.33,0-476,0c-5.33-103.33-10.67-206.67-16-310c169,2,338,4,507,6
			C1204.5,664.83,1199.5,766.17,1194.5,867.5z"/>
		<path class="st2" d="M1040.5,810.5c-37.44,7.2-83.79,13.04-137,13c-52.77-0.04-98.78-5.85-136-13c-5.65-27.56-10.46-59.08-13-94
			c-2.87-39.44-2.24-75.13,0-106c38.18-5.85,81.82-10.2,130-11c61.36-1.02,115.97,3.95,162,11c1.58,31.25,2.1,65.02,1,101
			C1046.42,746.81,1043.89,779.91,1040.5,810.5z"/>
		<path class="st2" d="M1175.5,840.5c-34-1.33-68-2.67-102-4c2-85,4-170,6-255c35.67,0.33,71.33,0.67,107,1
			C1182.83,668.5,1179.17,754.5,1175.5,840.5z"/>
		<polygon class="st3" points="666.5,540.5 628.5,533.5 623.5,512.5 1297.5,512.5 1297.5,529.5 1262.5,533.5 		"/>
		<polygon class="st3" points="1233.5,890.5 1271.5,918.5 1262.5,924.5 666.5,919.5 653.5,912.5 696.5,885.5 		"/>
		<line class="st4" x1="1271.5" y1="918.5" x2="653.5" y2="912.5"/>
		<circle class="st3" cx="1129.5" cy="649.5" r="32"/>
		<circle class="st4" cx="1129.5" cy="745.5" r="32"/>
		
			<ellipse transform="matrix(0.8518 -0.5239 0.5239 0.8518 -173.2668 688.1476)" class="st5" cx="1129.55" cy="650.29" rx="22.58" ry="8.18"/>
		
			<ellipse transform="matrix(0.6661 -0.7458 0.7458 0.6661 -178.9099 1091.3381)" class="st5" cx="1129.5" cy="745.5" rx="6" ry="20"/>
		<path class="st4" d="M1128.62,723.77c-0.13-1.85-0.09-3.71,0.12-5.55"/>
		<path class="st4" d="M1144.62,729.77c-0.13-1.85-0.09-3.71,0.12-5.55"/>
		<path class="st4" d="M1152.62,741.77c-0.13-1.85-0.09-3.71,0.12-5.55"/>
		<path class="st4" d="M1152.62,754.77c-0.13-1.85-0.09-3.71,0.12-5.55"/>
		<path class="st4" d="M1144.62,769.77c-0.13-1.85-0.09-3.71,0.12-5.55"/>
		<path class="st4" d="M1128.62,771.77c-0.13-1.85-0.09-3.71,0.12-5.55"/>
		<path class="st4" d="M1115.62,768.77c-0.13-1.85-0.09-3.71,0.12-5.55"/>
		<path class="st4" d="M1104.62,754.77c-0.13-1.85-0.09-3.71,0.12-5.55"/>
		<path class="st4" d="M1104.62,742.77c-0.13-1.85-0.09-3.71,0.12-5.55"/>
		<path class="st4" d="M1112.62,729.77c-0.13-1.85-0.09-3.71,0.12-5.55"/>
		<path class="st4" d="M1129.62,676.77c-0.13-1.85-0.09-3.71,0.12-5.55"/>
		<path class="st4" d="M1151.62,659.77c-0.13-1.85-0.09-3.71,0.12-5.55"/>
		<path class="st4" d="M1154.62,641.77c-0.13-1.85-0.09-3.71,0.12-5.55"/>
		<path class="st4" d="M1144.62,630.77c-0.13-1.85-0.09-3.71,0.12-5.55"/>
		<path class="st4" d="M1115.62,629.77c-0.13-1.85-0.09-3.71,0.12-5.55"/>
		<path class="st4" d="M1106.62,641.77c-0.13-1.85-0.09-3.71,0.12-5.55"/>
		<path class="st4" d="M1104.62,652.77c-0.13-1.85-0.09-3.71,0.12-5.55"/>
		<path class="st4" d="M1109.62,670.77c-0.13-1.85-0.09-3.71,0.12-5.55"/>
		<path class="st4" d="M1128.62,627.77c-0.13-1.85-0.09-3.71,0.12-5.55"/>
		<path class="st4" d="M1144.62,670.77c-0.13-1.85-0.09-3.71,0.12-5.55"/>
		<line class="st6" x1="1048.5" y1="512.5" x2="1192.5" y2="228.5"/>
		<line class="st6" x1="900.5" y1="512.5" x2="752.5" y2="226.5"/>
		<circle class="st7" cx="735.5" cy="200.5" r="33"/>
		<circle class="st7" cx="1205" cy="203" r="35.5"/>
	</g>
</g>
</svg>
