<svg id="Layer_1" data-name="Layer 1" xmlns="http://www.w3.org/2000/svg" viewBox="0 0 1722.36 144.98"><defs><style>.cls-1{fill:#b2b4b6;}.cls-2{fill:#b1b3b6;}</style></defs><title>wave</title><path class="cls-1" d="M.48,336.14C13.7,317,28.3,296,50.89,287.26c20.94-8.14,46-4.47,63.6,9.55,16,12.78,29.19,35.74,52.69,33.33,13-1.34,24.4-9.33,35-16.35,11.95-7.89,23.8-16,35.87-23.64,5.21-3.32,10.71-6.44,16.78-7.86A32.68,32.68,0,0,1,273,283.47c11.69,4,20.81,12.72,29.24,21.42S319,322.6,330,327.83s23.69,6.46,35.74,4.86c25.51-3.38,46.92-19.18,65.76-35.68,8.77-7.68,18.2-16.68,30.36-18,11.63-1.24,22.28,5.26,30.16,13.24,8.65,8.77,14.24,19.88,21,30a81.58,81.58,0,0,0,11.57,14.22c4.12,3.88,9.48,7.37,15.34,5.4,4.91-1.66,8.29-6.25,10.95-10.43,3.16-5,6-10.1,9.24-15a224.16,224.16,0,0,1,24.1-30.32q6.59-6.94,13.73-13.31c.85-.76-.8-4.28,0-5A227,227,0,0,0,571.37,296q-5.94,7.5-11.23,15.48c-3.41,5.14-6.32,10.57-9.7,15.71-2.64,4-6,8.38-10.85,9.83-5.94,1.78-11.25-1.92-15.34-5.86-8.92-8.57-14.7-19.68-21.38-29.95-6.36-9.78-14.16-19.22-25-24.26-11.25-5.27-22.71-3-32.71,3.84-10.26,7-19,16.18-28.87,23.69-10.22,7.75-21.28,14.59-33.39,19a76.45,76.45,0,0,1-36.26,4.26c-12.19-1.69-22.78-7.2-31.9-15.35-16.65-14.88-34.35-41.46-60.4-35-6,1.51-11.51,4.68-16.72,8-6,3.87-12,7.88-18,11.83-11.43,7.55-22.69,16-34.92,22.2-10.81,5.49-22.91,8.1-34.37,3-9.64-4.32-17-12.39-24.29-19.78-7.84-7.95-16-15.2-26.4-19.55a66.79,66.79,0,0,0-33-4.69c-24.27,2.7-41.94,19.52-56,38.23-3.55,4.75-6.94,9.63-10.3,14.51-.79,1.15.76,3.89,0,5Z" transform="translate(562.34 -244.19)"/><path class="cls-2" d="M.24,365.47A244.85,244.85,0,0,1,22.16,338c8-8.64,16.89-16.93,27.13-22.9,20.05-11.67,46.17-11,65.92,1,17.79,10.84,29.16,34.68,51.31,37.63,13,1.74,25.31-5,35.91-11.81,12.4-7.93,24.61-16.2,36.89-24.31,10.64-7,21.73-14.31,35.09-11.92,12.42,2.23,22.69,10.68,31.35,19.37s16.89,18.47,27.78,24.66,23.49,8.11,35.77,7c26.19-2.29,48.36-18,67.63-34.71,8.86-7.68,18-17,30.06-19.07,11.76-2.07,22.81,4,31,12,8.82,8.56,14.51,19.56,21.17,29.75a89,89,0,0,0,11.37,14.49c3.93,3.9,9,7.94,14.91,6.8,5.09-1,8.74-5.33,11.5-9.4,3.23-4.77,5.91-9.93,8.8-14.9,5.05-8.71,10.36-17.24,17-24.83A143.56,143.56,0,0,1,595,304.68c.84-.76-.81-4.28,0-5a127.35,127.35,0,0,0-21.21,23.86c-6.08,9.07-10.75,19-16.86,28-2.83,4.18-6.6,8.63-11.88,9.46-6,.93-11-3.26-14.87-7.21-8.74-8.83-14.43-20-21.24-30.29-6.46-9.74-14.65-19.11-25.71-23.64-11.55-4.72-22.85-1.41-32.6,5.65-10.27,7.44-19.19,16.62-29.41,24.16-10.54,7.77-22,14.56-34.58,18.53-11.81,3.73-24.63,5-36.83,2.5-12.47-2.54-22.63-9.31-31.66-18s-17-18.58-27.65-25.36c-10.86-6.91-23.19-9.42-35.29-4.14-6,2.63-11.44,6.43-16.9,10L219.9,325.41c-11.26,7.43-22.5,16.15-35.26,20.86-11.29,4.17-22.78,3.28-32.91-3.3-9.08-5.91-16.07-14.42-23.84-21.84-8.3-7.93-17.77-14-28.9-17a66.61,66.61,0,0,0-34.19-.39C41.94,309.58,24.32,329.1,10.22,347Q5,353.55.24,360.47c-.79,1.14.77,3.89,0,5Z" transform="translate(562.34 -244.19)"/><path class="cls-1" d="M562.28,312.47c13.22-19.19,27.82-40.11,50.41-48.88,20.94-8.14,46-4.47,63.6,9.55,16.05,12.78,29.19,35.74,52.69,33.33,13-1.34,24.4-9.33,35-16.35,12-7.89,23.8-15.95,35.87-23.64,5.21-3.32,10.71-6.44,16.78-7.86a32.68,32.68,0,0,1,18.11,1.18c11.69,4,20.81,12.72,29.24,21.42s16.74,17.71,27.78,22.94,23.69,6.46,35.74,4.86c25.51-3.38,46.92-19.18,65.76-35.68,8.77-7.68,18.2-16.68,30.36-18,11.63-1.25,22.28,5.25,30.16,13.23,8.65,8.77,14.24,19.89,21,30a81.58,81.58,0,0,0,11.57,14.22c4.12,3.88,9.48,7.37,15.34,5.4,4.91-1.66,8.29-6.25,11-10.43,3.16-5,6-10.1,9.24-15A224.16,224.16,0,0,1,1146,262.5q6.59-6.94,13.73-13.31c.85-.76-.8-4.28,0-5a227,227,0,0,0-26.6,28.15q-5.94,7.5-11.23,15.48c-3.41,5.14-6.32,10.57-9.7,15.71-2.64,4-6,8.38-10.85,9.83-5.94,1.78-11.25-1.92-15.34-5.86-8.92-8.57-14.7-19.68-21.38-29.95-6.36-9.78-14.16-19.22-25-24.26-11.25-5.27-22.7-3-32.71,3.84-10.26,7-19,16.18-28.87,23.69-10.22,7.75-21.28,14.6-33.39,19a76.45,76.45,0,0,1-36.26,4.26c-12.19-1.69-22.78-7.2-31.9-15.35-16.65-14.88-34.35-41.46-60.4-35-6,1.51-11.51,4.68-16.72,8-6,3.87-12,7.88-18,11.83-11.43,7.55-22.68,16-34.92,22.2-10.81,5.49-22.91,8.1-34.37,3-9.64-4.32-17-12.39-24.29-19.78-7.84-8-16-15.2-26.4-19.55a66.79,66.79,0,0,0-33-4.69c-24.26,2.7-41.94,19.52-56,38.23-3.55,4.75-6.93,9.63-10.3,14.51-.79,1.15.76,3.89,0,5Z" transform="translate(562.34 -244.19)"/><path class="cls-2" d="M562,341.8A244.85,244.85,0,0,1,584,314.31c8-8.64,16.89-16.93,27.13-22.9,20.06-11.67,46.17-11,65.92,1,17.79,10.84,29.16,34.68,51.31,37.63,13,1.74,25.31-5,35.91-11.81,12.41-7.93,24.61-16.2,36.89-24.31,10.64-7,21.73-14.31,35.09-11.92,12.42,2.23,22.69,10.68,31.35,19.37s16.89,18.47,27.78,24.66,23.49,8.11,35.77,7c26.19-2.29,48.36-18,67.63-34.71,8.86-7.68,18-17,30.06-19.07,11.76-2.07,22.81,4,31,12,8.82,8.56,14.51,19.56,21.17,29.75a89,89,0,0,0,11.37,14.49c3.93,3.9,9,7.94,14.92,6.8,5.08-1,8.73-5.33,11.49-9.4,3.23-4.77,5.91-9.93,8.8-14.9,5-8.71,10.36-17.24,17-24.83A143.56,143.56,0,0,1,1156.84,281c.84-.76-.81-4.28,0-5a127.35,127.35,0,0,0-21.21,23.86c-6.08,9.07-10.75,19-16.86,28-2.83,4.18-6.6,8.63-11.88,9.46-6,.93-11-3.26-14.87-7.21-8.74-8.83-14.43-20-21.24-30.29-6.46-9.74-14.65-19.11-25.71-23.64-11.55-4.72-22.85-1.41-32.6,5.65-10.27,7.44-19.19,16.62-29.41,24.16-10.54,7.77-22,14.56-34.58,18.53-11.81,3.74-24.63,5-36.83,2.5-12.47-2.54-22.63-9.31-31.66-18s-17-18.57-27.65-25.36c-10.86-6.91-23.19-9.42-35.28-4.14-6,2.63-11.45,6.43-16.91,10L781.7,301.74c-11.26,7.43-22.5,16.15-35.26,20.86-11.29,4.17-22.78,3.28-32.91-3.3-9.08-5.91-16.07-14.42-23.84-21.84-8.3-7.93-17.77-14-28.9-17A66.72,66.72,0,0,0,626.6,280c-22.86,5.88-40.48,25.4-54.58,43.25q-5.21,6.6-10,13.52c-.79,1.14.77,3.89,0,5Z" transform="translate(562.34 -244.19)"/><path class="cls-1" d="M-561.87,359.13c13.22-19.19,27.82-40.11,50.41-48.88,20.94-8.14,46-4.47,63.61,9.55,16,12.78,29.18,35.74,52.68,33.33,13.05-1.34,24.4-9.33,35.05-16.35,11.94-7.89,23.79-15.95,35.86-23.64,5.21-3.32,10.71-6.44,16.78-7.86a32.68,32.68,0,0,1,18.11,1.18c11.7,4,20.81,12.72,29.24,21.42s16.74,17.71,27.78,22.94,23.69,6.46,35.74,4.86c25.51-3.38,46.92-19.18,65.77-35.68,8.77-7.68,18.19-16.68,30.35-18,11.63-1.24,22.29,5.26,30.16,13.24,8.65,8.77,14.24,19.89,21,30a81.58,81.58,0,0,0,11.57,14.22c4.12,3.88,9.49,7.37,15.35,5.4,4.9-1.66,8.28-6.25,11-10.43,3.15-5,6-10.1,9.23-15a224.16,224.16,0,0,1,24.1-30.32q6.59-6.95,13.74-13.31c.84-.76-.81-4.28,0-5A226.31,226.31,0,0,0,9,319q-5.94,7.5-11.23,15.48c-3.4,5.14-6.32,10.57-9.69,15.71-2.65,4-6,8.38-10.86,9.83C-28.7,361.8-34,358.1-38.1,354.16c-8.92-8.57-14.7-19.68-21.38-30-6.36-9.78-14.16-19.22-25-24.26-11.26-5.27-22.71-3-32.72,3.84-10.26,7-19,16.18-28.86,23.69-10.23,7.75-21.29,14.59-33.4,19a76.44,76.44,0,0,1-36.26,4.26c-12.19-1.69-22.77-7.2-31.9-15.35-16.65-14.88-34.35-41.46-60.39-35-6.05,1.51-11.52,4.68-16.73,8-6,3.87-12,7.88-17.95,11.83-11.44,7.55-22.69,16-34.93,22.2-10.81,5.49-22.91,8.1-34.37,3-9.64-4.32-17-12.39-24.29-19.78-7.84-7.95-16-15.2-26.4-19.55a66.79,66.79,0,0,0-33-4.69c-24.26,2.7-41.94,19.52-55.95,38.23-3.56,4.75-6.94,9.63-10.31,14.51-.79,1.15.77,3.89,0,5Z" transform="translate(562.34 -244.19)"/><path class="cls-2" d="M-562.11,388.46A244.85,244.85,0,0,1-540.19,361c8-8.64,16.89-16.93,27.13-22.9,20.06-11.67,46.17-11,65.92,1,17.79,10.84,29.16,34.68,51.31,37.63,13.05,1.74,25.31-5,35.91-11.81,12.41-7.93,24.61-16.2,36.9-24.31,10.63-7,21.72-14.31,35.08-11.92,12.42,2.23,22.69,10.68,31.35,19.37s16.9,18.47,27.78,24.66,23.49,8.11,35.77,7c26.19-2.29,48.36-18,67.64-34.71,8.85-7.68,18-17,30.06-19.07,11.75-2.07,22.8,4,31,12,8.83,8.56,14.51,19.56,21.17,29.75a89,89,0,0,0,11.38,14.49c3.92,3.9,9,7.94,14.91,6.8,5.08-1,8.73-5.33,11.49-9.4,3.23-4.77,5.91-9.93,8.8-14.9,5.05-8.71,10.36-17.24,17-24.83a143.56,143.56,0,0,1,12.25-12.17c.85-.76-.81-4.28,0-5a127.35,127.35,0,0,0-21.21,23.86c-6.08,9.07-10.75,19-16.86,28-2.83,4.18-6.6,8.63-11.88,9.46-5.95.93-11-3.26-14.87-7.21-8.74-8.83-14.43-20-21.24-30.29-6.46-9.74-14.65-19.11-25.71-23.64-11.55-4.72-22.85-1.41-32.6,5.65-10.27,7.44-19.19,16.62-29.41,24.16-10.54,7.77-22,14.56-34.58,18.53-11.81,3.74-24.63,5-36.83,2.5-12.47-2.54-22.63-9.31-31.66-18s-17-18.57-27.65-25.36c-10.86-6.91-23.19-9.42-35.28-4.14-6,2.63-11.45,6.43-16.91,10l-18.45,12.18c-11.26,7.43-22.49,16.15-35.26,20.86-11.29,4.17-22.78,3.28-32.91-3.3-9.08-5.91-16.07-14.42-23.84-21.84-8.3-7.93-17.77-14-28.9-17a66.72,66.72,0,0,0-34.19-.39c-22.86,5.88-40.48,25.4-54.58,43.25q-5.21,6.6-10,13.52c-.79,1.14.77,3.89,0,5Z" transform="translate(562.34 -244.19)"/></svg>