<svg id="Layer_1" data-name="Layer 1" xmlns="http://www.w3.org/2000/svg" viewBox="0 0 345.39 994.19"><defs><style>.cls-1{fill:none;}.cls-1,.cls-2{stroke:#000;stroke-miterlimit:10;}.cls-2{fill:#fff;}</style></defs><title>Balloon</title><path class="cls-1" d="M942.5,460.5c4.47,44.87,13.81,78.91,21.59,101.84,6.36,18.75,9.12,23.58,11.71,37.76C981.91,633.53,969.26,668,950,696c-5.93,8.62-16.55,17.71-25.52,12.33,2-12.85,16.76-18.76,29.28-22.26,5.32-1.49,11.06-3,16.26-1.09,8.63,3.1,11.68,13.67,12.51,22.8a127.53,127.53,0,0,1-30.19,93.72c-6.93,8-14.92,15.21-20.4,24.26-6.91,11.41-9.32,24.92-11.33,38.11-8.68,56.86-9.33,86.1,6.86,119.09,6,12.2,19.48,34.88,48.68,54.76" transform="translate(-782.67 -43.98)"/><path class="cls-2" d="M941.5,459.5c-8.28-2-13.57-11.21-12-15,.11-.26.78-1.78,2-2,.62-.11,1.22.13,4,2v-14s-42-26-67-51-80-71-85-149,48-140,48-140,62-47,102-46,99-3,147,47,61,143,31,204-129,137-142,139-14,2-14,2a14.26,14.26,0,0,1,2,17C953.8,459.61,946.41,460.66,941.5,459.5Z" transform="translate(-782.67 -43.98)"/></svg>