<svg xmlns="http://www.w3.org/2000/svg" xmlns:xlink="http://www.w3.org/1999/xlink" viewBox="0 0 664.48 1062.67"><defs><style>.cls-1,.cls-2,.cls-3,.cls-4{stroke:#000;stroke-miterlimit:10;stroke-width:2px;}.cls-2{fill:#fff;}.cls-3{fill:url(#linear-gradient);}.cls-4{fill:url(#linear-gradient-2);}</style><linearGradient id="linear-gradient" x1="415.72" y1="53.39" x2="511.83" y2="53.39" gradientTransform="translate(917.92 166.03) rotate(-177.87)" gradientUnits="userSpaceOnUse"><stop offset="0.27" stop-color="#fff"/><stop offset="0.4" stop-color="#ababab"/><stop offset="0.52" stop-color="#626262"/><stop offset="0.62" stop-color="#2d2d2d"/><stop offset="0.7" stop-color="#0c0c0c"/><stop offset="0.74"/></linearGradient><linearGradient id="linear-gradient-2" x1="615" y1="146" x2="615" y2="146" gradientUnits="userSpaceOnUse"><stop offset="0.27" stop-color="#fff"/><stop offset="0.46" stop-color="#ababab"/><stop offset="0.64" stop-color="#626262"/><stop offset="0.78" stop-color="#2d2d2d"/><stop offset="0.89" stop-color="#0c0c0c"/><stop offset="0.95"/></linearGradient></defs><title>Character</title><g id="Layer_2" data-name="Layer 2"><g id="Character"><path class="cls-1" d="M659,1080,357,927V796H494L455,522s55,61,66,18S418,293,418,293l-4-143S562,71,483,49,70-5,51,49,37,802,37,802L36,943,0,1080Z" transform="translate(1.3 -18.33)"/><path class="cls-2" d="M475,660a108.07,108.07,0,0,0-31,19c-24.55,21.55-32.4,48.55-35,60-1.24-14.36-2.15-48.25,17-84a149.09,149.09,0,0,1,41-48Q471,633.5,475,660Z" transform="translate(1.3 -18.33)"/><path class="cls-3" d="M471,48c9,2.21,16,4,24,8s9.37,6.25,10,8c1.51,4.17-.31,8.74-2,13a35.15,35.15,0,0,1-5,9c-12.72,16.7-37,32-37,32-36.74,23.15-38.52,29.38-44,27-13.31-5.78-13.09-47.08,4-75,2.94-4.8,15.88-25.95,33-26C454.66,44,460.11,45.33,471,48Z" transform="translate(1.3 -18.33)"/><path class="cls-4" d="M615,146" transform="translate(1.3 -18.33)"/></g></g></svg>