<svg xmlns="http://www.w3.org/2000/svg" viewBox="0 0 2089.95 381.16"><defs><style>.cls-1,.cls-2{fill:#fff;}.cls-2{stroke:#000;stroke-miterlimit:10;}</style></defs><title>filmStrip</title><g id="Layer_2" data-name="Layer 2"><path d="M1825,631l20-197,72,9,1-9-20-4V420l19,4V412s-262-27-409,3-292,54-335,53-90-6-90-6v11h17l-2,10h-13l-2,14,85,3,1,199-84-4-2,9h4l-1,11h-3v13s135,13,278-15,262-49,262-49l83-7h53s7.12-1.52,36.15,1.94a4.71,4.71,0,0,1,3.26-1.18h23.77a5.34,5.34,0,0,1,1.94-.53c15.58-1.2,31.31-3.07,46.91-3.66,8.12-.31,16.3-.09,24.43-.23,7.56-.13,15,1,22.55.86a5.63,5.63,0,0,1,1.26.11L1920,646Z" transform="translate(0.95 -397.84)"/><polygon class="cls-1" points="1130.94 79.16 1110.94 77.16 1110.94 88.16 1130.94 88.16 1130.94 79.16"/><rect class="cls-1" x="1141.95" y="79.16" width="22" height="11"/><rect class="cls-1" x="1172.95" y="79.16" width="23" height="11"/><polygon class="cls-1" points="1226.94 77.16 1204.94 77.16 1204.94 90.16 1226.94 88.16 1226.94 77.16"/><polygon class="cls-1" points="1259.94 74.16 1236.94 77.16 1236.94 88.16 1259.94 85.16 1259.94 74.16"/><polygon class="cls-1" points="1289.94 69.16 1268.94 72.16 1268.94 85.16 1289.94 81.16 1289.94 69.16"/><polygon class="cls-1" points="1322.94 74.16 1319.94 65.16 1299.94 68.16 1300.94 79.16 1322.94 74.16"/><polygon class="cls-1" points="1354.94 69.16 1350.94 59.16 1330.94 62.16 1332.94 74.16 1354.94 69.16"/><polygon class="cls-1" points="1385.94 63.16 1383.94 51.16 1361.94 57.16 1363.94 69.16 1385.94 63.16"/><polygon class="cls-1" points="1417.94 56.16 1413.94 45.16 1391.94 51.16 1394.94 62.16 1417.94 56.16"/><polygon class="cls-1" points="1448.94 51.16 1445.94 39.16 1422.94 43.16 1425.94 56.16 1448.94 51.16"/><polygon class="cls-1" points="1480.94 45.16 1475.94 32.16 1453.94 37.16 1456.94 50.16 1480.94 45.16"/><polygon class="cls-1" points="1511.94 39.16 1507.94 26.16 1484.94 32.16 1487.94 43.16 1511.94 39.16"/><polygon class="cls-1" points="1540.94 35.16 1539.94 21.16 1516.94 26.16 1518.94 37.16 1540.94 35.16"/><polygon class="cls-1" points="1573.94 29.16 1570.94 17.16 1547.94 21.16 1549.94 32.16 1573.94 29.16"/><polygon class="cls-1" points="1603.94 14.16 1580.94 16.16 1580.94 29.16 1603.94 27.16 1603.94 14.16"/><polygon class="cls-1" points="1635.94 11.16 1612.94 13.16 1612.94 26.16 1635.94 25.16 1635.94 11.16"/><polygon class="cls-1" points="1667.94 9.16 1643.94 9.16 1643.94 25.16 1667.94 23.16 1667.94 9.16"/><rect class="cls-1" x="1675.95" y="9.16" width="24" height="12"/><polygon class="cls-1" points="1730.94 8.16 1708.94 9.16 1708.94 21.16 1730.94 21.16 1730.94 8.16"/><polygon class="cls-1" points="1762.94 9.16 1739.94 8.16 1739.94 20.16 1762.94 20.16 1762.94 9.16"/><polygon class="cls-1" points="1794.94 11.16 1771.94 9.16 1771.94 21.16 1794.94 22.16 1794.94 11.16"/><polygon class="cls-1" points="1826.94 12.16 1802.94 11.16 1802.94 25.16 1826.94 25.16 1826.94 12.16"/><polygon class="cls-1" points="1858.94 16.16 1835.94 15.16 1835.94 27.16 1858.94 27.16 1858.94 16.16"/><polygon class="cls-1" points="1890.94 20.16 1867.94 18.16 1867.94 29.16 1889.94 31.16 1890.94 20.16"/><path class="cls-1" d="M1895.46,653.34c1.2,0,2.39,0,3.59,0L1886,651l-.43,2.39C1888.87,653.39,1892.17,653.4,1895.46,653.34Z" transform="translate(0.95 -397.84)"/><path class="cls-1" d="M1871,653.57c1.65-.06,3.31-.09,5-.12V649l-20-4-2.41,9.66C1859.41,654.19,1865.23,653.79,1871,653.57Z" transform="translate(0.95 -397.84)"/><path class="cls-1" d="M1843.22,655.56,1845,644l-21-3-3,12,16.8,3Z" transform="translate(0.95 -397.84)"/><polygon class="cls-1" points="1790.94 252.16 1813.94 254.16 1813.94 242.16 1791.94 240.16 1790.94 252.16"/><polygon class="cls-1" points="1759.94 250.16 1781.94 251.16 1781.94 240.16 1759.94 239.16 1759.94 250.16"/><rect class="cls-1" x="1727.95" y="238.16" width="22" height="11"/><polygon class="cls-1" points="1694.94 239.16 1695.94 250.16 1718.94 249.16 1716.94 237.16 1694.94 239.16"/><polygon class="cls-1" points="1662.94 240.16 1663.94 252.16 1686.94 251.16 1685.94 239.16 1662.94 240.16"/><polygon class="cls-1" points="1630.94 243.16 1631.94 256.16 1655.94 253.16 1654.94 240.16 1630.94 243.16"/><polygon class="cls-1" points="1597.94 248.16 1600.94 260.16 1623.94 257.16 1620.94 244.16 1597.94 248.16"/><polygon class="cls-1" points="1567.94 253.16 1570.94 265.16 1593.94 260.16 1589.94 249.16 1567.94 253.16"/><polygon class="cls-1" points="1535.94 258.16 1538.94 270.16 1561.94 266.16 1557.94 253.16 1535.94 258.16"/><polygon class="cls-1" points="1504.94 266.16 1507.94 277.16 1530.94 273.16 1525.94 261.16 1504.94 266.16"/><polygon class="cls-1" points="1474.94 271.16 1476.94 284.16 1498.94 279.16 1495.94 267.16 1474.94 271.16"/><polygon class="cls-1" points="1443.94 279.16 1446.94 291.16 1467.94 285.16 1465.94 274.16 1443.94 279.16"/><polygon class="cls-1" points="1411.94 286.16 1415.94 297.16 1437.94 292.16 1433.94 280.16 1411.94 286.16"/><polygon class="cls-1" points="1380.94 291.16 1383.94 303.16 1405.94 298.16 1402.94 286.16 1380.94 291.16"/><polygon class="cls-1" points="1348.94 297.16 1351.94 310.16 1375.94 305.16 1371.94 293.16 1348.94 297.16"/><polygon class="cls-1" points="1317.94 302.16 1320.94 315.16 1343.94 310.16 1340.94 298.16 1317.94 302.16"/><polygon class="cls-1" points="1286.94 305.16 1287.94 318.16 1310.94 315.16 1309.94 303.16 1286.94 305.16"/><polygon class="cls-1" points="1254.94 308.16 1256.94 321.16 1278.94 318.16 1277.94 306.16 1254.94 308.16"/><polygon class="cls-1" points="1223.94 309.16 1224.94 323.16 1247.94 321.16 1246.94 308.16 1223.94 309.16"/><polygon class="cls-1" points="1191.94 323.16 1215.94 323.16 1215.94 309.16 1190.94 310.16 1191.94 323.16"/><rect class="cls-1" x="1159.95" y="310.16" width="23" height="13"/><polygon class="cls-1" points="1128.94 322.16 1151.94 322.16 1151.94 310.16 1128.94 309.16 1128.94 322.16"/><polygon class="cls-1" points="1095.94 319.16 1119.94 320.16 1119.94 307.16 1096.94 305.16 1095.94 319.16"/><path class="cls-1" d="M1357,475s-27,10-78,18-89,7-89,7l9,196s75,0,103-7,97-16,97-16Z" transform="translate(0.95 -397.84)"/><path class="cls-1" d="M1584,435s-203,34-204,40,48,195,48,195l180-37Z" transform="translate(0.95 -397.84)"/><polygon class="cls-1" points="1816.94 32.16 1616.94 34.16 1625.94 231.16 1792.94 228.16 1816.94 32.16"/><path d="M1092,459s-262-27-409,3-292,54-335,53-90-6-90-6v11h17l-2,10H260l-2,14,85,3,1,199-84-4-2,9h4l-1,11h-3v13s135,13,278-15,262-49,262-49l83-7h53s14-3,83,9,75,14,75,14l3-34-95-15,20-197,72,9,1-9-20-4V467l19,4Z" transform="translate(0.95 -397.84)"/><polygon class="cls-1" points="305.94 126.16 285.94 124.16 285.94 135.16 305.94 135.16 305.94 126.16"/><rect class="cls-1" x="316.95" y="126.16" width="22" height="11"/><rect class="cls-1" x="347.95" y="126.16" width="23" height="11"/><polygon class="cls-1" points="401.94 124.16 379.94 124.16 379.94 137.16 401.94 135.16 401.94 124.16"/><polygon class="cls-1" points="434.94 121.16 411.94 124.16 411.94 135.16 434.94 132.16 434.94 121.16"/><polygon class="cls-1" points="464.94 116.16 443.94 119.16 443.94 132.16 464.94 128.16 464.94 116.16"/><polygon class="cls-1" points="497.94 121.16 494.94 112.16 474.94 115.16 475.94 126.16 497.94 121.16"/><polygon class="cls-1" points="529.95 116.16 525.95 106.16 505.94 109.16 507.94 121.16 529.95 116.16"/><polygon class="cls-1" points="560.95 110.16 558.95 98.16 536.95 104.16 538.95 116.16 560.95 110.16"/><polygon class="cls-1" points="592.95 103.16 588.95 92.16 566.95 98.16 569.95 109.16 592.95 103.16"/><polygon class="cls-1" points="623.95 98.16 620.95 86.16 597.95 90.16 600.95 103.16 623.95 98.16"/><polygon class="cls-1" points="655.95 92.16 650.95 79.16 628.95 84.16 631.95 97.16 655.95 92.16"/><polygon class="cls-1" points="686.95 86.16 682.95 73.16 659.95 79.16 662.95 90.16 686.95 86.16"/><polygon class="cls-1" points="715.95 82.16 714.95 68.16 691.95 73.16 693.95 84.16 715.95 82.16"/><polygon class="cls-1" points="748.95 76.16 745.95 64.16 722.95 68.16 724.95 79.16 748.95 76.16"/><polygon class="cls-1" points="778.95 61.16 755.95 63.16 755.95 76.16 778.95 74.16 778.95 61.16"/><polygon class="cls-1" points="810.95 58.16 787.95 60.16 787.95 73.16 810.95 72.16 810.95 58.16"/><polygon class="cls-1" points="842.95 56.16 818.95 56.16 818.95 72.16 842.95 70.16 842.95 56.16"/><rect class="cls-1" x="850.95" y="56.16" width="24" height="12"/><polygon class="cls-1" points="905.95 55.16 883.95 56.16 883.95 68.16 905.95 68.16 905.95 55.16"/><polygon class="cls-1" points="937.95 56.16 914.95 55.16 914.95 67.16 937.95 67.16 937.95 56.16"/><polygon class="cls-1" points="969.95 58.16 946.95 56.16 946.95 68.16 969.95 69.16 969.95 58.16"/><polygon class="cls-1" points="1001.95 59.16 977.95 58.16 977.95 72.16 1001.95 72.16 1001.95 59.16"/><polygon class="cls-1" points="1033.94 63.16 1010.95 62.16 1010.95 74.16 1033.94 74.16 1033.94 63.16"/><polygon class="cls-1" points="1065.94 67.16 1042.94 65.16 1042.94 76.16 1064.94 78.16 1065.94 67.16"/><rect class="cls-1" x="1065.41" y="694.32" width="11.18" height="22.36" transform="translate(186.24 1235.18) rotate(-79.7)"/><polygon class="cls-1" points="1028.94 306.16 1051.94 310.16 1051.94 298.16 1031.94 294.16 1028.94 306.16"/><polygon class="cls-1" points="996.95 302.16 1018.95 306.16 1020.95 293.16 999.95 290.16 996.95 302.16"/><polygon class="cls-1" points="965.95 299.16 988.95 301.16 988.95 289.16 966.95 287.16 965.95 299.16"/><polygon class="cls-1" points="934.95 297.16 956.95 298.16 956.95 287.16 934.95 286.16 934.95 297.16"/><rect class="cls-1" x="902.95" y="285.16" width="22" height="11"/><polygon class="cls-1" points="869.95 286.16 870.95 297.16 893.95 296.16 891.95 284.16 869.95 286.16"/><polygon class="cls-1" points="837.95 287.16 838.95 299.16 861.95 298.16 860.95 286.16 837.95 287.16"/><polygon class="cls-1" points="805.95 290.16 806.95 303.16 830.95 300.16 829.95 287.16 805.95 290.16"/><polygon class="cls-1" points="772.95 295.16 775.95 307.16 798.95 304.16 795.95 291.16 772.95 295.16"/><polygon class="cls-1" points="742.95 300.16 745.95 312.16 768.95 307.16 764.95 296.16 742.95 300.16"/><polygon class="cls-1" points="710.95 305.16 713.95 317.16 736.95 313.16 732.95 300.16 710.95 305.16"/><polygon class="cls-1" points="679.95 313.16 682.95 324.16 705.95 320.16 700.95 308.16 679.95 313.16"/><polygon class="cls-1" points="649.95 318.16 651.95 331.16 673.95 326.16 670.95 314.16 649.95 318.16"/><polygon class="cls-1" points="618.95 326.16 621.95 338.16 642.95 332.16 640.95 321.16 618.95 326.16"/><polygon class="cls-1" points="586.95 333.16 590.95 344.16 612.95 339.16 608.95 327.16 586.95 333.16"/><polygon class="cls-1" points="555.95 338.16 558.95 350.16 580.95 345.16 577.95 333.16 555.95 338.16"/><polygon class="cls-1" points="523.95 344.16 526.95 357.16 550.95 352.16 546.95 340.16 523.95 344.16"/><polygon class="cls-1" points="492.94 349.16 495.94 362.16 518.95 357.16 515.95 345.16 492.94 349.16"/><polygon class="cls-1" points="461.94 352.16 462.94 365.16 485.94 362.16 484.94 350.16 461.94 352.16"/><polygon class="cls-1" points="429.94 355.16 431.94 368.16 453.94 365.16 452.94 353.16 429.94 355.16"/><polygon class="cls-1" points="398.94 356.16 399.94 370.16 422.94 368.16 421.94 355.16 398.94 356.16"/><polygon class="cls-1" points="366.94 370.16 390.94 370.16 390.94 356.16 365.94 357.16 366.94 370.16"/><rect class="cls-1" x="334.95" y="357.16" width="23" height="13"/><polygon class="cls-1" points="303.94 369.16 326.94 369.16 326.94 357.16 303.94 356.16 303.94 369.16"/><polygon class="cls-1" points="270.94 366.16 294.94 367.16 294.94 354.16 271.94 352.16 270.94 366.16"/><path class="cls-1" d="M532,522s-27,10-78,18-89,7-89,7l9,196s75,0,103-7,97-16,97-16Z" transform="translate(0.95 -397.84)"/><path class="cls-1" d="M759,482s-203,34-204,40,48,195,48,195l180-37Z" transform="translate(0.95 -397.84)"/><polygon class="cls-1" points="991.95 79.16 791.95 81.16 800.95 278.16 967.95 275.16 991.95 79.16"/><path d="M175,730l20-197,72,9,1-9-20-4V519l19,4V511S130.35,496.92-.95,500.4v22.21a5.3,5.3,0,0,1,.27,1.69V760.78L56,756h53s14-3,83,9,75,14,75,14l3-34Z" transform="translate(0.95 -397.84)"/><polygon class="cls-1" points="0 108.16 0 123.65 17.95 122.16 17.95 108.16 0 108.16"/><rect class="cls-1" x="25.95" y="108.16" width="24" height="12"/><polygon class="cls-1" points="80.94 107.16 58.95 108.16 58.95 120.16 80.94 120.16 80.94 107.16"/><polygon class="cls-1" points="112.94 108.16 89.94 107.16 89.94 119.16 112.94 119.16 112.94 108.16"/><polygon class="cls-1" points="144.94 110.16 121.94 108.16 121.94 120.16 144.94 121.16 144.94 110.16"/><polygon class="cls-1" points="176.94 111.16 152.94 110.16 152.94 124.16 176.94 124.16 176.94 111.16"/><polygon class="cls-1" points="208.94 115.16 185.94 114.16 185.94 126.16 208.94 126.16 208.94 115.16"/><polygon class="cls-1" points="240.94 119.16 217.94 117.16 217.94 128.16 239.94 130.16 240.94 119.16"/><rect class="cls-1" x="240.41" y="746.32" width="11.18" height="22.36" transform="translate(-542.34 466.18) rotate(-79.7)"/><polygon class="cls-1" points="203.94 358.16 226.94 362.16 226.94 350.16 206.94 346.16 203.94 358.16"/><polygon class="cls-1" points="171.94 354.16 193.94 358.16 195.94 345.16 174.94 342.16 171.94 354.16"/><polygon class="cls-1" points="140.94 351.16 163.94 353.16 163.94 341.16 141.94 339.16 140.94 351.16"/><polygon class="cls-1" points="109.94 349.16 131.94 350.16 131.94 339.16 109.94 338.16 109.94 349.16"/><rect class="cls-1" x="77.95" y="337.16" width="22" height="11"/><polygon class="cls-1" points="44.95 338.16 45.95 349.16 68.94 348.16 66.94 336.16 44.95 338.16"/><polygon class="cls-1" points="12.95 339.16 13.95 351.16 36.95 350.16 35.95 338.16 12.95 339.16"/><polygon class="cls-1" points="0.26 352.87 5.95 352.16 4.95 339.16 0.26 339.74 0.26 352.87"/><polygon class="cls-1" points="0.26 132.82 0.26 329.72 142.94 327.16 166.94 131.16 0.26 132.82"/><polygon class="cls-2" points="1171.44 97.66 1020.45 78.66 996.45 279.66 1091.44 300.66 1172.44 305.66 1171.44 97.66"/><polygon class="cls-2" points="1100.44 70.66 1070.44 65.66 1071.44 82.66 1100.44 86.66 1100.44 70.66"/><polygon class="cls-2" points="346.44 142.66 195.44 135.66 171.44 335.66 270.44 348.66 351.44 351.66 346.44 142.66"/><polygon class="cls-2" points="276.44 119.66 246.44 117.66 245.44 134.66 275.44 135.66 276.44 119.66"/><path d="M1994,628l20-197,72,9,1-9-20-4V417l19,4V409s-136.65-14.08-268-10.6v22.21a5.3,5.3,0,0,1,.27,1.69V657.76h3.87a5.23,5.23,0,0,1,1.93-.53c15.58-1.2,31.31-3.07,46.91-3.66,8.12-.31,16.3-.09,24.43-.23,4.94-.08,9.85.38,14.76.66H1928s14-3,83,9,75,14,75,14l3-34Z" transform="translate(0.95 -397.84)"/><polygon class="cls-1" points="1819 6.16 1819 21.65 1836.94 20.16 1836.94 6.16 1819 6.16"/><rect class="cls-1" x="1844.95" y="6.16" width="24" height="12"/><polygon class="cls-1" points="1899.94 5.16 1877.94 6.16 1877.94 18.16 1899.94 18.16 1899.94 5.16"/><polygon class="cls-1" points="1931.94 6.16 1908.94 5.16 1908.94 17.16 1931.94 17.16 1931.94 6.16"/><polygon class="cls-1" points="1963.94 8.16 1940.94 6.16 1940.94 18.16 1963.94 19.16 1963.94 8.16"/><polygon class="cls-1" points="1995.94 9.16 1971.94 8.16 1971.94 22.16 1995.94 22.16 1995.94 9.16"/><polygon class="cls-1" points="2027.94 13.16 2004.94 12.16 2004.94 24.16 2027.94 24.16 2027.94 13.16"/><polygon class="cls-1" points="2059.95 17.16 2036.94 15.16 2036.94 26.16 2058.95 28.16 2059.95 17.16"/><rect class="cls-1" x="2059.41" y="644.32" width="11.18" height="22.36" transform="translate(1051.62 2172.09) rotate(-79.7)"/><polygon class="cls-1" points="2022.94 256.16 2045.94 260.16 2045.94 248.16 2025.94 244.16 2022.94 256.16"/><polygon class="cls-1" points="1990.94 252.16 2012.94 256.16 2014.94 243.16 1993.94 240.16 1990.94 252.16"/><polygon class="cls-1" points="1959.94 249.16 1982.94 251.16 1982.94 239.16 1960.94 237.16 1959.94 249.16"/><polygon class="cls-1" points="1928.94 247.16 1950.94 248.16 1950.94 237.16 1928.94 236.16 1928.94 247.16"/><rect class="cls-1" x="1896.95" y="235.16" width="22" height="11"/><polygon class="cls-1" points="1863.94 236.16 1864.94 247.16 1887.94 246.16 1885.94 234.16 1863.94 236.16"/><polygon class="cls-1" points="1831.94 237.16 1832.94 249.16 1855.94 248.16 1854.94 236.16 1831.94 237.16"/><polygon class="cls-1" points="1819.26 250.87 1824.94 250.16 1823.94 237.16 1819.26 237.74 1819.26 250.87"/><polygon class="cls-1" points="1819.26 30.82 1819.26 227.72 1961.94 225.16 1985.94 29.16 1819.26 30.82"/></g></svg>