<svg xmlns="http://www.w3.org/2000/svg" viewBox="0 0 107.38 130.94"><defs><style>.cls-1{fill:#231f20;}</style></defs><title>musicNotes</title><g id="Layer_2" data-name="Layer 2"><path class="cls-1" d="M142.59,199.26c-1.83-7.18-6.89-13-11-19.18-1.7-2.54-3.26-5.17-4.81-7.81q-2.56-4.32-5.12-8.65v-3h-2.37a142.16,142.16,0,0,0,0,16v54.74c-3.76-2.53-10-3.13-16.29-1.14C94,233,88.18,240,90,245.71s10.57,8.13,19.56,5.31,14.81-9.78,13-15.54a7.31,7.31,0,0,0-.9-1.84V184a69.52,69.52,0,0,1,9.27,7.18,25.15,25.15,0,0,1,6.81,10.42c2.09,6.78.2,14.09-1.69,20.93a31.3,31.3,0,0,0,5.57-8.68A23.64,23.64,0,0,0,142.59,199.26Z" transform="translate(-89.66 -160.58)"/></g><g id="Layer_3" data-name="Layer 3"><path class="cls-1" d="M195.88,244.06q-5.56-5.53-11.38-10.82c-2-1.82-4.14-3.78-4.79-6.41a13.61,13.61,0,0,1-.19-3.88,2.13,2.13,0,0,1,2.66-.36,4.72,4.72,0,0,1,1.25,1.48c2,3,4.81,5.22,7.68,7.33a9.92,9.92,0,0,1,1.6,1.36,6.86,6.86,0,0,1,1.35,2.56,23.29,23.29,0,0,1,.81,5.32.88.88,0,0,0,1.31-.16,2.58,2.58,0,0,0,.39-1.43c.21-2.86.39-5.86-.79-8.48a12.77,12.77,0,0,0-1.48-2.38c-2.31-3.08-5.3-5.56-8.12-8.19s-5.55-5.47-7.12-9a49.09,49.09,0,0,1-2.12-7.15v-4.6h-2.48v12.22c0,5.29-.15,10.58-.3,15.88a5.8,5.8,0,0,1,.1,1.13c-.07,3.33.09,6.66.12,10l.08,0v31.3c-3.87-2.82-11-3-18.18-.08-9.13,3.75-14.72,11.21-12.48,16.65s11.46,6.79,20.59,3c5.71-2.36,10-6.16,11.9-10a3.76,3.76,0,0,1,.42-.94c.07-.18.15-.35.23-.53v-.12a7.43,7.43,0,0,0,0-4.82V239.17a30.19,30.19,0,0,1,4.74,2.49,39,39,0,0,1,8.6,6.4c2.44,2.63,4.2,6.08,4.05,9.66-.07,1.64.71,3,.49,4.67-.09.65-.25,1.28-.4,1.92-.27,1.08-.39,2.19-.65,3.27a9.36,9.36,0,0,0,2.58-2.59,3.28,3.28,0,0,0,.39-.71,4,4,0,0,0,.16-.9c.1-1.09.1-2.18.15-3.27V246.26A3.18,3.18,0,0,0,195.88,244.06Z" transform="translate(-89.66 -160.58)"/></g></svg>