<?xml version="1.0" encoding="utf-8"?>
<!-- Generator: Adobe Illustrator 23.0.5, SVG Export Plug-In . SVG Version: 6.00 Build 0)  -->
<svg version="1.1" id="Layer_1" xmlns="http://www.w3.org/2000/svg" xmlns:xlink="http://www.w3.org/1999/xlink" x="0px" y="0px"
	 viewBox="0 0 254.5 216.7" style="enable-background:new 0 0 254.5 216.7;" xml:space="preserve">
<style type="text/css">
	.st0{fill:#FFFFFF;}
	.st1{fill:none;stroke:#000000;stroke-miterlimit:10;}
	.st2{stroke:#000000;stroke-miterlimit:10;}
	.st3{opacity:0.44;stroke:#000000;stroke-miterlimit:10;enable-background:new    ;}
	.st4{fill:#FFFFFF;stroke:#000000;stroke-miterlimit:10;}
	.st5{opacity:0.67;stroke:#000000;stroke-miterlimit:10;enable-background:new    ;}
	.st6{opacity:0.58;stroke:#000000;stroke-miterlimit:10;enable-background:new    ;}
</style>
<rect class="st0" width="254.5" height="216.7"/>
<title>smile</title>
<path class="st1" d="M-65.4,40"/>
<path class="st2" d="M5.6,125.6c4.6,7.8,10.6,14.8,17.7,20.5c0.4,0.5,1.1,0.7,1.7,0.7c1.4-0.3,1.3-3,2.8-3.1
	c-0.5,4.6-0.6,9.5,1.4,13.7s6.4,7.5,11,6.9l0.9-1.8c1.2,1.4,0.2,3.7,1.2,5.3c0.4,0.6,0.9,1,1.5,1.4l17.1,12.3
	c1.3,0.9,3.1,1.9,4.4,0.9c0.4-0.4,0.8-1,1-1.5c1-1.8,2.8-3.1,4.5-4.4c3.4-2.8,6.2-6.2,8.2-10.1c-0.6,2.6-2.1,4.8-3.6,6.9
	s-3,4.5-3.3,7s0.8,5.6,3.2,6.6c1.4,0.4,3,0.5,4.4,0.3c8.8-0.3,17.5,3.7,26.2,2.3c1.4-0.2,2.7,0.3,4.1,0.3c0.8-0.1,1.7-0.2,2.5-0.3
	c4.3-0.6,8.7-1.5,12.9-2.6c3.3-0.9,6.7-2.2,10.1-1.7c2.5,0.4,4.9,1.7,7.4,1.9c1.1,0.1,2.1,0,3.2-0.1c0.9,0,1.8-0.2,2.6-0.5
	c2.1-0.7,3.4-2.7,5.4-3.7c1.2-0.7,2.7-0.9,4.1-0.7c3.4,0.5,6.7,0.5,10.1,0.6c1.6,0.1,3.3,0.1,4.9,0c2.6-0.3,5.2-0.8,7.7-1.6
	c4.5-1.3,9-2.7,12.8-5.3c2.2-1.5,4.1-3.3,6.3-4.9c4.8-3.7,10.4-6.2,16.4-7.3c1.4-1.2,3.2-1.6,4.4-3.1c0.5-0.7,0.9-1.5,1.2-2.3
	c0.4-0.9,0.7-1.8,0.9-2.8c0.2-0.9,0.3-1.8,0.5-2.6c0.7-2,2.1-3.7,4.1-4.6c0.5-0.2,1-0.5,1.4-0.8c0.4-0.3,0.7-0.7,0.9-1.2
	c0.7-1,1.1-2.2,1.2-3.4c0.1-1.2-0.3-2.4-1.3-3.2c-0.6-0.4-1.4-0.7-2.1-0.9c-3.4-0.8-6.8-1.2-10.2-1.3c0-0.3-0.1-0.6-0.3-0.8
	c3.3,0.4,6.7-1.2,9.9-0.3c1.8,0.5,3.4,1.7,5.3,1.5c0.4,0,0.8-0.2,1.1-0.6c0.1-0.2,0.1-0.4,0.1-0.6c0.3-3.8,3.3-6.8,4.7-10.4
	c0.4-1.1,0.7-2.3,1.2-3.3c0.4-0.7,0.7-1.4,1-2.2c0.3-0.8,0.2-1.6-0.3-2.3c-0.4-0.4-0.9-0.8-1.5-1.1c-0.5-0.3-0.8-1-0.7-1.6
	c-0.8-1.3-1.5-2.6-2.1-4c0.6-0.3,1.1,0.4,1.4,0.9c0.5,1.1,1.2,2.1,1.9,3c0.8,0.9,2,1.5,3.2,1.4c0.2,0,0.4-0.1,0.5-0.2
	c0.1-0.1,0.3-0.3,0.3-0.4l2.1-3.3c0.7-1,1.3-2.1,1.7-3.2c0.5-1.8,0.7-3.8,0.5-5.6c-0.1-4.5-0.1-8.9,0-13.3
	c0.3-6.3,1.4-12.5,3.4-18.5c0.5-0.2,0.7,0.6,0.7,1.1c-0.6,4-2,7.8-2.4,11.8c-0.7,5.7,0.5,11.5,1,17.3s0,11.9-3.3,16.6
	c-1.1,1.3-2.2,2.7-3.1,4.1c-1.3,2.3-1.6,5-2.9,7.3c-0.8,1.1-1.4,2.3-1.8,3.7c-0.1,1.2,0,2.4,0.1,3.6c0,3.2-2.4,5.7-3.9,8.5
	c-2.4,4.5-2.6,9.9-2.5,15.1c0.1,5.4-4.5,10-9.7,11.3c-3.6,0.9-7.4,0.3-11,0.6c-7.2,0.6-13.4,4.8-19.3,8.9c-2.3,1.4-4.3,3.1-6,5.1
	c-3,4-3.6,9.5-6.9,13.3c-1.1,1.2-2.3,2.2-3.7,3c-4.5,2.8-9.6,4.7-14.6,6.6l-2.2,0.8c-3.6,1.5-7.4,2.6-11.2,3.3
	c-6.4,1.1-12.9,1.5-19.3,1.2c-6.4-0.4-12.8-2.2-17.9-6s-9-9.7-15.2-10.9c-1.9-0.3-3.8-0.3-5.7-0.2l-10.4,0.6
	c-1.8,0.2-3.7,0.1-5.4-0.4c-2.8-1-4.6-3.6-6.5-5.9c-6-7.4-14.3-12.5-22.4-17.5c-5.3-3.3-9.1-8.6-14.4-11.9c-1.5-0.8-2.8-1.8-3.9-3
	c-0.9-1.4-1.6-3-2-4.6c-1.2-3.7-3.1-7.1-5.5-10.2c-1.6-2.1-3.5-4-5.2-6.1c-1.6-2.1-3.1-4.2-4.5-6.5c-2.1-2.9-3.8-6.1-5.2-9.5
	C4.1,124.7,4.8,125.2,5.6,125.6z"/>
<ellipse transform="matrix(0.2568 -0.9665 0.9665 0.2568 -12.9673 100.1758)" class="st2" cx="58.7" cy="58.5" rx="25.5" ry="51"/>
<ellipse transform="matrix(0.2568 -0.9665 0.9665 0.2568 -14.8606 94.7859)" class="st3" cx="54.2" cy="57.1" rx="27.5" ry="55"/>
<ellipse transform="matrix(0.8829 -0.4696 0.4696 0.8829 5.6228 98.1011)" class="st2" cx="199.5" cy="37.8" rx="51" ry="25.5"/>
<ellipse transform="matrix(0.8829 -0.4696 0.4696 0.8829 7.0431 99.8627)" class="st3" cx="203.7" cy="35.8" rx="55" ry="27.5"/>
<path class="st4" d="M62.5,45.8c4.2,0.5,8.3,1.3,12.3,2.4c4.5,1.1,9.2,2.4,12.4,5.7c0.4,0.4,0.7,0.9,0.8,1.4
	c-0.1,0.7-0.5,1.3-1.1,1.7c-12,9.4-27.7,12.4-42.3,8.2c-1.4-0.3-2.7-0.9-3.8-1.8c-1-0.9-1.8-2-2.3-3.3c-3-6-4.1-10.8,3-12.8
	C48.2,45.5,55.4,45,62.5,45.8z"/>
<path class="st4" d="M191.3,26c-6.7,1.6-13,4.3-19.3,7c-1.8,0.7-3.4,1.6-4.8,2.8c-1.4,1.2-2.2,3.1-1.9,5c3.5,2.4,7.1,4.8,11.2,6
	c7.6,2.2,15.6,0.1,23.2-2c3-0.8,6.1-1.7,8.5-3.7c3.5-2.9,6.3-10.6,2.7-14.4C206.8,22.6,196.2,24.9,191.3,26z"/>
<path class="st2" d="M64.7,56.8c-4,0.8-8.2,0.2-11.9-1.7c-3.2-1.6-6.3-4.1-6.9-7.6c8.6-1.2,17.3-1.4,26-0.5
	C77.2,47.5,67.2,56.1,64.7,56.8z"/>
<path class="st2" d="M197.8,29.6c-1.2,2.3-2.5,4.7-4.8,5.9c-0.9,0.4-1.9,0.7-2.8,0.9c-2.7,0.6-5.6,1.3-8.3,0.8s-5.2-2.1-7.4-3.7
	c1.1-1.2,2.9-1.4,4.5-1.8c3.4-0.8,6.5-2.8,9.6-4.5C192.5,25.1,201.9,21.5,197.8,29.6z"/>
<path class="st4" d="M183.8,30.5c-0.9,0.6-1.2,1.9-0.5,2.8c0.2,0.3,0.5,0.5,0.8,0.7c0.2,0.2,0.5,0.4,0.8,0.5
	c0.7,0.2,1.4-0.4,1.9-0.9c0.8-0.6,0.9-1.8,0.3-2.5c-0.1-0.1-0.2-0.2-0.3-0.3C185.8,30,184.7,30.3,183.8,30.5z"/>
<path class="st4" d="M54.1,49.4c-0.1,0.1-0.3,0.2-0.4,0.3c-0.2,0.3-0.3,0.6-0.2,0.9c0,0.7,0.1,1.4,0.4,2c0.2,0.5,0.5,0.8,0.9,1.1
	c0.2,0.1,0.3,0.1,0.5,0.1c0.8,0.1,1.7-0.2,2.3-0.8c0.6-0.6,0.8-1.5,0.6-2.3c-0.3-0.8-0.8-1.4-1.6-1.8C55.7,48.2,55.1,48.8,54.1,49.4
	z"/>
<path class="st2" d="M150.5,159.6c5.8-1.1,10.4-5.4,14.6-9.6c4.7-4.9,9.2-10,13.3-15.4c0.8,9.9-4.7,19.1-10.4,27.2
	c-3.5,5-7.2,9.9-12.2,13.4s-11.4,5.4-17.3,3.6s-10.7-7-16.8-6.9c-3,0.1-6.5,1.3-8.7-0.8c-0.8-0.8-1.3-1.8-1.6-2.9
	c-3.4-9.9-5.7-20.2-6.8-30.6l-9.1,7.9c1.2-1.1,1.7-7.1,3.4-9.1c2.1-2.6,5.3-4.8,8.7-5.2c-4,11.8,2.4,14.8,12.2,18.2
	S139.5,161.8,150.5,159.6z"/>
<path class="st5" d="M142.4,155.6c4.9-1,8.9-4.6,12.4-8.2c4-4.2,7.8-8.5,11.3-13.1c0.7,8.4-4,16.3-8.8,23.2
	c-3,4.2-6.2,8.5-10.4,11.4s-9.7,4.6-14.7,3.1s-9.1-6-14.3-5.9c-2.6,0-5.5,1.1-7.4-0.7c-0.6-0.7-1.1-1.6-1.3-2.5
	c-2.9-8.4-4.9-17.2-5.8-26.1l-7.8,6.7c1-0.9,1.5-6,2.9-7.7c1.8-2.4,4.5-3.9,7.4-4.4c-3.4,10,2,12.6,10.3,15.5S133,157.5,142.4,155.6
	z"/>
<path class="st6" d="M138.8,198.8l80.6,0.6c6.3,0,12.6,0.1,18.6,1.8s11.8,5.2,14.8,10.6c1.1-4.8-1.6-9.8-5.5-12.8s-8.8-4.3-13.6-5.4
	c-51.3-11.7-104.7-3.2-157.3-2.2c-11.1,0.2-22.3,0.1-33.1,2.4c-8.1,1.8-18.6,5.2-23.9,11.9c5.4,2.8,21.6-2.8,28-3.6
	c10-1.2,20.2-2,30.3-2.5C98.1,198.5,118.5,198.6,138.8,198.8z"/>
</svg>
