<svg id="Layer_1" data-name="Layer 1" xmlns="http://www.w3.org/2000/svg" viewBox="0 0 266.83 403.17"><title>handsClenched</title><path d="M968.67,361.3c3,10.28,9.25,19,14.76,28.06A81.37,81.37,0,0,1,991,404.53a77,77,0,0,1,3.8,17.31,145.51,145.51,0,0,1,.72,17.59c-.07,6-.62,12-.29,18,.64,11.8,7.58,21.45,14.58,30.5,13.76,17.81,30.75,33.06,42.64,52.31,11.7,18.93,18.43,40.41,22.86,62.1,2.27,11.11,4,22.34,5.45,33.59.73,5.51,1.41,11,2.08,16.56.76,6.29,1.51,12.64,1.08,19A41,41,0,0,1,1071,698.62c-8.48,7.94-19.51,10.74-30.79,11.94-25.61,2.72-51.5,3.8-77.23,4.42-6.25.15-12.53.36-18.78.28-5.06-.06-10.64-.92-13-6a20.84,20.84,0,0,1-1.48-7.77c-.14-3-.16-6-.2-9q-.12-9.62.09-19.23.21-9.79.78-19.57c.3-5.18.62-10.5,2.49-15.39a16.47,16.47,0,0,1,10.71-10.23,23.82,23.82,0,0,1,14.78.75c5.44,2,10.21,5.45,14.63,9.09,4.11,3.39,9,6.9,11.64,11.63,2.18,3.9,2.3,10.42-2.65,12.31s-10.12-2.51-13.13-6-5.92-7.54-10.34-9.58c-1.31-.6-2.45,1.33-1.14,1.94,5,2.32,7.78,7.22,11.51,11,3.19,3.25,8,6,12.67,5.08,4.52-.91,6.92-5.35,6.8-9.7-.14-5.09-3.43-9.17-7-12.47-7.94-7.33-17.24-15.51-28.37-16.93a22.58,22.58,0,0,0-14.27,2.54c-4.38,2.58-7.15,6.94-8.59,11.74-1.59,5.26-1.79,10.85-2.09,16.3q-.54,10.13-.72,20.26-.17,10.32,0,20.63c.1,5-.16,10.89,2.81,15.24s7.89,5.35,12.7,5.54c6.45.26,13-.09,19.42-.24q20.63-.48,41.24-1.68c13.38-.78,26.9-1.41,40.2-3.17,11.06-1.45,21.54-4.94,29.63-12.91a43.36,43.36,0,0,0,12.79-27.69c.5-6.77-.36-13.55-1.18-20.27-.71-5.81-1.42-11.62-2.2-17.43-3.1-23.21-7.11-46.54-15.46-68.51a151.25,151.25,0,0,0-15.69-30.81c-6.64-9.88-14.55-18.8-22.46-27.65s-16.06-17.87-22.84-27.79c-3.56-5.2-7-10.71-8.25-17s-.52-13-.36-19.4c.3-12.26-.09-24.81-3.75-36.61-3.45-11.13-10.32-20.42-16.16-30.34a67.48,67.48,0,0,1-7-15.3,1.13,1.13,0,0,0-2.17.6Z" transform="translate(-855.65 -359.91)"/><path d="M1068.05,575.58c1.17,7.55,4,14.66,7.06,21.62,3.29,7.48,6.68,14.93,10,22.38,3.11,6.94,6,14.16,10.67,20.2,2.31,3,5,5.59,7.52,8.33a71.29,71.29,0,0,1,6.92,8.67,61.57,61.57,0,0,1,9.09,19.66c1.59,6.61,1.16,13.71-3.7,18.88-4.44,4.71-10.76,7.16-16.56,9.7l-22.71,10-90.56,39.76c-6.88,3-14.36,7.1-22.13,5.91-6.35-1-11.77-5-15.86-9.79a38.48,38.48,0,0,1-2.83-3.76,33.43,33.43,0,0,0-2.65-4c-2.69-3-6.37-1.14-9.59-.24a72.86,72.86,0,0,1-22.8,2.72,21.36,21.36,0,0,1-9.44-2.18c-3-1.64-4.73-4.44-5.93-7.54s-2.29-6.5-3.59-9.7c-1.43-3.54-2.6-7.08-2.47-11a33.62,33.62,0,0,1,2.74-11.14A95.91,95.91,0,0,1,896,693.94a18,18,0,0,1,6.84-7.49,21.62,21.62,0,0,1,9.31-2.33,67.4,67.4,0,0,1,9.42.29c1.44.11,1.43-2.14,0-2.25-6.44-.53-13.43-.93-19.37,2.09-6.52,3.31-9.45,10.73-12.21,17.07-3.09,7.13-5,14.54-2.45,22.15,1.18,3.53,2.73,6.92,3.93,10.45,1,3.1,2.21,6.25,4.41,8.73,4.59,5.17,12.35,5.43,18.75,5.26a78.44,78.44,0,0,0,12-1.28q2.9-.54,5.76-1.3c1-.26,2-.55,2.95-.85a11.35,11.35,0,0,1,3.08-.79c2-.06,2.86,1.83,3.76,3.28a44.06,44.06,0,0,0,2.78,4,37.15,37.15,0,0,0,7,6.94,23.91,23.91,0,0,0,18.53,4.84A49.14,49.14,0,0,0,981.77,759c3.86-1.68,7.72-3.39,11.57-5.08l23.77-10.43,46.77-20.54,23.62-10.37,11.81-5.18c3.18-1.4,6.39-2.75,9.47-4.37,5.68-3,10.93-7.22,12.83-13.59,2.07-6.91.13-14.39-2.52-20.85a72.45,72.45,0,0,0-11.39-18.89c-2.48-3-5.26-5.68-7.84-8.57a48.91,48.91,0,0,1-6.76-9.73c-3.85-7.25-6.93-15-10.29-22.44s-7-14.9-9.69-22.64a64.74,64.74,0,0,1-2.9-11.31c-.22-1.43-2.39-.82-2.17.6Z" transform="translate(-855.65 -359.91)"/><path d="M1084.38,672.5c-.48,3.61.46,7.15.5,10.76a30.49,30.49,0,0,1-2.14,10.13c-2.29,6.39-7.35,10.64-13.12,13.87a129.76,129.76,0,0,1-20.12,8.68c-7.2,2.58-14.46,5-21.69,7.52-14.13,4.88-28.24,10-42.78,13.61a149,149,0,0,1-22,3.82c-7.08.64-14.37.68-21.26-1.3-4-1.15-7.61-3.13-11.36-4.85a54.85,54.85,0,0,0-11-3.71c-7.8-1.76-15.83-2-23.79-2.31-1.45-.05-1.45,2.2,0,2.25,7.46.25,15,.5,22.31,2a52.75,52.75,0,0,1,10.48,3.31c3.26,1.44,6.39,3.17,9.72,4.45,6.74,2.57,14.09,3,21.23,2.65a136.16,136.16,0,0,0,22.09-3.21c14.87-3.3,29.25-8.47,43.63-13.44,7.51-2.59,15-5.15,22.51-7.78a163.24,163.24,0,0,0,21-8.63c6.38-3.29,12.56-7.65,15.51-14.44a35.33,35.33,0,0,0,2.95-11.32c.28-4.05-1-8-.46-12.09.18-1.43-2.07-1.42-2.25,0Z" transform="translate(-855.65 -359.91)"/><path d="M855.72,436l9.89,28.77c3.21,9.35,6.84,18.67,9.45,28.21a56.74,56.74,0,0,1,.8,27c-1.88,8.81-5.69,16.76-10.36,24.4a67.59,67.59,0,0,0-6,11.48,36.13,36.13,0,0,0-1.94,13.57c.23,9.87,1.41,19.78,2.61,29.57s2.63,19.63,4.07,29.43c1.19,8.1,2.42,16.32,5.8,23.85a35,35,0,0,0,6.58,9.9c3.09,3.23,6.66,6,9.23,9.68a32.44,32.44,0,0,1,5.45,22.21,30.84,30.84,0,0,1-1.32,5.78c-.45,1.38,1.72,2,2.17.6a34.12,34.12,0,0,0-.68-22.71,33.58,33.58,0,0,0-5.83-9.8c-3-3.43-6.69-6.12-9.48-9.71-5.1-6.55-7.18-14.87-8.58-22.89-1.65-9.48-2.9-19.06-4.17-28.6-1.34-10.06-2.5-20.14-3.22-30.27-.34-4.83-.76-9.79,0-14.61a36.9,36.9,0,0,1,4.91-12.43c2.22-3.83,4.67-7.51,6.68-11.45a73.43,73.43,0,0,0,4.94-12.26,60.26,60.26,0,0,0,2.1-26,82.81,82.81,0,0,0-3.67-14.1c-1.59-4.76-3.26-9.51-4.89-14.26l-9.89-28.77-2.47-7.19c-.47-1.36-2.64-.78-2.17.6Z" transform="translate(-855.65 -359.91)"/><path d="M883,662.32a106.12,106.12,0,0,1,39.28.9c1.42.3,2-1.87.6-2.17a109.34,109.34,0,0,0-40.48-.9c-1.42.23-.82,2.4.6,2.17Z" transform="translate(-855.65 -359.91)"/><path d="M939.25,462.58c.74,7.53-3.68,14.17-8.67,19.37s-10.62,9.76-14.77,15.76c-8.14,11.75-11.17,26.4-10.26,40.53A97.59,97.59,0,0,0,911,564.06c.31.91,1.76.52,1.44-.4-5.05-14.5-7.41-30.31-3.92-45.46a57.38,57.38,0,0,1,8.2-19.22c4.17-6.18,10-10.78,15-16.13s9.72-12.44,9-20.27c-.09-.95-1.59-1-1.5,0Z" transform="translate(-855.65 -359.91)"/><path d="M932.84,551.52c1.1,20.74,2.4,42.52,13.4,60.76a58,58,0,0,0,8.46,11c3.65,3.69,7.93,6.56,12.1,9.61,7.94,5.81,14.45,13.27,22.26,19.23a52.36,52.36,0,0,0,14.5,7.84,124.74,124.74,0,0,0,17.49,4.31c.94.19,1.34-1.26.39-1.44-10-2-20.15-4.13-28.77-9.95-7.91-5.35-14.24-12.62-21.64-18.61-4-3.29-8.53-6-12.48-9.43a53.28,53.28,0,0,1-9.16-10.38,76.75,76.75,0,0,1-10.88-25.85c-2.84-12.14-3.51-24.63-4.17-37-.05-1-1.55-1-1.5,0Z" transform="translate(-855.65 -359.91)"/><path d="M1000.16,693a22.59,22.59,0,0,1-17.74-26.18c.17-.94-1.28-1.35-1.44-.4a24.07,24.07,0,0,0,18.78,28c1,.2,1.35-1.25.4-1.45Z" transform="translate(-855.65 -359.91)"/><path d="M946,686.33c8.62-7.49,22.31-10.46,26.34-22.36.31-.92-1.14-1.31-1.45-.4C967,675,953.25,678.06,945,685.27c-.73.63.34,1.69,1.06,1.06Z" transform="translate(-855.65 -359.91)"/><path d="M907.92,586.05a11.85,11.85,0,0,0,1.72,5.94,21.82,21.82,0,0,0,4.29,4.56q5.6,5,11.38,9.78c7.36,6.09,14.86,12.48,23.28,17.08.84.47,1.6-.83.75-1.29-8-4.4-15.19-10.44-22.23-16.25q-5.34-4.38-10.52-9a45.77,45.77,0,0,1-4.77-4.46,10.27,10.27,0,0,1-2.4-6.4.75.75,0,0,0-1.5,0Z" transform="translate(-855.65 -359.91)"/></svg>