<?xml version="1.0" encoding="utf-8"?>
<!-- Generator: Adobe Illustrator 23.0.5, SVG Export Plug-In . SVG Version: 6.00 Build 0)  -->
<svg version="1.1" id="Layer_1" xmlns="http://www.w3.org/2000/svg" xmlns:xlink="http://www.w3.org/1999/xlink" x="0px" y="0px"
	 viewBox="0 0 148.6 148.6" style="enable-background:new 0 0 148.6 148.6;" xml:space="preserve">
<style type="text/css">
	.st0{fill:#FFFFFF;stroke:#231F20;stroke-width:3;stroke-miterlimit:10;}
	.st1{fill:none;stroke:#231F20;stroke-width:3;stroke-miterlimit:10;}
</style>
<title>scrollDrawTest</title>
<path class="st0" d="M74.3,1.5c40.2,0,72.8,32.6,72.8,72.8s-32.6,72.8-72.8,72.8c-19.3,0-36.8-7.5-49.8-19.7
	c-14.1-13.3-23-32.1-23-53.1C1.5,34.1,34.1,1.5,74.3,1.5z"/>
<path class="st0" d="M36.3,42.8c3.9,0,7.1,3.2,7.1,7.1c0,2.6-1.4,5-3.6,6.2c-1,0.6-2.2,0.9-3.5,0.9c-3.9,0-7.1-3.2-7.1-7.1
	S32.4,42.8,36.3,42.8z"/>
<path class="st0" d="M107,42.8c3.9,0,7.1,3.2,7.1,7.1s-3.2,7.1-7.1,7.1c-2.3,0-4.4-1.1-5.7-2.8c-0.9-1.2-1.4-2.7-1.4-4.3
	C99.9,46,103,42.8,107,42.8z"/>
<path class="st1" d="M27.6,100c2.4,2.3,12.9,12.2,29.5,16.7c5.5,1.5,11.7,2.4,18.5,2.3c25.6-0.5,41.8-15.6,45.4-19"/>
</svg>
