<svg id="Layer_1" data-name="Layer 1" xmlns="http://www.w3.org/2000/svg" viewBox="0 0 782.29 113.17"><defs><style>.cls-1{fill:#fff;}.cls-2{fill:none;stroke:#000;stroke-miterlimit:10;stroke-width:2px;}.cls-3{font-size:52px;font-family:TimesNewRomanPSMT, Times New Roman;}.cls-4{letter-spacing:-0.04em;}</style></defs><title>lieDetector</title><path class="cls-1" d="M560.5,449a24,24,0,0,1,0-48h650a24,24,0,0,1,0,48Z" transform="translate(-471.45 -336.83)"/><path d="M1210.5,402a23,23,0,0,1,0,46h-650a23,23,0,0,1,0-46h650m0-2h-650a25,25,0,0,0,0,50h650a25,25,0,0,0,0-50Z" transform="translate(-471.45 -336.83)"/><line class="cls-2" x1="414.55" y1="113.17" x2="414.55" y2="66.17"/><line class="cls-2" x1="550.55" y1="111.17" x2="550.55" y2="64.17"/><line class="cls-2" x1="687.55" y1="111.17" x2="687.55" y2="64.17"/><line class="cls-2" x1="270.55" y1="113.17" x2="270.55" y2="66.17"/><line class="cls-2" x1="138.55" y1="113.17" x2="138.55" y2="66.17"/><text class="cls-3" transform="translate(0 43.21)"><tspan class="cls-4">T</tspan><tspan x="29.94" y="0">ruth</tspan></text><text class="cls-3" transform="translate(713 43.21)">Lie</text></svg>