<svg id="Layer_1" data-name="Layer 1" xmlns="http://www.w3.org/2000/svg" viewBox="0 0 412.08 334.85"><defs><style>.cls-1{fill:none;stroke:#000;stroke-miterlimit:10;stroke-width:0.5px;}</style></defs><title>handDisplays</title><path d="M1165.4,608c-4.85-1.68-8.33-5.75-12.18-8.94a113.32,113.32,0,0,0-10.82-7.76c-7.53-4.85-15.48-9.26-22.11-15.33a40.67,40.67,0,0,1-9-11.53c-.87-1.72-3.46-.21-2.59,1.51,8.57,16.93,27.83,23.46,41.81,34.78,4.5,3.65,8.43,8.21,14,10.17,1.83.63,2.61-2.27.8-2.9Z" transform="translate(-754.35 -372.44)"/><path d="M1118.1,704.53q-30.78-15.31-60.28-33-8.38-5-16.66-10.26c-1.64-1-3.15,1.56-1.52,2.59q29.07,18.35,59.52,34.36,8.67,4.54,17.43,8.91c1.72.85,3.24-1.73,1.51-2.59Z" transform="translate(-754.35 -372.44)"/><path d="M1095.63,626.26a233.81,233.81,0,0,0,24.14-44.57c.36-.89-1.09-1.28-1.45-.4a232.17,232.17,0,0,1-24,44.21c-.55.8.75,1.55,1.29.76Z" transform="translate(-754.35 -372.44)"/><path d="M1079.07,596.85c9-7.91,17.52-17,22.73-27.84a44,44,0,0,0,4.5-16.8,42.09,42.09,0,0,0-3.51-18.17c-2.6-6.29-6.11-12.15-9.47-18.06l-10.82-19c-7.17-12.61-14.24-25.28-21.54-37.82a165.89,165.89,0,0,0-10.83-16.69,151.74,151.74,0,0,0-12.21-13.76c-3.9-4.05-7.8-8.17-10.78-13a31.88,31.88,0,0,1-3.48-7.43,41.34,41.34,0,0,1-1.53-10.32c-.32-6.13-.47-12.42-3.67-17.86-2.58-4.39-7.09-8.06-12.46-7.63s-9.63,4.61-12.45,9a57.08,57.08,0,0,0-6.36,15c-6,21.16-2.09,45.16,10.71,63.1a71.31,71.31,0,0,0,5.13,6.36c1.3,1.44,3.42-.69,2.12-2.12-14.21-15.69-20.27-38.15-16.78-58.95a67.52,67.52,0,0,1,4.41-15.26c2-4.61,4.51-9.69,8.84-12.51s9.33-1.62,12.65,2.24c3.89,4.52,4.45,10.55,4.74,16.26.32,6.21.79,12.17,3.48,17.87a54.42,54.42,0,0,0,9.31,13.09c3.74,4.12,7.77,8,11.46,12.16a116.21,116.21,0,0,1,11.27,15.53c7.22,11.6,13.71,23.69,20.46,35.57,6.86,12.06,13.9,24,20.56,36.21,3,5.56,5.84,11.34,7.11,17.59a35.51,35.51,0,0,1-.8,17c-3.18,11-10.66,20.38-18.67,28.33-2,2-4.11,3.94-6.24,5.83-1.45,1.28.67,3.39,2.12,2.12Z" transform="translate(-754.35 -372.44)"/><path d="M1002.66,460.78c-12,1.18-24.14,2.4-36.12.74-11.08-1.55-21.39-5.93-31.24-11.06-10.09-5.26-19.88-11-30.08-16.06s-20.82-9.73-31.53-13.9-21.64-7.88-32.7-11.09c-5.48-1.59-11.08-3.45-16.77-4.05-5-.52-10.19.5-13.85,4.12a10.51,10.51,0,0,0-2.24,12.08c1.88,4.08,5.8,7,9.48,9.32,9.64,6.13,19.63,11.77,29.69,17.17a547.69,547.69,0,0,0,62.64,28.66c2.66,1,5.34,2,8,3,1.82.66,2.6-2.23.8-2.89a542.56,542.56,0,0,1-61.54-27q-14.93-7.68-29.37-16.27c-4.3-2.56-8.94-5-12.79-8.23-3.11-2.63-6.18-6.54-4.54-10.84s6.6-6.25,10.89-6.31c5.6-.07,11.22,1.93,16.55,3.44q16.17,4.59,31.9,10.57t30.93,13.34c9.88,4.77,19.4,10.16,29,15.38,9.48,5.12,19.32,9.93,29.88,12.35,11.25,2.58,22.87,2.25,34.29,1.29,2.89-.24,5.77-.52,8.66-.81,1.9-.18,1.92-3.18,0-3Z" transform="translate(-754.35 -372.44)"/><path d="M918.35,480.4c3.09.44,4.54,4.79,4.13,7.49-.7,4.53-7.53,4.7-11,4.48a57.29,57.29,0,0,1-17.3-4.06c-5.67-2.26-10.86-5.54-16.25-8.37-21.17-11.13-44.62-16.8-67.61-22.81l-18.68-4.89c-5.63-1.47-11.26-3.24-17-4.28-4.44-.8-9.28-1.14-13.5.75a11.71,11.71,0,0,0-6.84,10.69A17.25,17.25,0,0,0,760.14,472c3.85,3.51,8.71,5.54,13.53,7.31,11.82,4.34,23.69,8.54,35.5,12.9q36.12,13.35,71.93,27.5l8.72,3.46-.36-2.75c-16.72,8.95-36.27.24-51.58-7.57-8.32-4.25-16.67-8.69-25.67-11.32a56.78,56.78,0,0,0-6.89-1.59,30.64,30.64,0,0,0-6.81-.64,14.87,14.87,0,0,0-4.75,1.54c-1.73.73-3.27,1.64-3.9,3.49-1.28,3.76.22,7.95,1.36,11.55,1.2,3.82,2.83,7.74,5.8,10.53,1.41,1.31,3.53-.8,2.12-2.13-2.46-2.31-3.83-5.52-4.87-8.68s-2.29-6.38-1.74-9.6c.32-1.9,2-2.18,3.59-2.91a8.73,8.73,0,0,1,4.74-.7,54.73,54.73,0,0,1,13,2.8c17,5.66,31.53,17.05,49.25,20.74,9.39,2,19.26,1.68,27.86-2.92,1.25-.66.75-2.29-.36-2.74q-35.77-14.23-71.86-27.69-17.93-6.68-35.92-13.15c-5.3-1.91-10.86-3.54-15.82-6.25-4.32-2.36-8-5.76-9.28-10.68-1.12-4.43.36-9.08,4.67-11.08,4.06-1.89,9.05-1.14,13.26-.23,5.91,1.29,11.75,3,17.6,4.55L812,460.65c23,6,46.36,11.88,67.36,23.43,5.3,2.91,10.54,5.91,16.26,7.94a56.73,56.73,0,0,0,17.08,3.4c4.17.12,10.06-.76,12.13-5,1.61-3.27.52-7.63-1.64-10.38a6.37,6.37,0,0,0-4-2.55,1.53,1.53,0,0,0-1.84,1,1.51,1.51,0,0,0,1,1.85Z" transform="translate(-754.35 -372.44)"/><path d="M795.05,522.37c2.93,6.6,9.88,9.8,16.16,12.42q13.11,5.48,26.25,10.89c8.51,3.53,17,7,25.53,10.61a113.93,113.93,0,0,1,18.91,9.77c6.45,4.33,12.21,10,15.26,17.26l1-1.85c-11.84,3.39-23.32-2-32.73-9a132.54,132.54,0,0,1-14.16-12.41c-4-3.94-8.78-9.53-15-9.21s-8.82,6.27-9.44,11.57a29.44,29.44,0,0,0,3,16.08c5.07,10.62,14.83,18.52,24.8,24.33,11.86,6.92,24.72,11.93,37.65,16.44,13.81,4.82,27.73,9.35,41.6,14l85.15,28.55c3.55,1.19,7.1,2.4,10.65,3.57,3,1,6.32,1.81,9.36.39,4.59-2.15,5.53-7.85,6.12-12.34,1.55-11.68,6.07-22.56,14-31.35a55.74,55.74,0,0,1,6.43-6c1.5-1.21-.63-3.32-2.12-2.12a58.56,58.56,0,0,0-19,27.92,55.27,55.27,0,0,0-1.94,8.4,69.47,69.47,0,0,1-1.17,7.19c-.51,2-1.33,4.23-3.17,5.38-2.9,1.8-6.64.07-9.52-.9l-82.36-27.61-41.18-13.81c-12.61-4.22-25.27-8.46-37.32-14.12-11-5.15-21.83-11.35-29.76-20.7a35.69,35.69,0,0,1-7.69-14.24C829.26,566.73,829,560,832.33,556c4.38-5.23,11,.32,14.4,3.75a175.77,175.77,0,0,0,13.39,12.35c8.69,7,19.14,13.52,30.72,13.44a30.46,30.46,0,0,0,8.16-1.21,1.5,1.5,0,0,0,1-1.84c-5.62-13.41-18.47-21.15-31.17-26.9-7.81-3.54-15.8-6.68-23.72-10L818.29,534.5c-7.29-3-17.16-5.78-20.65-13.64-.78-1.76-3.37-.24-2.59,1.51Z" transform="translate(-754.35 -372.44)"/><path d="M1018.92,476.32a49.23,49.23,0,0,1,39.12,7.4,47,47,0,0,1,8.76,7.85c.63.73,1.69-.33,1.06-1.06a50.71,50.71,0,0,0-37.45-17,48.62,48.62,0,0,0-11.89,1.39c-.93.23-.54,1.68.4,1.45Z" transform="translate(-754.35 -372.44)"/><path d="M1000.87,466c1.9,5.15,4.11,11.18,1.32,16.43a8.64,8.64,0,0,1-5.71,4.41c-2.32.69-3.08,2.34-3,4.66.15,6.42.64,12.86,1,19.27l1,19.4L996.48,552c0,1,1.55,1,1.5,0l-2-39.29-1-19.39c-.06-1.29-.51-3.43.52-4.45.85-.85,2.49-.87,3.56-1.38a9.89,9.89,0,0,0,4.44-4.51c2.88-5.64.8-11.88-1.25-17.42-.33-.9-1.78-.51-1.45.39Z" transform="translate(-754.35 -372.44)"/><path d="M1031.36,600.78c-12.79-6.13-23.37-16-31.61-27.44-9.15-12.69-15.39-27.16-20.38-41.92-3-8.77-5.53-17.68-8.07-26.58a.75.75,0,0,0-1.45.4c4.6,16,9.23,32.19,16.24,47.39,6.13,13.28,14.21,25.83,24.92,35.88a78.06,78.06,0,0,0,19.59,13.56c.87.42,1.63-.88.76-1.29Z" transform="translate(-754.35 -372.44)"/><path d="M964.17,470.78a206.28,206.28,0,0,0-8.26,52A209.4,209.4,0,0,0,961,575.18a203.16,203.16,0,0,0,8.74,28.65c.35.89,1.8.51,1.45-.39a204.79,204.79,0,0,1-12.52-51,208,208,0,0,1,.71-52.47,204.45,204.45,0,0,1,6.27-28.84.75.75,0,0,0-1.45-.4Z" transform="translate(-754.35 -372.44)"/><path d="M943.86,625.48l-1.81-33.42c-.29-5.35-.61-10.69-.86-16a96.41,96.41,0,0,1,.17-14.32,36.05,36.05,0,0,1,4.79-15.19c.5-.82-.8-1.58-1.3-.75-5,8.17-5.57,18-5.28,27.31.35,11,1.15,22.07,1.74,33.1l1.05,19.31c0,1,1.55,1,1.5,0Z" transform="translate(-754.35 -372.44)"/><path d="M825.1,537.82,830,524.18c.33-.91-1.12-1.3-1.44-.4l-4.94,13.65c-.33.91,1.12,1.3,1.45.39Z" transform="translate(-754.35 -372.44)"/><path d="M818.17,532.67c.1-.32.21-.64.33-.95,0-.08,0-.08,0,0l0-.12c0-.08.07-.15.1-.23l.23-.45a8.44,8.44,0,0,1,.51-.86c.09-.14.18-.28.28-.41l.15-.21c0-.06,0-.06,0,0a.39.39,0,0,1,.08-.1.87.87,0,0,0,.22-.53.77.77,0,0,0-.22-.53.77.77,0,0,0-1.07,0,12,12,0,0,0-2.11,4,.77.77,0,0,0,.52.92.78.78,0,0,0,.93-.52Z" transform="translate(-754.35 -372.44)"/><path d="M920.38,492.75a56.86,56.86,0,0,0,3.92,17.3c.35.89,1.8.5,1.44-.4a55.47,55.47,0,0,1-3.86-16.9c-.07-1-1.57-1-1.5,0Z" transform="translate(-754.35 -372.44)"/><path d="M891.26,556.07c2.64-6.25,5.36-12.66,5.8-19.52.37-5.82-1-11.84-4.93-16.31-.63-.73-1.69.34-1.06,1.06,8.54,9.82,3.28,23.65-1.1,34-.38.88.92,1.65,1.29.76Z" transform="translate(-754.35 -372.44)"/><path d="M907.08,620.34l-5.84-28c-.2-1-1.64-.55-1.44.4l5.83,28c.2.95,1.65.55,1.45-.39Z" transform="translate(-754.35 -372.44)"/><path d="M867.77,598.85A80.59,80.59,0,0,0,870,580.23a.75.75,0,0,0-1.5,0,78.77,78.77,0,0,1-2.2,18.22c-.23.94,1.22,1.34,1.45.4Z" transform="translate(-754.35 -372.44)"/><path d="M851,591.35a39.27,39.27,0,0,0,4.48-17.24.75.75,0,0,0-1.5,0,37.59,37.59,0,0,1-4.28,16.48c-.44.86.85,1.62,1.3.76Z" transform="translate(-754.35 -372.44)"/><path d="M1115.45,569.48,1107,558.4a1.55,1.55,0,0,0-2-.54,1.52,1.52,0,0,0-.54,2l8.49,11.09a1.55,1.55,0,0,0,2.05.54,1.53,1.53,0,0,0,.54-2.06Z" transform="translate(-754.35 -372.44)"/><path class="cls-1" d="M798.08,522.27" transform="translate(-754.35 -372.44)"/></svg>