<svg id="Layer_1" data-name="Layer 1" xmlns="http://www.w3.org/2000/svg" viewBox="0 0 315.11 488.35"><defs><style>.cls-1{fill:#998675;}.cls-1,.cls-2,.cls-3,.cls-4,.cls-5,.cls-6,.cls-7{stroke:#000;stroke-miterlimit:10;stroke-width:3px;}.cls-2,.cls-3,.cls-4,.cls-5,.cls-6,.cls-7{fill:none;}.cls-3{stroke-dasharray:8.05 8.05;}.cls-4{stroke-dasharray:8.4 8.4;}.cls-5{stroke-dasharray:8.06 8.06;}.cls-6{stroke-dasharray:7.78 7.78;}.cls-7{stroke-dasharray:7.85 7.85;}.cls-8{fill:#c7b299;}</style></defs><title>pocketHands</title><path class="cls-1" d="M819.61,430.23l36.31,233.45,150.45,77.82,114.13-93.38V419.86a736.08,736.08,0,0,1-150.45,20.75A735.51,735.51,0,0,1,819.61,430.23Z" transform="translate(-817.81 -254.93)"/><path class="cls-2" d="M844.29,446.55l-3.93-.75.5,4" transform="translate(-817.81 -254.93)"/><line class="cls-3" x1="24.05" y1="202.82" x2="47.5" y2="390.42"/><polyline class="cls-2" points="48 394.41 48.49 398.38 52.07 400.17"/><line class="cls-4" x1="59.58" y1="403.92" x2="176.04" y2="462.15"/><polyline class="cls-2" points="179.8 464.03 183.38 465.82 186.44 463.24"/><line class="cls-5" x1="192.6" y1="458.05" x2="275.8" y2="387.98"/><polyline class="cls-2" points="278.88 385.39 281.94 382.81 282.05 378.81"/><line class="cls-6" x1="282.24" y1="371.04" x2="286.93" y2="188.38"/><path class="cls-2" d="M1104.83,439.42l.11-4c-1.27.36-2.56.71-3.86,1.06" transform="translate(-817.81 -254.93)"/><path class="cls-7" d="M1093.49,438.48a574.36,574.36,0,0,1-123.44,17.69,574.92,574.92,0,0,1-121.9-8.9" transform="translate(-817.81 -254.93)"/><path class="cls-8" d="M1009.6,298.48c.88,6,6.36,10.13,11.26,13.76,22.13,16.42,41,36.77,59.69,57,6.38,6.89,12.82,13.88,17.36,22.1a91.17,91.17,0,0,1,6.5,15.61c9,27.47,12.34,57.1,26.18,82.49.71,1.31,1.47,2.76,1.14,4.21a5.83,5.83,0,0,1-2.15,2.85,18.88,18.88,0,0,1-7.07,4.27c-5.21,1.43-10.81-1.31-14.45-5.31s-5.77-9.08-8.16-13.92c-16.17-32.77-46.66-58.87-53.84-94.71a138.54,138.54,0,0,0,2.9,41.61" transform="translate(-817.81 -254.93)"/><path d="M1008.52,298.78c.91,5.62,5.36,9.55,9.65,12.84,5.34,4.09,10.67,8.15,15.77,12.54,10.34,8.88,20,18.49,29.42,28.34,4.69,4.91,9.31,9.88,13.91,14.86s9.25,9.84,13.39,15.16a70.52,70.52,0,0,1,10.2,17.84,188.7,188.7,0,0,1,6.13,19.15c3.49,12.64,6.27,25.46,9.9,38.06a195.45,195.45,0,0,0,6.31,18.69q1.75,4.39,3.81,8.68,1,2.18,2.19,4.3c.85,1.59,2.2,3.48.9,5.2a15.69,15.69,0,0,1-3.21,2.81,14.6,14.6,0,0,1-4.28,2.33,11.5,11.5,0,0,1-8.58-.95c-5.73-2.88-8.8-8.66-11.48-14.18a219.85,219.85,0,0,0-18.2-30.35c-13.17-18.74-28.3-37.13-35.13-59.37-.82-2.69-1.51-5.43-2.07-8.19-.27-1.32-2.12-.89-2.21.3a140.87,140.87,0,0,0,2.94,41.91c.31,1.41,2.48.81,2.17-.6a138.85,138.85,0,0,1-2.86-41.31l-2.21.3c4.75,23.47,19.44,43,33.1,62,7,9.73,13.88,19.57,19.44,30.2,2.94,5.63,5.22,11.78,9.46,16.6,3.76,4.27,9.67,7.37,15.45,6,3-.71,5.63-2.65,8-4.65a7.25,7.25,0,0,0,2.33-3,6.08,6.08,0,0,0-.73-4.62c-1.49-3-3.12-6-4.51-9.05s-2.66-6.27-3.82-9.47c-4.65-12.7-7.76-25.88-11-39-1.65-6.57-3.34-13.14-5.28-19.63a122,122,0,0,0-7.18-19.34c-6.12-12.33-16.38-22.17-25.65-32.14-9.54-10.26-19.21-20.42-29.47-30-5-4.72-10.25-9.29-15.63-13.64q-4-3.22-8.13-6.29a49.69,49.69,0,0,1-6.63-5.56,14.05,14.05,0,0,1-4-7.42c-.23-1.43-2.4-.82-2.17.6Z" transform="translate(-817.81 -254.93)"/><path class="cls-8" d="M862.29,431.55c10.06-29.82,20.25-60.46,19-91.9C881,331.78,880,324,879,316.14Q875,286.08,871.08,256" transform="translate(-817.81 -254.93)"/><path d="M863.37,431.85c7.3-21.63,14.62-43.46,17.69-66.17a151,151,0,0,0,.84-34.13c-1.09-11.91-2.91-23.77-4.47-35.62L872.2,256c-.18-1.42-2.44-1.43-2.25,0l4.65,35.49c1.55,11.8,3.25,23.58,4.57,35.4a155.81,155.81,0,0,1,.21,34.2,218.72,218.72,0,0,1-6.6,33.34c-3.37,12.42-7.46,24.63-11.58,36.82-.46,1.37,1.71,2,2.17.6Z" transform="translate(-817.81 -254.93)"/><path class="cls-8" d="M975.5,297.23a36.45,36.45,0,0,0,28.22-1.51" transform="translate(-817.81 -254.93)"/><path d="M975.2,298.31a37.84,37.84,0,0,0,29.08-1.61c1.31-.63.17-2.58-1.13-1.95a35.52,35.52,0,0,1-27.35,1.39c-1.36-.49-1.95,1.69-.6,2.17Z" transform="translate(-817.81 -254.93)"/><path class="cls-8" d="M911.41,394.91a60.06,60.06,0,0,0,9.56,9.5,36,36,0,0,1,3.62,2.76,11.25,11.25,0,0,1,3.11,5.31" transform="translate(-817.81 -254.93)"/><path d="M910.62,395.71a66.07,66.07,0,0,0,8.56,8.74c1.51,1.2,3.21,2.18,4.61,3.51a10.2,10.2,0,0,1,2.82,4.82,1.13,1.13,0,0,0,2.17-.6,12.56,12.56,0,0,0-2.71-5.09,29.65,29.65,0,0,0-4.79-3.84,60.7,60.7,0,0,1-9.07-9.13c-1-1.1-2.54.5-1.59,1.59Z" transform="translate(-817.81 -254.93)"/><path class="cls-8" d="M1107.71,417.07A50.06,50.06,0,0,1,1093.88,434" transform="translate(-817.81 -254.93)"/><path d="M1106.74,416.5a49.74,49.74,0,0,1-13.66,16.69c-1.14.9.46,2.48,1.59,1.59a51.23,51.23,0,0,0,14-17.14c.65-1.29-1.29-2.43-1.94-1.14Z" transform="translate(-817.81 -254.93)"/><path d="M1119.63,497.32c-5.4-4.15-9.88-10.51-10-17.55-.06-6.08,3.45-12.47,9.42-14.47,1.37-.45.78-2.63-.6-2.17-6.81,2.28-11,9.28-11.07,16.3-.08,8,4.93,15.12,11.07,19.83,1.15.88,2.27-1.07,1.13-1.94Z" transform="translate(-817.81 -254.93)"/><path class="cls-8" d="M1110,435.75c-2.32,4.5-5.43,9.55-10.46,10.09" transform="translate(-817.81 -254.93)"/><path d="M1109,435.18c-2,3.82-4.77,9-9.49,9.54a1.17,1.17,0,0,0-1.13,1.12,1.14,1.14,0,0,0,1.13,1.13c5.74-.67,9-6,11.43-10.65.67-1.28-1.27-2.42-1.94-1.14Z" transform="translate(-817.81 -254.93)"/></svg>