<svg id="Layer_1" data-name="Layer 1" xmlns="http://www.w3.org/2000/svg" viewBox="0 0 552.57 196.61"><title>rubbingNeckText</title><path d="M730.81,421.55v.83H717.87v-.83h1.07a3.23,3.23,0,0,0,2.72-1.09c.35-.47.53-1.62.53-3.43V397.51a10.1,10.1,0,0,0-.29-3,2,2,0,0,0-.91-1,4.22,4.22,0,0,0-2-.54h-1.07v-.82h12.94V393h-1.09a3.18,3.18,0,0,0-2.69,1.1c-.37.47-.56,1.62-.56,3.43V417a10.1,10.1,0,0,0,.29,3,2,2,0,0,0,.94,1,4.12,4.12,0,0,0,2,.53Z" transform="translate(-717.02 -390.69)"/><path d="M741.33,403.57V417c0,1.91.21,3.11.63,3.61a2.71,2.71,0,0,0,2.2,1H746v.81H733.82v-.81h.92a3,3,0,0,0,1.62-.44,2.38,2.38,0,0,0,1-1.2,10.34,10.34,0,0,0,.28-2.95V403.57h-4V402h4v-1.33a12.14,12.14,0,0,1,1-5.17,8,8,0,0,1,3-3.42,8.2,8.2,0,0,1,4.54-1.31,6.89,6.89,0,0,1,4.3,1.52,2.85,2.85,0,0,1,1.29,2.25,1.76,1.76,0,0,1-.58,1.26,1.73,1.73,0,0,1-1.25.59,2,2,0,0,1-1.08-.37,5.93,5.93,0,0,1-1.39-1.58,5.59,5.59,0,0,0-1.51-1.64,2.92,2.92,0,0,0-1.54-.42,2.8,2.8,0,0,0-1.74.54,3,3,0,0,0-1,1.7,31.26,31.26,0,0,0-.32,5.91V402h5.26v1.61Z" transform="translate(-717.02 -390.69)"/><path d="M765.89,395.26V402h4.77v1.56h-4.77v13.24a4.46,4.46,0,0,0,.57,2.68,1.8,1.8,0,0,0,1.46.69,2.57,2.57,0,0,0,1.42-.46,2.88,2.88,0,0,0,1.07-1.35h.87a7,7,0,0,1-2.2,3.29,4.79,4.79,0,0,1-3,1.1,3.93,3.93,0,0,1-2-.57,3.46,3.46,0,0,1-1.45-1.62,8.62,8.62,0,0,1-.47-3.27V403.52H759v-.73a8.57,8.57,0,0,0,2.51-1.66,13.39,13.39,0,0,0,2.28-2.78,24.67,24.67,0,0,0,1.43-3.09Z" transform="translate(-717.02 -390.69)"/><path d="M778.64,390.69v14.93a17.12,17.12,0,0,1,3.92-3.49,6.14,6.14,0,0,1,2.9-.77,4.75,4.75,0,0,1,3,1,5.66,5.66,0,0,1,1.85,3,21.46,21.46,0,0,1,.42,5.21v7.22a7.49,7.49,0,0,0,.32,2.66,1.74,1.74,0,0,0,.75.84,4.25,4.25,0,0,0,2,.31v.81h-10v-.81h.47a3.33,3.33,0,0,0,2-.43,2.34,2.34,0,0,0,.78-1.28,18.61,18.61,0,0,0,.07-2.1v-7.22a17.34,17.34,0,0,0-.35-4.39,3,3,0,0,0-1.1-1.57,3.15,3.15,0,0,0-1.83-.52,5.06,5.06,0,0,0-2.27.58,11,11,0,0,0-2.83,2.34v10.78a8.32,8.32,0,0,0,.23,2.61,2,2,0,0,0,.87.86,5,5,0,0,0,2.19.34v.81H771.82v-.81a4.57,4.57,0,0,0,2.14-.42,1.62,1.62,0,0,0,.71-.85,7.59,7.59,0,0,0,.27-2.54V399.29a30.81,30.81,0,0,0-.17-4.3,1.91,1.91,0,0,0-.51-1.09,1.42,1.42,0,0,0-.93-.29,5.66,5.66,0,0,0-1.51.35l-.31-.77,6.1-2.5Z" transform="translate(-717.02 -390.69)"/><path d="M798.89,409.65a10.48,10.48,0,0,0,2.21,7.13,6.7,6.7,0,0,0,5.24,2.59,5.71,5.71,0,0,0,3.48-1.1,8.19,8.19,0,0,0,2.49-3.78l.69.44a10.6,10.6,0,0,1-2.72,5.56,7.24,7.24,0,0,1-5.64,2.51,8.21,8.21,0,0,1-6.29-2.86,11,11,0,0,1-2.62-7.7q0-5.24,2.68-8.17a8.77,8.77,0,0,1,6.74-2.93,7.56,7.56,0,0,1,5.64,2.26,8.31,8.31,0,0,1,2.21,6Zm0-1.29h9.45a8.47,8.47,0,0,0-.47-2.76,4.37,4.37,0,0,0-1.66-2,4.13,4.13,0,0,0-2.3-.72,4.58,4.58,0,0,0-3.31,1.44A6.24,6.24,0,0,0,798.89,408.36Z" transform="translate(-717.02 -390.69)"/><path d="M814.56,402h9.51v.83h-.47a2.26,2.26,0,0,0-1.5.43,1.38,1.38,0,0,0-.5,1.08,6.08,6.08,0,0,0,.73,2.41l5,10.3,4.57-11.28a4.55,4.55,0,0,0,.38-1.8,1,1,0,0,0-.15-.61,1.27,1.27,0,0,0-.56-.39,4.47,4.47,0,0,0-1.34-.14V402h6.64v.83a3.15,3.15,0,0,0-1.27.36,3.57,3.57,0,0,0-1,1,14.52,14.52,0,0,0-.76,1.71l-8.31,20.37a10.47,10.47,0,0,1-3.15,4.48,6.2,6.2,0,0,1-3.76,1.52,3.16,3.16,0,0,1-2.16-.76,2.3,2.3,0,0,1-.84-1.74,2,2,0,0,1,.61-1.5,2.37,2.37,0,0,1,1.68-.57,6,6,0,0,1,2,.49,4.73,4.73,0,0,0,1.11.33,2.32,2.32,0,0,0,1.46-.69,7.17,7.17,0,0,0,1.59-2.67l1.45-3.55-7.33-15.39a11.94,11.94,0,0,0-1.07-1.72,5.33,5.33,0,0,0-.91-1,5.23,5.23,0,0,0-1.65-.62Z" transform="translate(-717.02 -390.69)"/><path d="M861.51,419.44a34.17,34.17,0,0,1-3.94,2.8,6.1,6.1,0,0,1-2.57.56,4.56,4.56,0,0,1-3.48-1.45,5.27,5.27,0,0,1-1.37-3.81,4.88,4.88,0,0,1,.66-2.58A9,9,0,0,1,854,412.1a49.76,49.76,0,0,1,7.52-3.25v-.8c0-2-.32-3.43-1-4.19a3.51,3.51,0,0,0-2.82-1.14,3.21,3.21,0,0,0-2.23.76,2.29,2.29,0,0,0-.84,1.74l0,1.29a2.21,2.21,0,0,1-.52,1.58,1.81,1.81,0,0,1-1.37.56,1.73,1.73,0,0,1-1.35-.58,2.26,2.26,0,0,1-.52-1.58,4.55,4.55,0,0,1,2-3.52,8.44,8.44,0,0,1,5.5-1.61,9.56,9.56,0,0,1,4.46.92,4.24,4.24,0,0,1,1.94,2.16,12.39,12.39,0,0,1,.4,3.92v6.93a30.51,30.51,0,0,0,.11,3.58,1.48,1.48,0,0,0,.37.88.85.85,0,0,0,.59.22,1.17,1.17,0,0,0,.62-.16,14.18,14.18,0,0,0,1.81-1.62v1.25c-1.67,2.22-3.26,3.34-4.77,3.34a2.15,2.15,0,0,1-1.74-.76A4.06,4.06,0,0,1,861.51,419.44Zm0-1.45v-7.78a45.77,45.77,0,0,0-4.35,1.89,7.56,7.56,0,0,0-2.51,2,4,4,0,0,0-.76,2.34,3.84,3.84,0,0,0,1,2.67,2.92,2.92,0,0,0,2.2,1.06C858.18,420.22,859.67,419.47,861.51,418Z" transform="translate(-717.02 -390.69)"/><path d="M876.17,401.36V406q2.57-4.59,5.26-4.59a2.86,2.86,0,0,1,2,.75,2.31,2.31,0,0,1,.8,1.73,2,2,0,0,1-.58,1.47,1.83,1.83,0,0,1-1.38.6,3,3,0,0,1-1.75-.77,2.87,2.87,0,0,0-1.44-.77,1.32,1.32,0,0,0-.86.45,10.81,10.81,0,0,0-2.08,3v9.78a5.91,5.91,0,0,0,.43,2.56,2.24,2.24,0,0,0,1,1,4.49,4.49,0,0,0,2.12.4v.81H869.29v-.81a4.27,4.27,0,0,0,2.31-.49,1.8,1.8,0,0,0,.78-1.13,10.61,10.61,0,0,0,.12-2.16v-7.91a31.78,31.78,0,0,0-.15-4.25,1.69,1.69,0,0,0-.53-1,1.5,1.5,0,0,0-1-.31,4.46,4.46,0,0,0-1.56.33l-.23-.8,6.18-2.5Z" transform="translate(-717.02 -390.69)"/><path d="M888.83,409.65a10.43,10.43,0,0,0,2.21,7.13,6.7,6.7,0,0,0,5.23,2.59,5.72,5.72,0,0,0,3.49-1.1,8.19,8.19,0,0,0,2.49-3.78l.69.44a10.67,10.67,0,0,1-2.72,5.56,7.24,7.24,0,0,1-5.64,2.51,8.24,8.24,0,0,1-6.3-2.86,11,11,0,0,1-2.61-7.7q0-5.24,2.68-8.17a8.77,8.77,0,0,1,6.74-2.93,7.56,7.56,0,0,1,5.64,2.26,8.31,8.31,0,0,1,2.21,6Zm0-1.29h9.45a8.75,8.75,0,0,0-.47-2.76,4.37,4.37,0,0,0-1.66-2,4.14,4.14,0,0,0-2.31-.72,4.61,4.61,0,0,0-3.31,1.44A6.23,6.23,0,0,0,888.83,408.36Z" transform="translate(-717.02 -390.69)"/><path d="M923,401.36V406c1.7-3.06,3.46-4.59,5.25-4.59a2.84,2.84,0,0,1,2,.75,2.28,2.28,0,0,1,.8,1.73,2,2,0,0,1-.58,1.47,1.83,1.83,0,0,1-1.38.6,3,3,0,0,1-1.75-.77,2.89,2.89,0,0,0-1.43-.77,1.31,1.31,0,0,0-.87.45,10.6,10.6,0,0,0-2.07,3v9.78a6.08,6.08,0,0,0,.42,2.56,2.24,2.24,0,0,0,1,1,4.49,4.49,0,0,0,2.12.4v.81H916.15v-.81a4.33,4.33,0,0,0,2.32-.49,1.88,1.88,0,0,0,.78-1.13,11.88,11.88,0,0,0,.11-2.16v-7.91a31.78,31.78,0,0,0-.15-4.25,1.64,1.64,0,0,0-.53-1,1.48,1.48,0,0,0-1-.31,4.46,4.46,0,0,0-1.56.33l-.22-.8,6.17-2.5Z" transform="translate(-717.02 -390.69)"/><path d="M950.16,402v12.37a32,32,0,0,0,.16,4.34,1.93,1.93,0,0,0,.54,1.1,1.26,1.26,0,0,0,.85.31,3.78,3.78,0,0,0,1.56-.38l.32.78L947.48,423h-1v-4.32a18.62,18.62,0,0,1-4,3.59,6.14,6.14,0,0,1-2.92.73,4.67,4.67,0,0,1-3-1,5.14,5.14,0,0,1-1.75-2.55,15.67,15.67,0,0,1-.49-4.41v-9.12a4.45,4.45,0,0,0-.31-2,2,2,0,0,0-.92-.86,5.36,5.36,0,0,0-2.22-.28V402H938v13.67c0,1.9.33,3.14,1,3.74a3.5,3.5,0,0,0,2.4.89,5,5,0,0,0,2.17-.6,11.86,11.86,0,0,0,2.89-2.3V405.8a3.24,3.24,0,0,0-.64-2.35,4.09,4.09,0,0,0-2.64-.66V402Z" transform="translate(-717.02 -390.69)"/><path d="M960.67,405.49q3-4.12,6.4-4.13a7.09,7.09,0,0,1,5.48,2.69,10.8,10.8,0,0,1,2.34,7.34,11.32,11.32,0,0,1-3.61,8.76,10,10,0,0,1-6.91,2.85,10.66,10.66,0,0,1-3.62-.65,16.53,16.53,0,0,1-3.75-1.93V399.27a30.54,30.54,0,0,0-.17-4.28,1.91,1.91,0,0,0-.52-1.09,1.41,1.41,0,0,0-.9-.29,4.79,4.79,0,0,0-1.56.35l-.31-.77,6.13-2.5h1Zm0,1.42v12.21a8.52,8.52,0,0,0,2.35,1.69,5.94,5.94,0,0,0,2.49.56,4.9,4.9,0,0,0,3.78-2.22c1.16-1.49,1.75-3.65,1.75-6.49a9.26,9.26,0,0,0-1.75-6,4.86,4.86,0,0,0-6.34-1.5A10.19,10.19,0,0,0,960.67,406.91Z" transform="translate(-717.02 -390.69)"/><path d="M983.49,405.49q3-4.12,6.4-4.13a7.09,7.09,0,0,1,5.48,2.69,10.8,10.8,0,0,1,2.34,7.34,11.32,11.32,0,0,1-3.61,8.76,10,10,0,0,1-6.91,2.85,10.66,10.66,0,0,1-3.62-.65,16.33,16.33,0,0,1-3.75-1.93V399.27a30.54,30.54,0,0,0-.17-4.28,1.85,1.85,0,0,0-.53-1.09,1.36,1.36,0,0,0-.89-.29,4.79,4.79,0,0,0-1.56.35l-.31-.77,6.13-2.5h1Zm0,1.42v12.21a8.52,8.52,0,0,0,2.35,1.69,5.94,5.94,0,0,0,2.49.56,4.87,4.87,0,0,0,3.77-2.22q1.75-2.23,1.75-6.49a9.2,9.2,0,0,0-1.75-6,5.09,5.09,0,0,0-4-2.1,5.21,5.21,0,0,0-2.37.6A10.41,10.41,0,0,0,983.49,406.91Z" transform="translate(-717.02 -390.69)"/><path d="M1007.76,401.36v16.4a7.47,7.47,0,0,0,.28,2.56,2,2,0,0,0,.82.94,4.42,4.42,0,0,0,2,.31v.81h-9.92v-.81a4.74,4.74,0,0,0,2-.28,2.05,2.05,0,0,0,.81-1,7.26,7.26,0,0,0,.3-2.57V409.9a28.24,28.24,0,0,0-.2-4.3,1.76,1.76,0,0,0-.49-1,1.36,1.36,0,0,0-.91-.28,4.49,4.49,0,0,0-1.52.33l-.31-.8,6.15-2.5Zm-1.85-10.67a2.25,2.25,0,0,1,2.25,2.25,2.19,2.19,0,0,1-.66,1.6,2.14,2.14,0,0,1-1.59.67,2.26,2.26,0,1,1,0-4.52Z" transform="translate(-717.02 -390.69)"/><path d="M1019.35,405.69q3.58-4.33,6.84-4.33a4.88,4.88,0,0,1,2.87.84A5.64,5.64,0,0,1,1031,405a12.64,12.64,0,0,1,.49,4.1v8.71a7.28,7.28,0,0,0,.31,2.63,1.8,1.8,0,0,0,.79.87,4.5,4.5,0,0,0,2,.31v.81h-10.1v-.81h.43a3.39,3.39,0,0,0,2-.43,2.29,2.29,0,0,0,.79-1.28,12.9,12.9,0,0,0,.09-2.1v-8.35a8.55,8.55,0,0,0-.72-4.05,2.6,2.6,0,0,0-2.44-1.26q-2.66,0-5.28,2.9v10.76a7.88,7.88,0,0,0,.24,2.57,2.08,2.08,0,0,0,.86.94,5.31,5.31,0,0,0,2.22.3v.81h-10.1v-.81h.45a2.37,2.37,0,0,0,2.1-.79,5.68,5.68,0,0,0,.55-3v-7.57a33,33,0,0,0-.17-4.48,1.88,1.88,0,0,0-.51-1.09,1.35,1.35,0,0,0-.92-.29,4.35,4.35,0,0,0-1.5.33l-.33-.8,6.15-2.5h1Z" transform="translate(-717.02 -390.69)"/><path d="M1041.67,414.93a6.7,6.7,0,0,1-3.87-6.17,7,7,0,0,1,2.28-5.21,8.1,8.1,0,0,1,5.85-2.19,8.92,8.92,0,0,1,5.06,1.43h4.32a5.39,5.39,0,0,1,1.12.06.37.37,0,0,1,.22.18,1.41,1.41,0,0,1,.13.72,1.91,1.91,0,0,1-.11.8.49.49,0,0,1-.23.18,5.52,5.52,0,0,1-1.13.06h-2.65a6.51,6.51,0,0,1,1.25,4.11,6.43,6.43,0,0,1-2.19,4.88,8.25,8.25,0,0,1-5.86,2,11.59,11.59,0,0,1-3.09-.44,5.75,5.75,0,0,0-1.33,1.48,2.33,2.33,0,0,0-.34,1.08,1.06,1.06,0,0,0,.36.74,2.86,2.86,0,0,0,1.44.51q.63.09,3.12.15c3.06.08,5,.18,6,.32a5.57,5.57,0,0,1,3.31,1.53,4.24,4.24,0,0,1,1.24,3.08,6.42,6.42,0,0,1-2.37,4.72,12.72,12.72,0,0,1-9.07,3.26,13,13,0,0,1-7.26-1.94c-1.11-.75-1.67-1.52-1.67-2.32a2.6,2.6,0,0,1,.24-1.07,13.25,13.25,0,0,1,1.56-2.29c.11-.14.86-.94,2.28-2.41a6.73,6.73,0,0,1-1.64-1.24,1.8,1.8,0,0,1-.48-1.23,3.7,3.7,0,0,1,.63-1.83A14.82,14.82,0,0,1,1041.67,414.93Zm-.22,7.45a10.88,10.88,0,0,0-1.58,2.11,3.83,3.83,0,0,0-.54,1.81,2.27,2.27,0,0,0,1.3,1.87,12.3,12.3,0,0,0,6.44,1.38q4,0,5.91-1.41a3.91,3.91,0,0,0,1.91-3,1.69,1.69,0,0,0-1.14-1.65,14.77,14.77,0,0,0-4.59-.58A74.54,74.54,0,0,1,1041.45,422.38Zm4.1-19.95a3.46,3.46,0,0,0-2.76,1.32,6.13,6.13,0,0,0-1.12,4,8.67,8.67,0,0,0,1.52,5.46,3.58,3.58,0,0,0,2.94,1.47,3.51,3.51,0,0,0,2.79-1.27,6.08,6.08,0,0,0,1.09-4,8.91,8.91,0,0,0-1.54-5.55A3.53,3.53,0,0,0,1045.55,402.43Z" transform="translate(-717.02 -390.69)"/><path d="M1076.37,395.26V402h4.77v1.56h-4.77v13.24a4.46,4.46,0,0,0,.57,2.68,1.8,1.8,0,0,0,1.46.69,2.57,2.57,0,0,0,1.42-.46,2.88,2.88,0,0,0,1.07-1.35h.87a7,7,0,0,1-2.2,3.29,4.78,4.78,0,0,1-2.94,1.1,3.93,3.93,0,0,1-2-.57,3.46,3.46,0,0,1-1.45-1.62,8.62,8.62,0,0,1-.47-3.27V403.52h-3.23v-.73a8.44,8.44,0,0,0,2.51-1.66,13.39,13.39,0,0,0,2.28-2.78,24.67,24.67,0,0,0,1.43-3.09Z" transform="translate(-717.02 -390.69)"/><path d="M1089.12,390.69v14.93a17.12,17.12,0,0,1,3.92-3.49,6.14,6.14,0,0,1,2.9-.77,4.75,4.75,0,0,1,3,1,5.66,5.66,0,0,1,1.85,3,21.46,21.46,0,0,1,.42,5.21v7.22a7.49,7.49,0,0,0,.32,2.66,1.79,1.79,0,0,0,.75.84,4.27,4.27,0,0,0,2,.31v.81h-10v-.81h.47a3.33,3.33,0,0,0,2-.43,2.34,2.34,0,0,0,.78-1.28,18.61,18.61,0,0,0,.07-2.1v-7.22a17.34,17.34,0,0,0-.35-4.39,3,3,0,0,0-1.1-1.57,3.15,3.15,0,0,0-1.83-.52,5.06,5.06,0,0,0-2.27.58,11,11,0,0,0-2.83,2.34v10.78a8.65,8.65,0,0,0,.23,2.61,2,2,0,0,0,.87.86,5,5,0,0,0,2.2.34v.81H1082.3v-.81a4.57,4.57,0,0,0,2.14-.42,1.62,1.62,0,0,0,.71-.85,7.59,7.59,0,0,0,.27-2.54V399.29a30.81,30.81,0,0,0-.17-4.3,1.91,1.91,0,0,0-.51-1.09,1.42,1.42,0,0,0-.93-.29,5.66,5.66,0,0,0-1.51.35l-.31-.77,6.1-2.5Z" transform="translate(-717.02 -390.69)"/><path d="M1109.37,409.65a10.48,10.48,0,0,0,2.21,7.13,6.7,6.7,0,0,0,5.24,2.59,5.71,5.71,0,0,0,3.48-1.1,8.19,8.19,0,0,0,2.49-3.78l.69.44a10.6,10.6,0,0,1-2.72,5.56,7.24,7.24,0,0,1-5.64,2.51,8.21,8.21,0,0,1-6.29-2.86,11,11,0,0,1-2.62-7.7q0-5.24,2.68-8.17a8.77,8.77,0,0,1,6.74-2.93,7.56,7.56,0,0,1,5.64,2.26,8.31,8.31,0,0,1,2.21,6Zm0-1.29h9.45a8.47,8.47,0,0,0-.47-2.76,4.37,4.37,0,0,0-1.66-2,4.13,4.13,0,0,0-2.3-.72,4.58,4.58,0,0,0-3.31,1.44A6.24,6.24,0,0,0,1109.37,408.36Z" transform="translate(-717.02 -390.69)"/><path d="M1133.24,401.36v16.4a7.47,7.47,0,0,0,.28,2.56,2,2,0,0,0,.82.94,4.42,4.42,0,0,0,2,.31v.81h-9.92v-.81a4.66,4.66,0,0,0,2-.28,2,2,0,0,0,.82-1,7.26,7.26,0,0,0,.3-2.57V409.9a28.24,28.24,0,0,0-.2-4.3,1.76,1.76,0,0,0-.49-1,1.37,1.37,0,0,0-.92-.28,4.49,4.49,0,0,0-1.51.33l-.31-.8,6.15-2.5Zm-1.85-10.67a2.25,2.25,0,0,1,2.25,2.25,2.19,2.19,0,0,1-.66,1.6,2.14,2.14,0,0,1-1.59.67,2.27,2.27,0,0,1-2.27-2.27,2.16,2.16,0,0,1,.65-1.59A2.2,2.2,0,0,1,1131.39,390.69Z" transform="translate(-717.02 -390.69)"/><path d="M1144.85,401.36V406q2.57-4.59,5.26-4.59a2.88,2.88,0,0,1,2,.75,2.31,2.31,0,0,1,.8,1.73,2.06,2.06,0,0,1-.58,1.47,1.86,1.86,0,0,1-1.38.6,3,3,0,0,1-1.75-.77,2.94,2.94,0,0,0-1.44-.77,1.31,1.31,0,0,0-.87.45,10.6,10.6,0,0,0-2.07,3v9.78a6.08,6.08,0,0,0,.42,2.56,2.27,2.27,0,0,0,1,1,4.44,4.44,0,0,0,2.11.4v.81H1138v-.81a4.31,4.31,0,0,0,2.32-.49,1.88,1.88,0,0,0,.78-1.13,11.88,11.88,0,0,0,.11-2.16v-7.91a34.77,34.77,0,0,0-.14-4.25,1.7,1.7,0,0,0-.54-1,1.48,1.48,0,0,0-1-.31,4.46,4.46,0,0,0-1.56.33l-.22-.8,6.17-2.5Z" transform="translate(-717.02 -390.69)"/><path d="M1171.43,405.69q3.58-4.33,6.84-4.33a4.89,4.89,0,0,1,2.88.84,5.57,5.57,0,0,1,1.91,2.75,12.64,12.64,0,0,1,.49,4.1v8.71a7.22,7.22,0,0,0,.32,2.63,1.76,1.76,0,0,0,.79.87,4.42,4.42,0,0,0,2,.31v.81h-10.09v-.81h.42a3.42,3.42,0,0,0,2-.43,2.29,2.29,0,0,0,.79-1.28,12.9,12.9,0,0,0,.09-2.1v-8.35a8.41,8.41,0,0,0-.73-4.05,2.58,2.58,0,0,0-2.44-1.26q-2.64,0-5.28,2.9v10.76a7.49,7.49,0,0,0,.25,2.57,2,2,0,0,0,.86.94,5.29,5.29,0,0,0,2.21.3v.81h-10.09v-.81h.44a2.39,2.39,0,0,0,2.11-.79,5.78,5.78,0,0,0,.55-3v-7.57a33,33,0,0,0-.17-4.48,1.88,1.88,0,0,0-.51-1.09,1.36,1.36,0,0,0-.93-.29,4.35,4.35,0,0,0-1.49.33l-.34-.8,6.15-2.5h1Z" transform="translate(-717.02 -390.69)"/><path d="M1191.73,409.65a10.48,10.48,0,0,0,2.21,7.13,6.7,6.7,0,0,0,5.24,2.59,5.71,5.71,0,0,0,3.48-1.1,8.19,8.19,0,0,0,2.49-3.78l.69.44a10.6,10.6,0,0,1-2.72,5.56,7.24,7.24,0,0,1-5.64,2.51,8.21,8.21,0,0,1-6.29-2.86,11,11,0,0,1-2.62-7.7q0-5.24,2.68-8.17a8.78,8.78,0,0,1,6.75-2.93,7.56,7.56,0,0,1,5.63,2.26,8.31,8.31,0,0,1,2.21,6Zm0-1.29h9.45a8.47,8.47,0,0,0-.47-2.76,4.37,4.37,0,0,0-1.66-2,4.13,4.13,0,0,0-2.3-.72,4.58,4.58,0,0,0-3.31,1.44A6.24,6.24,0,0,0,1191.73,408.36Z" transform="translate(-717.02 -390.69)"/><path d="M1225.89,414.62a11,11,0,0,1-3.23,6.21,7.75,7.75,0,0,1-5.32,2.17,7.85,7.85,0,0,1-6.06-2.92,11.42,11.42,0,0,1-2.59-7.89,10.92,10.92,0,0,1,2.86-7.82,9.18,9.18,0,0,1,6.88-3,7.53,7.53,0,0,1,5,1.6,4.39,4.39,0,0,1,1.93,3.31,1.83,1.83,0,0,1-.54,1.37,2.12,2.12,0,0,1-1.53.52,2.35,2.35,0,0,1-2-.85,3.5,3.5,0,0,1-.5-1.78,2.9,2.9,0,0,0-.91-2,3.24,3.24,0,0,0-2.16-.66,4.4,4.4,0,0,0-3.58,1.65,8.72,8.72,0,0,0-1.81,5.77,11.76,11.76,0,0,0,1.79,6.45,5.53,5.53,0,0,0,4.85,2.79,5.82,5.82,0,0,0,3.92-1.49,10.07,10.07,0,0,0,2.39-3.72Z" transform="translate(-717.02 -390.69)"/><path d="M1234.85,390.69V411l5.19-4.72a17.31,17.31,0,0,0,1.92-1.92.94.94,0,0,0-.19-1.3,2,2,0,0,0-1.21-.37V402h8.87v.72a8.49,8.49,0,0,0-3,.55,10.25,10.25,0,0,0-2.66,1.83l-5.24,4.84,5.24,6.62q2.19,2.73,2.94,3.47a6.19,6.19,0,0,0,1.87,1.36,5.86,5.86,0,0,0,1.94.22v.81h-9.91v-.81a2.08,2.08,0,0,0,1.14-.25.8.8,0,0,0,.3-.66,3.39,3.39,0,0,0-.89-1.65l-6.26-8v6.78a7.51,7.51,0,0,0,.28,2.6,1.81,1.81,0,0,0,.79.9,6.14,6.14,0,0,0,2.23.28v.81h-10.38v-.81a5.67,5.67,0,0,0,2.34-.37,1.64,1.64,0,0,0,.71-.76,6.85,6.85,0,0,0,.33-2.54V399.31A34.53,34.53,0,0,0,1231,395a1.88,1.88,0,0,0-.52-1.09,1.39,1.39,0,0,0-.93-.3,4.28,4.28,0,0,0-1.41.37l-.37-.77,6.06-2.5Z" transform="translate(-717.02 -390.69)"/><path d="M1252.66,430v-1a7.28,7.28,0,0,0,3.55-2.36,5.33,5.33,0,0,0,1.26-3.37,1.24,1.24,0,0,0-.2-.71.42.42,0,0,0-.31-.21,3.19,3.19,0,0,0-1.07.45,1.93,1.93,0,0,1-.85.2,2.32,2.32,0,0,1-1.74-.65,2.4,2.4,0,0,1-.64-1.78,2.45,2.45,0,0,1,.83-1.87,2.89,2.89,0,0,1,2-.78,3.47,3.47,0,0,1,2.62,1.28,4.94,4.94,0,0,1,1.15,3.4,6.64,6.64,0,0,1-1.6,4.27A10.56,10.56,0,0,1,1252.66,430Z" transform="translate(-717.02 -390.69)"/><path d="M724.08,450v6.71h4.77v1.56h-4.77v13.24a4.42,4.42,0,0,0,.57,2.67,1.81,1.81,0,0,0,1.46.69,2.53,2.53,0,0,0,1.43-.46,2.9,2.9,0,0,0,1.07-1.34h.87a7,7,0,0,1-2.21,3.28,4.74,4.74,0,0,1-2.94,1.11,4,4,0,0,1-2-.57,3.42,3.42,0,0,1-1.44-1.63,8.34,8.34,0,0,1-.47-3.26V458.29h-3.23v-.74a8.34,8.34,0,0,0,2.5-1.66,13.06,13.06,0,0,0,2.29-2.77,23.9,23.9,0,0,0,1.42-3.1Z" transform="translate(-717.02 -390.69)"/><path d="M736.83,445.45v14.93a17.23,17.23,0,0,1,3.92-3.48,6.06,6.06,0,0,1,2.9-.77,4.78,4.78,0,0,1,3,1,5.73,5.73,0,0,1,1.85,3,21.55,21.55,0,0,1,.42,5.22v7.22a7.49,7.49,0,0,0,.31,2.65,1.74,1.74,0,0,0,.76.85,4.25,4.25,0,0,0,2,.31v.8h-10v-.8h.47a3.41,3.41,0,0,0,2-.43,2.27,2.27,0,0,0,.78-1.29,16,16,0,0,0,.07-2.09v-7.22a17.45,17.45,0,0,0-.34-4.39,3,3,0,0,0-1.11-1.57,3.11,3.11,0,0,0-1.83-.53,5.27,5.27,0,0,0-2.27.58,11,11,0,0,0-2.83,2.34v10.79a8.24,8.24,0,0,0,.24,2.61,1.86,1.86,0,0,0,.86.85,4.86,4.86,0,0,0,2.2.35v.8H730v-.8a4.54,4.54,0,0,0,2.14-.42,1.59,1.59,0,0,0,.72-.85,8,8,0,0,0,.26-2.54V454.06a31.42,31.42,0,0,0-.16-4.3,2,2,0,0,0-.52-1.1,1.41,1.41,0,0,0-.92-.29,5.44,5.44,0,0,0-1.52.36l-.31-.78,6.11-2.5Z" transform="translate(-717.02 -390.69)"/><path d="M757.09,464.42a10.48,10.48,0,0,0,2.2,7.13,6.75,6.75,0,0,0,5.24,2.58A5.65,5.65,0,0,0,768,473a8.08,8.08,0,0,0,2.48-3.78l.69.45a10.61,10.61,0,0,1-2.71,5.56,7.28,7.28,0,0,1-5.64,2.51,8.25,8.25,0,0,1-6.3-2.87,11,11,0,0,1-2.62-7.7q0-5.24,2.69-8.16a8.74,8.74,0,0,1,6.74-2.93,7.53,7.53,0,0,1,5.64,2.26,8.29,8.29,0,0,1,2.2,6.05Zm0-1.29h9.45a8.89,8.89,0,0,0-.47-2.77,4.48,4.48,0,0,0-1.66-2,4.25,4.25,0,0,0-2.31-.71,4.61,4.61,0,0,0-3.31,1.44A6.21,6.21,0,0,0,757.09,463.13Z" transform="translate(-717.02 -390.69)"/><path d="M772.75,456.73h9.52v.82h-.47a2.22,2.22,0,0,0-1.5.44,1.36,1.36,0,0,0-.51,1.08,6.18,6.18,0,0,0,.74,2.41l5,10.29,4.57-11.27a4.74,4.74,0,0,0,.38-1.81,1,1,0,0,0-.16-.6,1.22,1.22,0,0,0-.56-.39,4,4,0,0,0-1.33-.15v-.82H795v.82a3.11,3.11,0,0,0-1.27.36,3.57,3.57,0,0,0-1,1,12.66,12.66,0,0,0-.76,1.72L783.72,481a10.64,10.64,0,0,1-3.16,4.48,6.18,6.18,0,0,1-3.75,1.51,3.08,3.08,0,0,1-2.16-.76,2.25,2.25,0,0,1-.85-1.73,2,2,0,0,1,.61-1.51,2.38,2.38,0,0,1,1.69-.57,6.17,6.17,0,0,1,2,.49,4.61,4.61,0,0,0,1.12.34,2.34,2.34,0,0,0,1.46-.69,7.42,7.42,0,0,0,1.59-2.68l1.45-3.54-7.33-15.4a12.91,12.91,0,0,0-1.07-1.71,5.3,5.3,0,0,0-.92-1.05,5,5,0,0,0-1.65-.63Z" transform="translate(-717.02 -390.69)"/><path d="M819.71,474.2a33.22,33.22,0,0,1-4,2.81,6.05,6.05,0,0,1-2.56.56,4.62,4.62,0,0,1-3.49-1.45,5.35,5.35,0,0,1-1.37-3.81,4.83,4.83,0,0,1,.67-2.59,8.89,8.89,0,0,1,3.17-2.85,49,49,0,0,1,7.53-3.25v-.81c0-2-.33-3.43-1-4.19a3.53,3.53,0,0,0-2.82-1.13,3.14,3.14,0,0,0-2.23.76,2.25,2.25,0,0,0-.85,1.73l0,1.3a2.22,2.22,0,0,1-.53,1.58,1.79,1.79,0,0,1-1.37.56,1.76,1.76,0,0,1-1.35-.58,2.29,2.29,0,0,1-.52-1.59,4.56,4.56,0,0,1,2-3.52,8.47,8.47,0,0,1,5.51-1.6A9.52,9.52,0,0,1,821,457,4.2,4.2,0,0,1,823,459.2a12.16,12.16,0,0,1,.4,3.93v6.93a33,33,0,0,0,.11,3.57,1.54,1.54,0,0,0,.37.88.88.88,0,0,0,.59.23,1.28,1.28,0,0,0,.63-.16,14,14,0,0,0,1.8-1.63v1.25q-2.49,3.35-4.77,3.34a2.18,2.18,0,0,1-1.74-.75A4.09,4.09,0,0,1,819.71,474.2Zm0-1.45V465a43.43,43.43,0,0,0-4.35,1.89,7.59,7.59,0,0,0-2.52,2.05,4,4,0,0,0-.76,2.34,3.8,3.8,0,0,0,1,2.66,2.9,2.9,0,0,0,2.21,1.06C816.38,475,817.86,474.24,819.71,472.75Z" transform="translate(-717.02 -390.69)"/><path d="M834.37,456.13v4.59q2.57-4.59,5.26-4.59a2.84,2.84,0,0,1,2,.75,2.27,2.27,0,0,1,.81,1.72,2.06,2.06,0,0,1-.58,1.47,1.86,1.86,0,0,1-1.38.6,2.93,2.93,0,0,1-1.75-.76,2.86,2.86,0,0,0-1.44-.77,1.34,1.34,0,0,0-.87.44,10.6,10.6,0,0,0-2.07,3v9.78a6.14,6.14,0,0,0,.42,2.57,2.32,2.32,0,0,0,1,1,4.44,4.44,0,0,0,2.11.4v.8H827.48v-.8a4.33,4.33,0,0,0,2.32-.49,1.93,1.93,0,0,0,.78-1.14,11.88,11.88,0,0,0,.11-2.16v-7.91a34.56,34.56,0,0,0-.14-4.24,1.69,1.69,0,0,0-.54-1,1.54,1.54,0,0,0-1-.31,4.28,4.28,0,0,0-1.56.34l-.22-.81,6.17-2.49Z" transform="translate(-717.02 -390.69)"/><path d="M847,464.42a10.48,10.48,0,0,0,2.2,7.13,6.74,6.74,0,0,0,5.24,2.58A5.65,5.65,0,0,0,858,473a8.15,8.15,0,0,0,2.48-3.78l.69.45a10.63,10.63,0,0,1-2.72,5.56,7.27,7.27,0,0,1-5.64,2.51,8.23,8.23,0,0,1-6.29-2.87,10.94,10.94,0,0,1-2.62-7.7q0-5.24,2.69-8.16a8.72,8.72,0,0,1,6.74-2.93,7.52,7.52,0,0,1,5.63,2.26,8.25,8.25,0,0,1,2.21,6.05Zm0-1.29h9.44a9,9,0,0,0-.46-2.77,4.55,4.55,0,0,0-1.66-2,4.25,4.25,0,0,0-2.31-.71,4.59,4.59,0,0,0-3.31,1.44A6.21,6.21,0,0,0,847,463.13Z" transform="translate(-717.02 -390.69)"/><path d="M888.45,456.13v6.95h-.73a9.07,9.07,0,0,0-2.18-4.46,4.91,4.91,0,0,0-3.37-1.18,3.73,3.73,0,0,0-2.52.83,2.39,2.39,0,0,0-1,1.82,3.32,3.32,0,0,0,.71,2.14,7.9,7.9,0,0,0,2.81,1.94l3.25,1.58c3,1.48,4.53,3.41,4.53,5.82a5.48,5.48,0,0,1-2.11,4.49,7.27,7.27,0,0,1-4.71,1.71,16.49,16.49,0,0,1-4.28-.67,4.34,4.34,0,0,0-1.2-.23.89.89,0,0,0-.8.58h-.74v-7.28h.74a8.29,8.29,0,0,0,2.38,4.7,5.77,5.77,0,0,0,3.94,1.58,3.54,3.54,0,0,0,2.51-.9,2.85,2.85,0,0,0,1-2.17,3.46,3.46,0,0,0-1.08-2.59,18.9,18.9,0,0,0-4.31-2.65,12.8,12.8,0,0,1-4.24-2.9,5,5,0,0,1-1-3.21,5.66,5.66,0,0,1,1.73-4.21,6.1,6.1,0,0,1,4.47-1.69,10.48,10.48,0,0,1,2.91.51,7.31,7.31,0,0,0,1.52.34.93.93,0,0,0,.56-.16,2.25,2.25,0,0,0,.47-.69Z" transform="translate(-717.02 -390.69)"/><path d="M899,445.45v14.93a17,17,0,0,1,3.93-3.48,6,6,0,0,1,2.89-.77,4.76,4.76,0,0,1,3,1,5.67,5.67,0,0,1,1.85,3,21.55,21.55,0,0,1,.42,5.22v7.22a7.49,7.49,0,0,0,.31,2.65,1.74,1.74,0,0,0,.76.85,4.25,4.25,0,0,0,2,.31v.8h-10v-.8h.47a3.47,3.47,0,0,0,2-.43,2.33,2.33,0,0,0,.78-1.29,19.45,19.45,0,0,0,.06-2.09v-7.22a17.45,17.45,0,0,0-.34-4.39,2.94,2.94,0,0,0-1.11-1.57,3.1,3.1,0,0,0-1.82-.53,5.27,5.27,0,0,0-2.28.58,11.13,11.13,0,0,0-2.83,2.34v10.79a8.24,8.24,0,0,0,.24,2.61,1.84,1.84,0,0,0,.87.85,4.78,4.78,0,0,0,2.19.35v.8H892.19v-.8a4.54,4.54,0,0,0,2.14-.42,1.59,1.59,0,0,0,.72-.85,7.71,7.71,0,0,0,.26-2.54V454.06a31.42,31.42,0,0,0-.16-4.3,2,2,0,0,0-.52-1.1,1.39,1.39,0,0,0-.92-.29,5.44,5.44,0,0,0-1.52.36l-.31-.78,6.11-2.5Z" transform="translate(-717.02 -390.69)"/><path d="M925.82,456.13a9,9,0,0,1,7.44,3.52,10.81,10.81,0,0,1,2.39,6.91,13,13,0,0,1-1.32,5.55,9.35,9.35,0,0,1-8.75,5.66,8.67,8.67,0,0,1-7.34-3.68,11.39,11.39,0,0,1-2.29-6.95,12.32,12.32,0,0,1,1.39-5.59,9.59,9.59,0,0,1,3.67-4.1A9.42,9.42,0,0,1,925.82,456.13Zm-.69,1.45a4.59,4.59,0,0,0-2.37.7,4.91,4.91,0,0,0-1.93,2.46,11.86,11.86,0,0,0-.74,4.52,15.64,15.64,0,0,0,1.78,7.69c1.18,2.16,2.73,3.23,4.66,3.23a4.35,4.35,0,0,0,3.57-1.78c.94-1.19,1.4-3.23,1.4-6.13q0-5.43-2.34-8.55A4.81,4.81,0,0,0,925.13,457.58Z" transform="translate(-717.02 -390.69)"/><path d="M937.52,456.73h8.56v.82a2.7,2.7,0,0,0-1.55.43,1.21,1.21,0,0,0-.37,1,4.88,4.88,0,0,0,.38,1.67l4.37,11.74,4.39-9.56-1.16-3a3.65,3.65,0,0,0-1.41-1.85,4.23,4.23,0,0,0-1.82-.38v-.82h9.71v.82a4.18,4.18,0,0,0-2.27.58,1.37,1.37,0,0,0-.45,1.14,2.5,2.5,0,0,0,.18.91l4.64,11.73,4.3-11.3a5.78,5.78,0,0,0,.44-1.92,1,1,0,0,0-.43-.76,3.22,3.22,0,0,0-1.7-.38v-.82h6.43v.82a3.69,3.69,0,0,0-2.85,2.63l-6.82,17.59h-.91l-5.1-13-6,13h-.83l-6.55-17.16a6.07,6.07,0,0,0-1.27-2.2,4.32,4.32,0,0,0-2-.86Z" transform="translate(-717.02 -390.69)"/><path d="M978.66,456.13v16.4a7.7,7.7,0,0,0,.27,2.55,2,2,0,0,0,.83.95,4.37,4.37,0,0,0,2,.31v.8h-9.91v-.8a4.64,4.64,0,0,0,2-.29,2,2,0,0,0,.82-1,7.19,7.19,0,0,0,.3-2.56v-7.87a28.43,28.43,0,0,0-.2-4.3,1.83,1.83,0,0,0-.49-1,1.44,1.44,0,0,0-.92-.28,4.3,4.3,0,0,0-1.51.34l-.31-.81,6.15-2.49Zm-1.85-10.68a2.25,2.25,0,0,1,2.25,2.26,2.21,2.21,0,0,1-.66,1.6,2.14,2.14,0,0,1-1.59.67,2.18,2.18,0,0,1-1.61-.67,2.22,2.22,0,0,1-.67-1.6,2.17,2.17,0,0,1,.66-1.6A2.2,2.2,0,0,1,976.81,445.45Z" transform="translate(-717.02 -390.69)"/><path d="M990.24,460.45q3.6-4.32,6.84-4.32a5,5,0,0,1,2.88.83,5.67,5.67,0,0,1,1.92,2.76,12.89,12.89,0,0,1,.49,4.1v8.71a7.32,7.32,0,0,0,.31,2.63,1.85,1.85,0,0,0,.79.87,4.47,4.47,0,0,0,2,.31v.8h-10.1v-.8h.43a3.47,3.47,0,0,0,2-.43,2.28,2.28,0,0,0,.79-1.29,12.83,12.83,0,0,0,.09-2.09v-8.36a8.53,8.53,0,0,0-.72-4,2.6,2.6,0,0,0-2.44-1.26c-1.77,0-3.53,1-5.29,2.9v10.76a7.7,7.7,0,0,0,.25,2.56,2.05,2.05,0,0,0,.86,1,5.29,5.29,0,0,0,2.21.3v.8H983.47v-.8h.45a2.37,2.37,0,0,0,2.1-.79,5.8,5.8,0,0,0,.55-3V465a33.05,33.05,0,0,0-.17-4.48,1.94,1.94,0,0,0-.51-1.09,1.42,1.42,0,0,0-.93-.29,4.16,4.16,0,0,0-1.49.34l-.33-.81,6.15-2.49h1Z" transform="translate(-717.02 -390.69)"/><path d="M1012.57,469.7a6.7,6.7,0,0,1-3.87-6.17,7,7,0,0,1,2.28-5.22,8.13,8.13,0,0,1,5.85-2.18,8.94,8.94,0,0,1,5.06,1.42h4.32a5.2,5.2,0,0,1,1.11.06.4.4,0,0,1,.23.19,1.35,1.35,0,0,1,.13.71,2,2,0,0,1-.11.8.42.42,0,0,1-.24.18,4.45,4.45,0,0,1-1.12.07h-2.65a6.5,6.5,0,0,1,1.25,4.1,6.42,6.42,0,0,1-2.19,4.88,8.27,8.27,0,0,1-5.86,2,11.34,11.34,0,0,1-3.1-.45,6,6,0,0,0-1.32,1.48,2.43,2.43,0,0,0-.35,1.09,1.05,1.05,0,0,0,.37.73,2.65,2.65,0,0,0,1.44.51c.41.06,1.45.11,3.12.16,3.06.07,5,.18,6,.31a5.61,5.61,0,0,1,3.31,1.54,4.21,4.21,0,0,1,1.23,3.07,6.43,6.43,0,0,1-2.36,4.73A12.73,12.73,0,0,1,1016,487a12.89,12.89,0,0,1-7.26-1.94c-1.12-.74-1.67-1.51-1.67-2.31a2.56,2.56,0,0,1,.24-1.07,12.17,12.17,0,0,1,1.56-2.3c.11-.13.86-.94,2.27-2.41a7.13,7.13,0,0,1-1.63-1.23,1.84,1.84,0,0,1-.48-1.24,3.7,3.7,0,0,1,.63-1.83A14.84,14.84,0,0,1,1012.57,469.7Zm-.22,7.44a10.52,10.52,0,0,0-1.58,2.12,3.76,3.76,0,0,0-.54,1.8,2.26,2.26,0,0,0,1.3,1.88,12.29,12.29,0,0,0,6.43,1.38q4,0,5.92-1.42a3.89,3.89,0,0,0,1.91-3,1.69,1.69,0,0,0-1.14-1.65,15.09,15.09,0,0,0-4.59-.58A71.81,71.81,0,0,1,1012.35,477.14Zm4.1-19.94a3.48,3.48,0,0,0-2.76,1.31,6.11,6.11,0,0,0-1.12,4,8.71,8.71,0,0,0,1.52,5.46,3.58,3.58,0,0,0,2.94,1.47,3.51,3.51,0,0,0,2.78-1.27,6,6,0,0,0,1.1-4,9,9,0,0,0-1.54-5.55A3.53,3.53,0,0,0,1016.45,457.2Z" transform="translate(-717.02 -390.69)"/><path d="M1054.53,456.13v6.95h-.73a9.07,9.07,0,0,0-2.18-4.46,4.89,4.89,0,0,0-3.37-1.18,3.73,3.73,0,0,0-2.52.83,2.39,2.39,0,0,0-1,1.82,3.28,3.28,0,0,0,.72,2.14,7.84,7.84,0,0,0,2.8,1.94l3.26,1.58c3,1.48,4.52,3.41,4.52,5.82a5.48,5.48,0,0,1-2.11,4.49,7.27,7.27,0,0,1-4.71,1.71,16.49,16.49,0,0,1-4.28-.67,4.34,4.34,0,0,0-1.2-.23.89.89,0,0,0-.8.58h-.74v-7.28h.74a8.29,8.29,0,0,0,2.38,4.7,5.77,5.77,0,0,0,4,1.58,3.52,3.52,0,0,0,2.5-.9,2.85,2.85,0,0,0,1-2.17,3.46,3.46,0,0,0-1.08-2.59,18.9,18.9,0,0,0-4.31-2.65,12.62,12.62,0,0,1-4.23-2.9,5,5,0,0,1-1-3.21,5.66,5.66,0,0,1,1.73-4.21,6.1,6.1,0,0,1,4.47-1.69,10.6,10.6,0,0,1,2.92.51,7.13,7.13,0,0,0,1.51.34.91.91,0,0,0,.56-.16,2.25,2.25,0,0,0,.47-.69Z" transform="translate(-717.02 -390.69)"/><path d="M1066.14,456.13v16.4a7.62,7.62,0,0,0,.28,2.55,2,2,0,0,0,.83.95,4.35,4.35,0,0,0,2,.31v.8h-9.92v-.8a4.67,4.67,0,0,0,2-.29,2,2,0,0,0,.81-1,7.19,7.19,0,0,0,.3-2.56v-7.87a27.1,27.1,0,0,0-.2-4.3,1.71,1.71,0,0,0-.49-1,1.39,1.39,0,0,0-.91-.28,4.35,4.35,0,0,0-1.52.34l-.31-.81,6.15-2.49Zm-1.85-10.68a2.17,2.17,0,0,1,1.6.66,2.2,2.2,0,0,1,.65,1.6,2.24,2.24,0,0,1-.65,1.6,2.25,2.25,0,0,1-3.2,0,2.26,2.26,0,0,1,1.6-3.86Z" transform="translate(-717.02 -390.69)"/><path d="M1077.24,469.7a6.68,6.68,0,0,1-2.87-2.55,6.79,6.79,0,0,1-1-3.62,7,7,0,0,1,2.29-5.22,8.13,8.13,0,0,1,5.85-2.18,8.88,8.88,0,0,1,5,1.42h4.33a5.2,5.2,0,0,1,1.11.06.35.35,0,0,1,.22.19,1.33,1.33,0,0,1,.14.71,2,2,0,0,1-.11.8.45.45,0,0,1-.24.18,4.45,4.45,0,0,1-1.12.07h-2.65a6.5,6.5,0,0,1,1.24,4.1,6.41,6.41,0,0,1-2.18,4.88,8.29,8.29,0,0,1-5.86,2,11.34,11.34,0,0,1-3.1-.45,6,6,0,0,0-1.32,1.48,2.43,2.43,0,0,0-.35,1.09,1,1,0,0,0,.37.73,2.62,2.62,0,0,0,1.44.51c.41.06,1.45.11,3.12.16,3.06.07,5,.18,6,.31a5.55,5.55,0,0,1,3.3,1.54,4.18,4.18,0,0,1,1.24,3.07,6.47,6.47,0,0,1-2.36,4.73,12.73,12.73,0,0,1-9.07,3.25,13,13,0,0,1-7.27-1.94c-1.11-.74-1.67-1.51-1.67-2.31a2.43,2.43,0,0,1,.25-1.07,12.17,12.17,0,0,1,1.56-2.3c.1-.13.86-.94,2.27-2.41a7.24,7.24,0,0,1-1.64-1.23,1.84,1.84,0,0,1-.48-1.24,3.73,3.73,0,0,1,.64-1.83A14.56,14.56,0,0,1,1077.24,469.7Zm-.22,7.44a10.52,10.52,0,0,0-1.58,2.12,3.76,3.76,0,0,0-.54,1.8,2.27,2.27,0,0,0,1.29,1.88,12.35,12.35,0,0,0,6.44,1.38q4,0,5.92-1.42a3.88,3.88,0,0,0,1.9-3,1.69,1.69,0,0,0-1.13-1.65,15.09,15.09,0,0,0-4.59-.58A71.42,71.42,0,0,1,1077,477.14Zm4.1-19.94a3.52,3.52,0,0,0-2.77,1.31,6.17,6.17,0,0,0-1.11,4,8.71,8.71,0,0,0,1.52,5.46,3.58,3.58,0,0,0,2.94,1.47,3.52,3.52,0,0,0,2.78-1.27,6,6,0,0,0,1.09-4,9,9,0,0,0-1.53-5.55A3.53,3.53,0,0,0,1081.12,457.2Z" transform="translate(-717.02 -390.69)"/><path d="M1100.55,460.45q3.59-4.32,6.84-4.32a5,5,0,0,1,2.87.83,5.55,5.55,0,0,1,1.92,2.76,12.6,12.6,0,0,1,.49,4.1v8.71a7.56,7.56,0,0,0,.31,2.63,1.9,1.9,0,0,0,.79.87,4.5,4.5,0,0,0,2,.31v.8H1105.7v-.8h.42a3.44,3.44,0,0,0,2-.43,2.3,2.3,0,0,0,.8-1.29,15,15,0,0,0,.08-2.09v-8.36a8.53,8.53,0,0,0-.72-4,2.59,2.59,0,0,0-2.44-1.26c-1.77,0-3.53,1-5.28,2.9v10.76a7.81,7.81,0,0,0,.24,2.56,2.11,2.11,0,0,0,.86,1,5.34,5.34,0,0,0,2.22.3v.8h-10.1v-.8h.45a2.41,2.41,0,0,0,2.11-.79,5.82,5.82,0,0,0,.54-3V465a33.83,33.83,0,0,0-.16-4.48,2,2,0,0,0-.52-1.09,1.41,1.41,0,0,0-.92-.29,4.17,4.17,0,0,0-1.5.34l-.33-.81,6.15-2.49h1Z" transform="translate(-717.02 -390.69)"/><path d="M1130.61,456.13v6.95h-.74a9.07,9.07,0,0,0-2.17-4.46,4.91,4.91,0,0,0-3.37-1.18,3.73,3.73,0,0,0-2.52.83,2.39,2.39,0,0,0-1,1.82,3.32,3.32,0,0,0,.71,2.14,7.9,7.9,0,0,0,2.81,1.94l3.25,1.58c3,1.48,4.53,3.41,4.53,5.82a5.48,5.48,0,0,1-2.11,4.49,7.27,7.27,0,0,1-4.71,1.71,16.43,16.43,0,0,1-4.28-.67,4.34,4.34,0,0,0-1.2-.23.91.91,0,0,0-.81.58h-.73v-7.28h.73a8.29,8.29,0,0,0,2.39,4.7,5.77,5.77,0,0,0,3.94,1.58,3.54,3.54,0,0,0,2.51-.9,2.85,2.85,0,0,0,1-2.17,3.46,3.46,0,0,0-1.08-2.59,18.9,18.9,0,0,0-4.31-2.65,12.8,12.8,0,0,1-4.24-2.9,5,5,0,0,1-1-3.21,5.63,5.63,0,0,1,1.73-4.21,6.1,6.1,0,0,1,4.46-1.69,10.48,10.48,0,0,1,2.92.51,7.31,7.31,0,0,0,1.52.34.93.93,0,0,0,.56-.16,2.1,2.1,0,0,0,.46-.69Z" transform="translate(-717.02 -390.69)"/><path d="M1156.57,456.13a9,9,0,0,1,7.44,3.52,10.81,10.81,0,0,1,2.39,6.91,13,13,0,0,1-1.32,5.55,9.35,9.35,0,0,1-8.75,5.66,8.67,8.67,0,0,1-7.34-3.68,11.39,11.39,0,0,1-2.29-6.95,12.32,12.32,0,0,1,1.39-5.59,9.59,9.59,0,0,1,3.67-4.1A9.42,9.42,0,0,1,1156.57,456.13Zm-.69,1.45a4.59,4.59,0,0,0-2.37.7,4.91,4.91,0,0,0-1.93,2.46,11.86,11.86,0,0,0-.74,4.52,15.64,15.64,0,0,0,1.78,7.69c1.18,2.16,2.73,3.23,4.66,3.23a4.36,4.36,0,0,0,3.57-1.78c.94-1.19,1.4-3.23,1.4-6.13q0-5.43-2.34-8.55A4.81,4.81,0,0,0,1155.88,457.58Z" transform="translate(-717.02 -390.69)"/><path d="M1177.38,458.33v13.42c0,1.9.21,3.1.63,3.61a2.74,2.74,0,0,0,2.2,1h1.85v.8h-12.19v-.8h.92a3,3,0,0,0,1.62-.45,2.3,2.3,0,0,0,1-1.2,10.21,10.21,0,0,0,.28-2.94V458.33h-4v-1.6h4v-1.34a12.17,12.17,0,0,1,1-5.17,8,8,0,0,1,3-3.42,8.19,8.19,0,0,1,4.54-1.3,6.88,6.88,0,0,1,4.3,1.51,2.86,2.86,0,0,1,1.29,2.26,1.75,1.75,0,0,1-.58,1.25,1.69,1.69,0,0,1-1.24.59,2,2,0,0,1-1.09-.36,6.19,6.19,0,0,1-1.39-1.59,5.52,5.52,0,0,0-1.51-1.63,3,3,0,0,0-3.28.12,3,3,0,0,0-1,1.69,31.39,31.39,0,0,0-.32,5.92v1.47h5.26v1.6Z" transform="translate(-717.02 -390.69)"/><path d="M1210.43,474.85a10.52,10.52,0,0,1-2.92,2.24,7.11,7.11,0,0,1-3.07.68,7.62,7.62,0,0,1-5.84-2.8,10.37,10.37,0,0,1-2.5-7.19,13,13,0,0,1,2.76-8,8.56,8.56,0,0,1,7.11-3.64,6.13,6.13,0,0,1,4.46,1.71v-3.76a30.7,30.7,0,0,0-.17-4.3,1.88,1.88,0,0,0-.52-1.1,1.4,1.4,0,0,0-.89-.29,4.66,4.66,0,0,0-1.54.36L1207,448l6.08-2.5h1v23.6a32.42,32.42,0,0,0,.16,4.38,1.86,1.86,0,0,0,.54,1.1,1.27,1.27,0,0,0,.86.32,4.91,4.91,0,0,0,1.6-.38l.25.78-6.06,2.52h-1Zm0-1.56V462.77a7.2,7.2,0,0,0-.8-2.76,4.7,4.7,0,0,0-1.77-1.89,4.36,4.36,0,0,0-2.15-.63,4.53,4.53,0,0,0-3.5,1.76q-2,2.31-2,6.77t2,6.9a5.61,5.61,0,0,0,4.37,2.39A5.42,5.42,0,0,0,1210.43,473.29Z" transform="translate(-717.02 -390.69)"/><path d="M1225.87,456.13v16.4a7.36,7.36,0,0,0,.28,2.55,2,2,0,0,0,.83.95,4.35,4.35,0,0,0,2,.31v.8h-9.92v-.8a4.67,4.67,0,0,0,2-.29,2,2,0,0,0,.81-1,7.19,7.19,0,0,0,.3-2.56v-7.87a27.1,27.1,0,0,0-.2-4.3,1.71,1.71,0,0,0-.49-1,1.39,1.39,0,0,0-.91-.28,4.35,4.35,0,0,0-1.52.34l-.31-.81,6.15-2.49ZM1224,445.45a2.17,2.17,0,0,1,1.6.66,2.2,2.2,0,0,1,.65,1.6,2.24,2.24,0,0,1-.65,1.6,2.25,2.25,0,0,1-3.2,0,2.26,2.26,0,0,1,1.6-3.86Z" transform="translate(-717.02 -390.69)"/><path d="M1244.7,456.13v6.95H1244a9.07,9.07,0,0,0-2.18-4.46,4.89,4.89,0,0,0-3.37-1.18,3.73,3.73,0,0,0-2.52.83,2.39,2.39,0,0,0-1,1.82,3.28,3.28,0,0,0,.72,2.14,7.84,7.84,0,0,0,2.8,1.94l3.26,1.58c3,1.48,4.52,3.41,4.52,5.82a5.48,5.48,0,0,1-2.11,4.49,7.27,7.27,0,0,1-4.71,1.71,16.49,16.49,0,0,1-4.28-.67,4.34,4.34,0,0,0-1.2-.23.89.89,0,0,0-.8.58h-.74v-7.28h.74a8.29,8.29,0,0,0,2.38,4.7,5.77,5.77,0,0,0,4,1.58,3.52,3.52,0,0,0,2.5-.9,2.85,2.85,0,0,0,1-2.17,3.46,3.46,0,0,0-1.08-2.59,18.9,18.9,0,0,0-4.31-2.65,12.62,12.62,0,0,1-4.23-2.9,5,5,0,0,1-1-3.21,5.66,5.66,0,0,1,1.73-4.21,6.1,6.1,0,0,1,4.47-1.69,10.6,10.6,0,0,1,2.92.51,7.13,7.13,0,0,0,1.51.34.91.91,0,0,0,.56-.16,2.25,2.25,0,0,0,.47-.69Z" transform="translate(-717.02 -390.69)"/><path d="M1249.69,465.22h11.52v3.36h-11.52Z" transform="translate(-717.02 -390.69)"/><path d="M724.15,500.22v14.93a17.34,17.34,0,0,1,3.92-3.49,6.17,6.17,0,0,1,2.9-.77,4.78,4.78,0,0,1,3,1,5.66,5.66,0,0,1,1.85,3,21.46,21.46,0,0,1,.42,5.21v7.22a7.55,7.55,0,0,0,.31,2.66,1.76,1.76,0,0,0,.76.84,4.25,4.25,0,0,0,2,.31v.81h-10v-.81h.47a3.33,3.33,0,0,0,2-.43,2.23,2.23,0,0,0,.78-1.28,16.31,16.31,0,0,0,.07-2.1v-7.22a17.5,17.5,0,0,0-.34-4.39,3,3,0,0,0-1.11-1.57,3.11,3.11,0,0,0-1.83-.52,5.13,5.13,0,0,0-2.27.58,10.76,10.76,0,0,0-2.83,2.34v10.78a8.2,8.2,0,0,0,.24,2.61,1.88,1.88,0,0,0,.86.86,5,5,0,0,0,2.2.34v.81H717.33v-.81a4.54,4.54,0,0,0,2.14-.42,1.59,1.59,0,0,0,.72-.85,8,8,0,0,0,.26-2.54V508.82a31.52,31.52,0,0,0-.16-4.3,1.94,1.94,0,0,0-.52-1.09,1.35,1.35,0,0,0-.92-.29,5.71,5.71,0,0,0-1.52.35l-.31-.78,6.11-2.49Z" transform="translate(-717.02 -390.69)"/><path d="M751,510.89a9.06,9.06,0,0,1,7.44,3.52,10.83,10.83,0,0,1,2.39,6.91,13,13,0,0,1-1.32,5.55,9.35,9.35,0,0,1-8.76,5.66,8.64,8.64,0,0,1-7.33-3.68,11.37,11.37,0,0,1-2.29-7,12.31,12.31,0,0,1,1.39-5.58,9.32,9.32,0,0,1,8.48-5.43Zm-.69,1.45a4.69,4.69,0,0,0-2.37.7,4.9,4.9,0,0,0-1.93,2.47,11.82,11.82,0,0,0-.74,4.52,15.8,15.8,0,0,0,1.77,7.69c1.19,2.15,2.74,3.23,4.67,3.23a4.39,4.39,0,0,0,3.57-1.78c.93-1.19,1.4-3.24,1.4-6.13q0-5.44-2.34-8.56A4.81,4.81,0,0,0,750.27,512.34Z" transform="translate(-717.02 -390.69)"/><path d="M769.75,515.22q3.59-4.33,6.84-4.33a4.88,4.88,0,0,1,2.87.84,5.64,5.64,0,0,1,1.92,2.75,12.93,12.93,0,0,1,.49,4.1v8.71a7.28,7.28,0,0,0,.31,2.63,1.85,1.85,0,0,0,.79.87,4.47,4.47,0,0,0,2,.31v.81h-10.1v-.81h.43a3.39,3.39,0,0,0,2-.43,2.29,2.29,0,0,0,.79-1.28,12.9,12.9,0,0,0,.09-2.1v-8.35a8.55,8.55,0,0,0-.72-4.05,2.6,2.6,0,0,0-2.44-1.26q-2.65,0-5.28,2.9v10.76a7.88,7.88,0,0,0,.24,2.57,2,2,0,0,0,.86.94,5.31,5.31,0,0,0,2.22.3v.81H763v-.81h.45a2.37,2.37,0,0,0,2.1-.79,5.68,5.68,0,0,0,.55-3v-7.57a33,33,0,0,0-.17-4.48,1.88,1.88,0,0,0-.51-1.09,1.36,1.36,0,0,0-.93-.29,4.35,4.35,0,0,0-1.49.33l-.33-.8,6.15-2.5h1Z" transform="translate(-717.02 -390.69)"/><path d="M790.05,519.18a10.48,10.48,0,0,0,2.2,7.13,6.72,6.72,0,0,0,5.24,2.59,5.72,5.72,0,0,0,3.49-1.1,8.26,8.26,0,0,0,2.48-3.78l.69.44a10.6,10.6,0,0,1-2.72,5.56,7.27,7.27,0,0,1-5.64,2.51,8.22,8.22,0,0,1-6.29-2.86,11,11,0,0,1-2.62-7.7c0-3.49.9-6.22,2.69-8.17a8.76,8.76,0,0,1,6.74-2.93,7.58,7.58,0,0,1,5.64,2.26,8.3,8.3,0,0,1,2.2,6Zm0-1.29h9.44a8.82,8.82,0,0,0-.46-2.76,4.44,4.44,0,0,0-1.66-2,4.19,4.19,0,0,0-2.31-.72,4.59,4.59,0,0,0-3.31,1.44A6.23,6.23,0,0,0,790.05,517.89Z" transform="translate(-717.02 -390.69)"/><path d="M820.06,510.89v7h-.73a9,9,0,0,0-2.18-4.46,4.86,4.86,0,0,0-3.37-1.18,3.73,3.73,0,0,0-2.52.82,2.39,2.39,0,0,0-1,1.83A3.36,3.36,0,0,0,811,517a8.13,8.13,0,0,0,2.81,1.94l3.26,1.58q4.51,2.21,4.52,5.82a5.49,5.49,0,0,1-2.11,4.49,7.31,7.31,0,0,1-4.71,1.7,16.07,16.07,0,0,1-4.28-.67,4.27,4.27,0,0,0-1.2-.22.88.88,0,0,0-.8.58h-.74v-7.29h.74a8.25,8.25,0,0,0,2.38,4.7,5.74,5.74,0,0,0,4,1.59,3.48,3.48,0,0,0,2.5-.91,2.84,2.84,0,0,0,1-2.17,3.44,3.44,0,0,0-1.08-2.58,18.84,18.84,0,0,0-4.31-2.66,12.81,12.81,0,0,1-4.24-2.89,5.08,5.08,0,0,1-1-3.21,5.66,5.66,0,0,1,1.73-4.21,6.11,6.11,0,0,1,4.47-1.7,10.3,10.3,0,0,1,2.92.52,6.89,6.89,0,0,0,1.51.33.85.85,0,0,0,.56-.16,2.13,2.13,0,0,0,.47-.69Z" transform="translate(-717.02 -390.69)"/><path d="M830.56,504.79v6.7h4.77v1.56h-4.77v13.24a4.48,4.48,0,0,0,.57,2.68,1.79,1.79,0,0,0,1.46.69,2.57,2.57,0,0,0,1.42-.46,2.88,2.88,0,0,0,1.07-1.35H836a7,7,0,0,1-2.21,3.29,4.78,4.78,0,0,1-2.94,1.1,3.93,3.93,0,0,1-2-.57,3.41,3.41,0,0,1-1.45-1.62,8.62,8.62,0,0,1-.47-3.27V513.05h-3.23v-.73a8.57,8.57,0,0,0,2.51-1.66,13.39,13.39,0,0,0,2.28-2.78,24.67,24.67,0,0,0,1.43-3.09Z" transform="translate(-717.02 -390.69)"/><path d="M836.15,511.49h9.52v.83h-.47a2.27,2.27,0,0,0-1.51.43,1.38,1.38,0,0,0-.5,1.08,6.14,6.14,0,0,0,.74,2.41l5,10.3,4.57-11.28a4.71,4.71,0,0,0,.37-1.8,1,1,0,0,0-.15-.61,1.27,1.27,0,0,0-.56-.39,4.47,4.47,0,0,0-1.34-.14v-.83h6.65v.83a3.11,3.11,0,0,0-1.27.36,3.58,3.58,0,0,0-1,1,15.22,15.22,0,0,0-.75,1.71l-8.32,20.37a10.47,10.47,0,0,1-3.15,4.48,6.2,6.2,0,0,1-3.75,1.52,3.13,3.13,0,0,1-2.16-.76,2.28,2.28,0,0,1-.85-1.74,2,2,0,0,1,.61-1.5,2.37,2.37,0,0,1,1.68-.57,6,6,0,0,1,2,.49,4.73,4.73,0,0,0,1.11.33,2.29,2.29,0,0,0,1.46-.69,7.3,7.3,0,0,0,1.6-2.67l1.44-3.55-7.33-15.39a11.94,11.94,0,0,0-1.07-1.72,5,5,0,0,0-.91-1,5.23,5.23,0,0,0-1.65-.62Z" transform="translate(-717.02 -390.69)"/><path d="M858.19,539.51v-1a7.2,7.2,0,0,0,3.55-2.35A5.33,5.33,0,0,0,863,532.8a1.22,1.22,0,0,0-.2-.72.43.43,0,0,0-.31-.2,3.27,3.27,0,0,0-1.07.45,1.93,1.93,0,0,1-.85.2,2.35,2.35,0,0,1-1.73-.65,2.4,2.4,0,0,1-.65-1.78,2.46,2.46,0,0,1,.84-1.87,2.85,2.85,0,0,1,2-.78,3.45,3.45,0,0,1,2.62,1.28,4.9,4.9,0,0,1,1.15,3.4,6.68,6.68,0,0,1-1.59,4.27A10.65,10.65,0,0,1,858.19,539.51Z" transform="translate(-717.02 -390.69)"/><path d="M894.4,529.61a10.19,10.19,0,0,1-2.92,2.24,7.07,7.07,0,0,1-3.07.68,7.59,7.59,0,0,1-5.84-2.8,10.35,10.35,0,0,1-2.5-7.18,13,13,0,0,1,2.77-8,8.53,8.53,0,0,1,7.1-3.64,6.1,6.1,0,0,1,4.46,1.72v-3.77a29.2,29.2,0,0,0-.17-4.3,1.82,1.82,0,0,0-.52-1.09,1.33,1.33,0,0,0-.89-.29,4.86,4.86,0,0,0-1.54.35l-.29-.78,6.09-2.49h1v23.6a30,30,0,0,0,.17,4.38,1.92,1.92,0,0,0,.53,1.1,1.26,1.26,0,0,0,.86.31,4.67,4.67,0,0,0,1.6-.38l.25.78-6.06,2.52h-1Zm0-1.56V517.53a7.2,7.2,0,0,0-.8-2.76,4.67,4.67,0,0,0-1.77-1.88,4.25,4.25,0,0,0-2.15-.64,4.56,4.56,0,0,0-3.5,1.76q-2,2.32-2,6.78t2,6.89a5.62,5.62,0,0,0,4.37,2.4A5.43,5.43,0,0,0,894.4,528.05Z" transform="translate(-717.02 -390.69)"/><path d="M909.84,510.89v16.4a7.73,7.73,0,0,0,.28,2.56,2,2,0,0,0,.83.94,4.37,4.37,0,0,0,2,.31v.81H903v-.81a4.52,4.52,0,0,0,2-.29,2,2,0,0,0,.81-.95,7.26,7.26,0,0,0,.3-2.57v-7.86a26.92,26.92,0,0,0-.2-4.3,1.64,1.64,0,0,0-.49-1,1.34,1.34,0,0,0-.91-.28,4.54,4.54,0,0,0-1.52.33l-.31-.8,6.15-2.5ZM908,500.22a2.17,2.17,0,0,1,1.6.66,2.15,2.15,0,0,1,.66,1.59,2.19,2.19,0,0,1-.66,1.6,2.14,2.14,0,0,1-1.6.67,2.29,2.29,0,0,1-2.27-2.27,2.15,2.15,0,0,1,.66-1.59A2.2,2.2,0,0,1,908,500.22Z" transform="translate(-717.02 -390.69)"/><path d="M928.67,510.89v7h-.73a9.11,9.11,0,0,0-2.17-4.46,4.89,4.89,0,0,0-3.38-1.18,3.73,3.73,0,0,0-2.52.82,2.39,2.39,0,0,0-1,1.83,3.31,3.31,0,0,0,.72,2.14,8,8,0,0,0,2.8,1.94l3.26,1.58q4.51,2.21,4.52,5.82a5.51,5.51,0,0,1-2.1,4.49,7.36,7.36,0,0,1-4.72,1.7,16.07,16.07,0,0,1-4.28-.67,4.27,4.27,0,0,0-1.2-.22.88.88,0,0,0-.8.58h-.74v-7.29h.74a8.25,8.25,0,0,0,2.38,4.7,5.76,5.76,0,0,0,4,1.59,3.48,3.48,0,0,0,2.5-.91,2.84,2.84,0,0,0,1-2.17,3.44,3.44,0,0,0-1.08-2.58,18.84,18.84,0,0,0-4.31-2.66,12.85,12.85,0,0,1-4.23-2.89,5,5,0,0,1-1-3.21,5.66,5.66,0,0,1,1.73-4.21,6.11,6.11,0,0,1,4.47-1.7,10.3,10.3,0,0,1,2.92.52,7,7,0,0,0,1.51.33.85.85,0,0,0,.56-.16,2.13,2.13,0,0,0,.47-.69Z" transform="translate(-717.02 -390.69)"/><path d="M939.17,504.79v6.7h4.77v1.56h-4.77v13.24a4.48,4.48,0,0,0,.57,2.68,1.8,1.8,0,0,0,1.46.69,2.57,2.57,0,0,0,1.42-.46,2.88,2.88,0,0,0,1.07-1.35h.87a7,7,0,0,1-2.2,3.29,4.81,4.81,0,0,1-3,1.1,3.93,3.93,0,0,1-2-.57,3.46,3.46,0,0,1-1.45-1.62,8.62,8.62,0,0,1-.47-3.27V513.05h-3.23v-.73a8.57,8.57,0,0,0,2.51-1.66,13.39,13.39,0,0,0,2.28-2.78,24.67,24.67,0,0,0,1.43-3.09Z" transform="translate(-717.02 -390.69)"/><path d="M951.89,510.89v4.59q2.57-4.59,5.26-4.59a2.84,2.84,0,0,1,2,.75,2.28,2.28,0,0,1,.8,1.73,2,2,0,0,1-.58,1.47,1.83,1.83,0,0,1-1.38.6,3,3,0,0,1-1.75-.77,2.89,2.89,0,0,0-1.43-.77,1.31,1.31,0,0,0-.87.45,10.81,10.81,0,0,0-2.08,3v9.78a5.91,5.91,0,0,0,.43,2.56,2.24,2.24,0,0,0,1,1,4.49,4.49,0,0,0,2.12.4v.81H945v-.81a4.33,4.33,0,0,0,2.32-.49,1.88,1.88,0,0,0,.78-1.13,12,12,0,0,0,.11-2.16v-7.91a31.78,31.78,0,0,0-.15-4.25,1.64,1.64,0,0,0-.53-1,1.5,1.5,0,0,0-1-.31,4.46,4.46,0,0,0-1.56.33l-.22-.8,6.17-2.5Z" transform="translate(-717.02 -390.69)"/><path d="M964.55,519.18a10.48,10.48,0,0,0,2.21,7.13A6.7,6.7,0,0,0,972,528.9a5.72,5.72,0,0,0,3.49-1.1A8.19,8.19,0,0,0,978,524l.69.44a10.67,10.67,0,0,1-2.72,5.56,7.27,7.27,0,0,1-5.64,2.51,8.24,8.24,0,0,1-6.3-2.86,11,11,0,0,1-2.61-7.7c0-3.49.89-6.22,2.68-8.17a8.77,8.77,0,0,1,6.74-2.93,7.56,7.56,0,0,1,5.64,2.26,8.31,8.31,0,0,1,2.21,6Zm0-1.29H974a8.75,8.75,0,0,0-.47-2.76,4.31,4.31,0,0,0-1.66-2,4.13,4.13,0,0,0-2.3-.72,4.58,4.58,0,0,0-3.31,1.44A6.19,6.19,0,0,0,964.55,517.89Z" transform="translate(-717.02 -390.69)"/><path d="M994.57,510.89v7h-.74a9,9,0,0,0-2.17-4.46,4.87,4.87,0,0,0-3.38-1.18,3.68,3.68,0,0,0-2.51.82,2.39,2.39,0,0,0-1,1.83,3.31,3.31,0,0,0,.71,2.14,8,8,0,0,0,2.81,1.94l3.25,1.58q4.53,2.21,4.53,5.82a5.52,5.52,0,0,1-2.11,4.49,7.33,7.33,0,0,1-4.71,1.7,16,16,0,0,1-4.28-.67,4.27,4.27,0,0,0-1.21-.22.89.89,0,0,0-.8.58h-.73v-7.29H983a8.26,8.26,0,0,0,2.39,4.7,5.73,5.73,0,0,0,3.94,1.59,3.51,3.51,0,0,0,2.51-.91,2.87,2.87,0,0,0,1-2.17,3.44,3.44,0,0,0-1.08-2.58,18.73,18.73,0,0,0-4.32-2.66,12.85,12.85,0,0,1-4.23-2.89,5,5,0,0,1-1-3.21,5.66,5.66,0,0,1,1.72-4.21,6.13,6.13,0,0,1,4.47-1.7,10.24,10.24,0,0,1,2.92.52,6.93,6.93,0,0,0,1.52.33.84.84,0,0,0,.55-.16,2,2,0,0,0,.47-.69Z" transform="translate(-717.02 -390.69)"/><path d="M1012.33,510.89v7h-.74a9,9,0,0,0-2.17-4.46,4.87,4.87,0,0,0-3.38-1.18,3.7,3.7,0,0,0-2.51.82,2.39,2.39,0,0,0-1,1.83,3.36,3.36,0,0,0,.71,2.14,8,8,0,0,0,2.81,1.94l3.25,1.58q4.53,2.21,4.53,5.82a5.52,5.52,0,0,1-2.11,4.49,7.31,7.31,0,0,1-4.71,1.7,16,16,0,0,1-4.28-.67,4.27,4.27,0,0,0-1.2-.22.89.89,0,0,0-.81.58H1000v-7.29h.73a8.26,8.26,0,0,0,2.39,4.7,5.73,5.73,0,0,0,3.94,1.59,3.51,3.51,0,0,0,2.51-.91,2.84,2.84,0,0,0,1-2.17,3.44,3.44,0,0,0-1.08-2.58,18.73,18.73,0,0,0-4.32-2.66,12.85,12.85,0,0,1-4.23-2.89,5,5,0,0,1-1-3.21,5.63,5.63,0,0,1,1.73-4.21,6.1,6.1,0,0,1,4.46-1.7,10.18,10.18,0,0,1,2.92.52,7.05,7.05,0,0,0,1.52.33.87.87,0,0,0,.56-.16,2,2,0,0,0,.46-.69Z" transform="translate(-717.02 -390.69)"/><path d="M1039.87,529a34.17,34.17,0,0,1-3.94,2.8,6.06,6.06,0,0,1-2.57.56,4.56,4.56,0,0,1-3.48-1.45,5.27,5.27,0,0,1-1.37-3.81,4.88,4.88,0,0,1,.66-2.58,9,9,0,0,1,3.18-2.86,50.23,50.23,0,0,1,7.52-3.25v-.8c0-2-.32-3.43-1-4.19a3.48,3.48,0,0,0-2.82-1.14,3.16,3.16,0,0,0-2.23.76,2.29,2.29,0,0,0-.84,1.74l0,1.29a2.21,2.21,0,0,1-.52,1.58,1.81,1.81,0,0,1-1.37.56,1.73,1.73,0,0,1-1.35-.58,2.26,2.26,0,0,1-.52-1.58,4.55,4.55,0,0,1,2-3.52,8.44,8.44,0,0,1,5.5-1.61,9.56,9.56,0,0,1,4.46.92,4.24,4.24,0,0,1,1.94,2.16,12.39,12.39,0,0,1,.4,3.92v6.93a30.51,30.51,0,0,0,.11,3.58,1.48,1.48,0,0,0,.37.88.87.87,0,0,0,.59.22,1.15,1.15,0,0,0,.62-.16,13.5,13.5,0,0,0,1.81-1.62V529c-1.67,2.22-3.26,3.34-4.77,3.34a2.15,2.15,0,0,1-1.74-.76A4.12,4.12,0,0,1,1039.87,529Zm0-1.45v-7.78a44,44,0,0,0-4.34,1.89,7.51,7.51,0,0,0-2.52,2,4,4,0,0,0-.76,2.34,3.84,3.84,0,0,0,1,2.67,2.92,2.92,0,0,0,2.21,1.06C1036.54,529.75,1038,529,1039.87,527.52Z" transform="translate(-717.02 -390.69)"/><path d="M1054.51,515.22q3.59-4.33,6.84-4.33a4.92,4.92,0,0,1,2.88.84,5.57,5.57,0,0,1,1.91,2.75,12.64,12.64,0,0,1,.49,4.1v8.71a7.22,7.22,0,0,0,.32,2.63,1.8,1.8,0,0,0,.79.87,4.42,4.42,0,0,0,2,.31v.81h-10.09v-.81h.42a3.42,3.42,0,0,0,2-.43,2.29,2.29,0,0,0,.79-1.28,12.9,12.9,0,0,0,.09-2.1v-8.35a8.41,8.41,0,0,0-.73-4.05,2.58,2.58,0,0,0-2.44-1.26c-1.76,0-3.53,1-5.28,2.9v10.76a7.49,7.49,0,0,0,.25,2.57,2,2,0,0,0,.86.94,5.29,5.29,0,0,0,2.21.3v.81h-10.09v-.81h.44a2.41,2.41,0,0,0,2.11-.79,5.8,5.8,0,0,0,.54-3v-7.57a33.73,33.73,0,0,0-.16-4.48,1.88,1.88,0,0,0-.51-1.09,1.38,1.38,0,0,0-.93-.29,4.3,4.3,0,0,0-1.49.33l-.34-.8,6.15-2.5h1Z" transform="translate(-717.02 -390.69)"/><path d="M1085.8,529.61a10.33,10.33,0,0,1-2.92,2.24,7.12,7.12,0,0,1-3.08.68,7.62,7.62,0,0,1-5.84-2.8,10.39,10.39,0,0,1-2.49-7.18,13,13,0,0,1,2.76-8,8.53,8.53,0,0,1,7.11-3.64,6.12,6.12,0,0,1,4.46,1.72v-3.77a30.81,30.81,0,0,0-.17-4.3,1.88,1.88,0,0,0-.52-1.09,1.34,1.34,0,0,0-.89-.29,4.86,4.86,0,0,0-1.54.35l-.29-.78,6.08-2.49h1v23.6a31.68,31.68,0,0,0,.17,4.38,1.93,1.93,0,0,0,.54,1.1,1.26,1.26,0,0,0,.86.31,4.67,4.67,0,0,0,1.6-.38l.24.78-6.06,2.52h-1Zm0-1.56V517.53a7.2,7.2,0,0,0-.8-2.76,4.63,4.63,0,0,0-1.78-1.88,4.22,4.22,0,0,0-2.15-.64,4.56,4.56,0,0,0-3.49,1.76c-1.36,1.55-2,3.81-2,6.78s.65,5.3,2,6.89a5.62,5.62,0,0,0,4.37,2.4A5.43,5.43,0,0,0,1085.8,528.05Z" transform="translate(-717.02 -390.69)"/><path d="M1120,529.61a10.33,10.33,0,0,1-2.92,2.24,7.12,7.12,0,0,1-3.08.68,7.6,7.6,0,0,1-5.84-2.8,10.39,10.39,0,0,1-2.49-7.18,13,13,0,0,1,2.76-8,8.53,8.53,0,0,1,7.11-3.64,6.12,6.12,0,0,1,4.46,1.72v-3.77a30.81,30.81,0,0,0-.17-4.3,1.82,1.82,0,0,0-.53-1.09,1.31,1.31,0,0,0-.89-.29,4.81,4.81,0,0,0-1.53.35l-.29-.78,6.08-2.49h1v23.6a31.68,31.68,0,0,0,.17,4.38,2,2,0,0,0,.53,1.1,1.3,1.3,0,0,0,.86.31,4.71,4.71,0,0,0,1.61-.38l.24.78-6.06,2.52h-1Zm0-1.56V517.53a7,7,0,0,0-.81-2.76,4.54,4.54,0,0,0-1.77-1.88,4.22,4.22,0,0,0-2.15-.64,4.58,4.58,0,0,0-3.5,1.76q-2,2.32-2,6.78t2,6.89a5.6,5.6,0,0,0,4.36,2.4A5.45,5.45,0,0,0,1120,528.05Z" transform="translate(-717.02 -390.69)"/><path d="M1135.47,510.89v16.4a7.47,7.47,0,0,0,.28,2.56,2,2,0,0,0,.82.94,4.4,4.4,0,0,0,2,.31v.81h-9.92v-.81a4.49,4.49,0,0,0,2-.29,1.94,1.94,0,0,0,.82-.95,7.26,7.26,0,0,0,.3-2.57v-7.86a28.24,28.24,0,0,0-.2-4.3,1.76,1.76,0,0,0-.49-1,1.37,1.37,0,0,0-.92-.28,4.49,4.49,0,0,0-1.51.33l-.31-.8,6.15-2.5Zm-1.85-10.67a2.25,2.25,0,0,1,2.25,2.25,2.19,2.19,0,0,1-.66,1.6,2.14,2.14,0,0,1-1.59.67,2.27,2.27,0,0,1-2.27-2.27,2.14,2.14,0,0,1,.65-1.59A2.2,2.2,0,0,1,1133.62,500.22Z" transform="translate(-717.02 -390.69)"/><path d="M1154.3,510.89v7h-.74a9,9,0,0,0-2.17-4.46,4.87,4.87,0,0,0-3.38-1.18,3.68,3.68,0,0,0-2.51.82,2.39,2.39,0,0,0-1,1.83,3.36,3.36,0,0,0,.71,2.14,8,8,0,0,0,2.81,1.94l3.25,1.58q4.53,2.21,4.53,5.82a5.52,5.52,0,0,1-2.11,4.49,7.33,7.33,0,0,1-4.71,1.7,16,16,0,0,1-4.28-.67,4.27,4.27,0,0,0-1.2-.22.89.89,0,0,0-.81.58H1142v-7.29h.73a8.26,8.26,0,0,0,2.39,4.7,5.73,5.73,0,0,0,3.94,1.59,3.51,3.51,0,0,0,2.51-.91,2.87,2.87,0,0,0,1-2.17,3.44,3.44,0,0,0-1.08-2.58,18.73,18.73,0,0,0-4.32-2.66,12.85,12.85,0,0,1-4.23-2.89,5,5,0,0,1-1-3.21,5.66,5.66,0,0,1,1.72-4.21,6.14,6.14,0,0,1,4.47-1.7,10.18,10.18,0,0,1,2.92.52,7.05,7.05,0,0,0,1.52.33.82.82,0,0,0,.55-.16,2,2,0,0,0,.47-.69Z" transform="translate(-717.02 -390.69)"/><path d="M1170.43,529a34.17,34.17,0,0,1-3.94,2.8,6.06,6.06,0,0,1-2.57.56,4.56,4.56,0,0,1-3.48-1.45,5.27,5.27,0,0,1-1.37-3.81,4.79,4.79,0,0,1,.67-2.58,8.82,8.82,0,0,1,3.17-2.86,50.23,50.23,0,0,1,7.52-3.25v-.8c0-2-.32-3.43-1-4.19a3.48,3.48,0,0,0-2.82-1.14,3.12,3.12,0,0,0-2.22.76,2.27,2.27,0,0,0-.85,1.74l0,1.29a2.21,2.21,0,0,1-.52,1.58,1.81,1.81,0,0,1-1.37.56,1.73,1.73,0,0,1-1.35-.58,2.26,2.26,0,0,1-.52-1.58,4.55,4.55,0,0,1,2-3.52,8.46,8.46,0,0,1,5.5-1.61,9.53,9.53,0,0,1,4.46.92,4.2,4.2,0,0,1,1.94,2.16,12.39,12.39,0,0,1,.4,3.92v6.93a33.12,33.12,0,0,0,.11,3.58,1.48,1.48,0,0,0,.37.88.87.87,0,0,0,.59.22,1.15,1.15,0,0,0,.62-.16,13.5,13.5,0,0,0,1.81-1.62V529c-1.67,2.22-3.26,3.34-4.77,3.34a2.15,2.15,0,0,1-1.74-.76A4.12,4.12,0,0,1,1170.43,529Zm0-1.45v-7.78a44,44,0,0,0-4.34,1.89,7.51,7.51,0,0,0-2.52,2,4,4,0,0,0-.76,2.34,3.84,3.84,0,0,0,1,2.67,2.92,2.92,0,0,0,2.21,1.06C1167.1,529.75,1168.59,529,1170.43,527.52Z" transform="translate(-717.02 -390.69)"/><path d="M1184.58,524.46a6.7,6.7,0,0,1-3.87-6.17,7,7,0,0,1,2.28-5.21,8.1,8.1,0,0,1,5.85-2.19,8.94,8.94,0,0,1,5.06,1.43h4.32a5.2,5.2,0,0,1,1.11.06.39.39,0,0,1,.23.18,1.41,1.41,0,0,1,.13.72,2.09,2.09,0,0,1-.11.8.52.52,0,0,1-.24.18,5.39,5.39,0,0,1-1.12.06h-2.65a6.5,6.5,0,0,1,1.25,4.1,6.44,6.44,0,0,1-2.19,4.89,8.27,8.27,0,0,1-5.86,2,11.71,11.71,0,0,1-3.1-.44,5.87,5.87,0,0,0-1.32,1.48,2.36,2.36,0,0,0-.35,1.08,1.07,1.07,0,0,0,.37.74,2.82,2.82,0,0,0,1.44.51q.62.09,3.12.15c3.06.08,5,.18,6,.32a5.6,5.6,0,0,1,3.31,1.53,4.23,4.23,0,0,1,1.23,3.08,6.41,6.41,0,0,1-2.36,4.72,12.74,12.74,0,0,1-9.07,3.26,13,13,0,0,1-7.26-1.94c-1.12-.75-1.67-1.52-1.67-2.32a2.6,2.6,0,0,1,.24-1.07,12.17,12.17,0,0,1,1.56-2.29c.1-.14.86-.94,2.27-2.41a6.84,6.84,0,0,1-1.63-1.24,1.81,1.81,0,0,1-.48-1.24,3.7,3.7,0,0,1,.63-1.82A14.82,14.82,0,0,1,1184.58,524.46Zm-.22,7.45a10.49,10.49,0,0,0-1.58,2.11,3.83,3.83,0,0,0-.54,1.81,2.25,2.25,0,0,0,1.3,1.87,12.29,12.29,0,0,0,6.43,1.38q4,0,5.92-1.41a3.91,3.91,0,0,0,1.91-3,1.69,1.69,0,0,0-1.14-1.65,14.77,14.77,0,0,0-4.59-.58A74.54,74.54,0,0,1,1184.36,531.91Zm4.1-19.95a3.46,3.46,0,0,0-2.76,1.32,6.08,6.08,0,0,0-1.12,4,8.67,8.67,0,0,0,1.52,5.46,3.58,3.58,0,0,0,2.94,1.47,3.48,3.48,0,0,0,2.78-1.27,6,6,0,0,0,1.1-4,9,9,0,0,0-1.54-5.55A3.53,3.53,0,0,0,1188.46,512Z" transform="translate(-717.02 -390.69)"/><path d="M1207.91,510.89v4.59q2.56-4.59,5.26-4.59a2.84,2.84,0,0,1,2,.75,2.31,2.31,0,0,1,.8,1.73,2,2,0,0,1-.58,1.47,1.83,1.83,0,0,1-1.38.6,3,3,0,0,1-1.75-.77,2.87,2.87,0,0,0-1.44-.77,1.32,1.32,0,0,0-.86.45,10.81,10.81,0,0,0-2.08,3v9.78a5.91,5.91,0,0,0,.43,2.56,2.24,2.24,0,0,0,1,1,4.49,4.49,0,0,0,2.12.4v.81H1201v-.81a4.27,4.27,0,0,0,2.31-.49,1.85,1.85,0,0,0,.79-1.13,12,12,0,0,0,.11-2.16v-7.91a31.78,31.78,0,0,0-.15-4.25,1.69,1.69,0,0,0-.53-1,1.5,1.5,0,0,0-1-.31,4.46,4.46,0,0,0-1.56.33l-.23-.8,6.18-2.5Z" transform="translate(-717.02 -390.69)"/><path d="M1220.57,519.18a10.43,10.43,0,0,0,2.21,7.13,6.7,6.7,0,0,0,5.23,2.59,5.72,5.72,0,0,0,3.49-1.1A8.11,8.11,0,0,0,1234,524l.7.44A10.67,10.67,0,0,1,1232,530a7.27,7.27,0,0,1-5.64,2.51,8.24,8.24,0,0,1-6.3-2.86,11,11,0,0,1-2.61-7.7c0-3.49.89-6.22,2.68-8.17a8.77,8.77,0,0,1,6.74-2.93,7.56,7.56,0,0,1,5.64,2.26,8.31,8.31,0,0,1,2.21,6Zm0-1.29H1230a8.75,8.75,0,0,0-.47-2.76,4.31,4.31,0,0,0-1.66-2,4.16,4.16,0,0,0-2.31-.72,4.61,4.61,0,0,0-3.31,1.44A6.23,6.23,0,0,0,1220.57,517.89Z" transform="translate(-717.02 -390.69)"/><path d="M1240.83,519.18a10.48,10.48,0,0,0,2.2,7.13,6.72,6.72,0,0,0,5.24,2.59,5.72,5.72,0,0,0,3.49-1.1,8.26,8.26,0,0,0,2.48-3.78l.69.44a10.6,10.6,0,0,1-2.72,5.56,7.26,7.26,0,0,1-5.63,2.51,8.23,8.23,0,0,1-6.3-2.86,11,11,0,0,1-2.62-7.7c0-3.49.9-6.22,2.69-8.17a8.76,8.76,0,0,1,6.74-2.93,7.58,7.58,0,0,1,5.64,2.26,8.3,8.3,0,0,1,2.2,6Zm0-1.29h9.44a8.82,8.82,0,0,0-.46-2.76,4.44,4.44,0,0,0-1.66-2,4.19,4.19,0,0,0-2.31-.72,4.59,4.59,0,0,0-3.31,1.44A6.23,6.23,0,0,0,1240.83,517.89Z" transform="translate(-717.02 -390.69)"/><path d="M1258.07,520h11.52v3.37h-11.52Z" transform="translate(-717.02 -390.69)"/><path d="M724.22,570c1.48-1.48,2.36-2.34,2.63-2.56a8.06,8.06,0,0,1,2.16-1.31,6,6,0,0,1,2.3-.47,5.09,5.09,0,0,1,3.29,1.11,5.53,5.53,0,0,1,1.85,3.23,15.16,15.16,0,0,1,3.88-3.51,7,7,0,0,1,3.25-.83,5.15,5.15,0,0,1,2.89.83,5.57,5.57,0,0,1,2,2.73,12.25,12.25,0,0,1,.49,4.06v8.78a8.09,8.09,0,0,0,.29,2.63,1.89,1.89,0,0,0,.83.83,4.12,4.12,0,0,0,2,.35v.8H742v-.8h.42a3.55,3.55,0,0,0,2-.51,2,2,0,0,0,.74-1.14,14.72,14.72,0,0,0,.08-2.16v-8.78a7.44,7.44,0,0,0-.6-3.52,3,3,0,0,0-2.78-1.43,5.39,5.39,0,0,0-2.38.59,13.23,13.23,0,0,0-2.88,2.2l-.05.24.05,1v9.74a8.65,8.65,0,0,0,.23,2.61,1.91,1.91,0,0,0,.88.85,5.05,5.05,0,0,0,2.21.35v.8H729.61v-.8a4.69,4.69,0,0,0,2.33-.4,2.1,2.1,0,0,0,.88-1.2,12.45,12.45,0,0,0,.11-2.21v-8.78a6.67,6.67,0,0,0-.73-3.59,3.15,3.15,0,0,0-2.74-1.42,4.93,4.93,0,0,0-2.39.64,9.27,9.27,0,0,0-2.85,2.21v10.94a7.46,7.46,0,0,0,.28,2.61,1.9,1.9,0,0,0,.82.9,5.34,5.34,0,0,0,2.22.3v.8h-10.1v-.8a4.57,4.57,0,0,0,2-.3,1.9,1.9,0,0,0,.84-1,7.19,7.19,0,0,0,.29-2.55v-7.8a27.62,27.62,0,0,0-.2-4.35,1.77,1.77,0,0,0-.49-1,1.36,1.36,0,0,0-.91-.28,4.17,4.17,0,0,0-1.5.34l-.33-.81,6.15-2.49h1Z" transform="translate(-717.02 -390.69)"/><path d="M757.09,574a10.48,10.48,0,0,0,2.2,7.13,6.74,6.74,0,0,0,5.24,2.58,5.65,5.65,0,0,0,3.49-1.1,8.08,8.08,0,0,0,2.48-3.78l.69.45a10.63,10.63,0,0,1-2.72,5.56,7.26,7.26,0,0,1-5.63,2.51,8.25,8.25,0,0,1-6.3-2.87,11,11,0,0,1-2.62-7.7q0-5.24,2.69-8.16a8.74,8.74,0,0,1,6.74-2.93A7.53,7.53,0,0,1,769,567.9a8.29,8.29,0,0,1,2.2,6.05Zm0-1.29h9.45a8.89,8.89,0,0,0-.47-2.77,4.48,4.48,0,0,0-1.66-2,4.25,4.25,0,0,0-2.31-.71,4.61,4.61,0,0,0-3.31,1.44A6.21,6.21,0,0,0,757.09,572.66Z" transform="translate(-717.02 -390.69)"/><path d="M779.86,570q3.58-4.32,6.84-4.32a5,5,0,0,1,2.88.83,5.6,5.6,0,0,1,1.91,2.76,12.6,12.6,0,0,1,.49,4.1v8.71a7.26,7.26,0,0,0,.32,2.63,1.8,1.8,0,0,0,.79.87,4.42,4.42,0,0,0,2,.31v.8H785v-.8h.42a3.5,3.5,0,0,0,2-.43,2.28,2.28,0,0,0,.79-1.29,12.83,12.83,0,0,0,.09-2.09V573.7a8.39,8.39,0,0,0-.73-4,2.58,2.58,0,0,0-2.44-1.26q-2.65,0-5.28,2.9v10.76a7.46,7.46,0,0,0,.25,2.56,2,2,0,0,0,.85,1,5.37,5.37,0,0,0,2.22.3v.8H773.09v-.8h.44a2.41,2.41,0,0,0,2.11-.79,5.85,5.85,0,0,0,.54-3v-7.58A33.83,33.83,0,0,0,776,570a1.91,1.91,0,0,0-.52-1.09,1.39,1.39,0,0,0-.92-.29,4.12,4.12,0,0,0-1.49.34l-.34-.81,6.15-2.49h1Z" transform="translate(-717.02 -390.69)"/><path d="M802.66,559.55v6.71h4.77v1.56h-4.77v13.24a4.42,4.42,0,0,0,.57,2.67,1.79,1.79,0,0,0,1.46.69,2.5,2.5,0,0,0,1.42-.46,2.9,2.9,0,0,0,1.07-1.34h.87a7,7,0,0,1-2.21,3.28A4.74,4.74,0,0,1,802.9,587a3.93,3.93,0,0,1-2-.57,3.39,3.39,0,0,1-1.45-1.63,8.53,8.53,0,0,1-.47-3.26V567.82h-3.23v-.74a8.37,8.37,0,0,0,2.51-1.66,13.33,13.33,0,0,0,2.28-2.77,25.75,25.75,0,0,0,1.43-3.1Z" transform="translate(-717.02 -390.69)"/><path d="M832.38,583.73a32.61,32.61,0,0,1-3.94,2.81,6.05,6.05,0,0,1-2.56.56,4.62,4.62,0,0,1-3.49-1.45,5.35,5.35,0,0,1-1.37-3.81,4.83,4.83,0,0,1,.67-2.59,8.89,8.89,0,0,1,3.17-2.85,49.19,49.19,0,0,1,7.52-3.25v-.81c0-2-.32-3.43-1-4.19A3.53,3.53,0,0,0,828.6,567a3.14,3.14,0,0,0-2.23.76,2.25,2.25,0,0,0-.85,1.73l.05,1.3a2.22,2.22,0,0,1-.53,1.58,1.79,1.79,0,0,1-1.37.56,1.76,1.76,0,0,1-1.35-.58,2.29,2.29,0,0,1-.52-1.59,4.56,4.56,0,0,1,2-3.52,8.46,8.46,0,0,1,5.5-1.6,9.53,9.53,0,0,1,4.46.91,4.2,4.2,0,0,1,1.94,2.16,12.16,12.16,0,0,1,.4,3.93v6.93a33,33,0,0,0,.11,3.57,1.54,1.54,0,0,0,.37.88.88.88,0,0,0,.59.23,1.21,1.21,0,0,0,.62-.16,13.21,13.21,0,0,0,1.81-1.63v1.25q-2.49,3.35-4.77,3.34a2.18,2.18,0,0,1-1.74-.75A4.15,4.15,0,0,1,832.38,583.73Zm0-1.45V574.5a45.78,45.78,0,0,0-4.34,1.9,7.59,7.59,0,0,0-2.52,2.05,4,4,0,0,0-.76,2.34,3.8,3.8,0,0,0,1,2.66,2.9,2.9,0,0,0,2.21,1.06Q829.63,584.51,832.38,582.28Z" transform="translate(-717.02 -390.69)"/><path d="M847,570q3.6-4.32,6.85-4.32a5,5,0,0,1,2.87.83,5.67,5.67,0,0,1,1.92,2.76,12.89,12.89,0,0,1,.49,4.1v8.71a7.32,7.32,0,0,0,.31,2.63,1.85,1.85,0,0,0,.79.87,4.47,4.47,0,0,0,2,.31v.8h-10.1v-.8h.43a3.47,3.47,0,0,0,2-.43,2.28,2.28,0,0,0,.79-1.29,12.83,12.83,0,0,0,.09-2.09V573.7a8.53,8.53,0,0,0-.72-4,2.6,2.6,0,0,0-2.44-1.26q-2.65,0-5.29,2.9v10.76a7.74,7.74,0,0,0,.25,2.56,2.05,2.05,0,0,0,.86,1,5.31,5.31,0,0,0,2.22.3v.8h-10.1v-.8h.45a2.37,2.37,0,0,0,2.1-.79,5.72,5.72,0,0,0,.55-3v-7.58a33.05,33.05,0,0,0-.17-4.48,1.91,1.91,0,0,0-.51-1.09,1.42,1.42,0,0,0-.93-.29,4.16,4.16,0,0,0-1.49.34l-.33-.81,6.15-2.49H847Z" transform="translate(-717.02 -390.69)"/><path d="M878.31,584.38a10.38,10.38,0,0,1-2.92,2.24,7.07,7.07,0,0,1-3.07.68,7.62,7.62,0,0,1-5.84-2.8,10.37,10.37,0,0,1-2.5-7.19,13,13,0,0,1,2.77-8,8.53,8.53,0,0,1,7.1-3.64,6.13,6.13,0,0,1,4.46,1.71v-3.76a29.11,29.11,0,0,0-.17-4.3,1.88,1.88,0,0,0-.52-1.1,1.38,1.38,0,0,0-.89-.29,4.66,4.66,0,0,0-1.54.36l-.29-.78L881,555h1v23.6a30,30,0,0,0,.17,4.38,1.92,1.92,0,0,0,.53,1.1,1.29,1.29,0,0,0,.86.32,4.91,4.91,0,0,0,1.6-.38l.25.78-6.06,2.52h-1Zm0-1.56V572.3a7,7,0,0,0-.8-2.76,4.7,4.7,0,0,0-1.77-1.89,4.33,4.33,0,0,0-2.15-.63,4.53,4.53,0,0,0-3.5,1.76q-2,2.31-2,6.77t2,6.9a5.62,5.62,0,0,0,4.37,2.39A5.42,5.42,0,0,0,878.31,582.82Z" transform="translate(-717.02 -390.69)"/><path d="M915.46,578.92a11.07,11.07,0,0,1-3.23,6.2,7.78,7.78,0,0,1-5.33,2.18,7.88,7.88,0,0,1-6.06-2.92,11.5,11.5,0,0,1-2.58-7.89,10.86,10.86,0,0,1,2.86-7.82,9.14,9.14,0,0,1,6.87-3,7.54,7.54,0,0,1,5,1.59,4.42,4.42,0,0,1,1.94,3.31,1.79,1.79,0,0,1-.55,1.37,2.1,2.1,0,0,1-1.52.53,2.4,2.4,0,0,1-2-.85,3.54,3.54,0,0,1-.5-1.78,2.92,2.92,0,0,0-.9-2,3.19,3.19,0,0,0-2.16-.67,4.42,4.42,0,0,0-3.59,1.65,8.79,8.79,0,0,0-1.8,5.77,11.63,11.63,0,0,0,1.79,6.45,5.49,5.49,0,0,0,4.85,2.8,5.89,5.89,0,0,0,3.92-1.49,10.12,10.12,0,0,0,2.38-3.72Z" transform="translate(-717.02 -390.69)"/><path d="M929.94,583.73a33.48,33.48,0,0,1-3.94,2.81,6.05,6.05,0,0,1-2.56.56,4.6,4.6,0,0,1-3.49-1.45,5.35,5.35,0,0,1-1.37-3.81,4.83,4.83,0,0,1,.67-2.59,8.8,8.8,0,0,1,3.17-2.85,49.19,49.19,0,0,1,7.52-3.25v-.81c0-2-.32-3.43-1-4.19a3.5,3.5,0,0,0-2.82-1.13,3.13,3.13,0,0,0-2.22.76,2.25,2.25,0,0,0-.85,1.73l0,1.3a2.21,2.21,0,0,1-.52,1.58,1.81,1.81,0,0,1-1.37.56,1.76,1.76,0,0,1-1.35-.58,2.29,2.29,0,0,1-.52-1.59,4.56,4.56,0,0,1,2-3.52,8.46,8.46,0,0,1,5.5-1.6,9.53,9.53,0,0,1,4.46.91,4.2,4.2,0,0,1,1.94,2.16,12.16,12.16,0,0,1,.4,3.93v6.93a33,33,0,0,0,.11,3.57,1.54,1.54,0,0,0,.37.88.88.88,0,0,0,.59.23,1.21,1.21,0,0,0,.62-.16,13.21,13.21,0,0,0,1.81-1.63v1.25c-1.67,2.23-3.25,3.34-4.77,3.34a2.18,2.18,0,0,1-1.74-.75A4.15,4.15,0,0,1,929.94,583.73Zm0-1.45V574.5a45.78,45.78,0,0,0-4.34,1.9,7.39,7.39,0,0,0-2.52,2.05,3.92,3.92,0,0,0-.76,2.34,3.8,3.8,0,0,0,1,2.66,2.89,2.89,0,0,0,2.21,1.06Q927.19,584.51,929.94,582.28Z" transform="translate(-717.02 -390.69)"/><path d="M944.58,570q3.6-4.32,6.84-4.32a5,5,0,0,1,2.88.83,5.67,5.67,0,0,1,1.92,2.76,12.89,12.89,0,0,1,.49,4.1v8.71a7.32,7.32,0,0,0,.31,2.63,1.8,1.8,0,0,0,.79.87,4.47,4.47,0,0,0,2,.31v.8h-10.1v-.8h.42a3.5,3.5,0,0,0,2-.43,2.28,2.28,0,0,0,.79-1.29,12.83,12.83,0,0,0,.09-2.09V573.7a8.39,8.39,0,0,0-.73-4,2.58,2.58,0,0,0-2.44-1.26q-2.64,0-5.28,2.9v10.76a7.74,7.74,0,0,0,.25,2.56,2.05,2.05,0,0,0,.86,1,5.29,5.29,0,0,0,2.21.3v.8H937.81v-.8h.44a2.39,2.39,0,0,0,2.11-.79,5.83,5.83,0,0,0,.55-3v-7.58a33.05,33.05,0,0,0-.17-4.48,1.91,1.91,0,0,0-.51-1.09,1.42,1.42,0,0,0-.93-.29,4.16,4.16,0,0,0-1.49.34l-.33-.81,6.15-2.49h1Z" transform="translate(-717.02 -390.69)"/><path d="M967.4,570q3.58-4.32,6.84-4.32a5,5,0,0,1,2.88.83,5.6,5.6,0,0,1,1.91,2.76,12.6,12.6,0,0,1,.49,4.1v8.71a7.26,7.26,0,0,0,.32,2.63,1.8,1.8,0,0,0,.79.87,4.42,4.42,0,0,0,2,.31v.8H972.55v-.8H973a3.5,3.5,0,0,0,2-.43,2.28,2.28,0,0,0,.79-1.29,12.83,12.83,0,0,0,.09-2.09V573.7a8.39,8.39,0,0,0-.73-4,2.58,2.58,0,0,0-2.44-1.26q-2.64,0-5.28,2.9v10.76a7.46,7.46,0,0,0,.25,2.56,2.05,2.05,0,0,0,.86,1,5.29,5.29,0,0,0,2.21.3v.8H960.63v-.8h.44a2.39,2.39,0,0,0,2.11-.79,5.83,5.83,0,0,0,.55-3v-7.58a33.05,33.05,0,0,0-.17-4.48,1.91,1.91,0,0,0-.51-1.09,1.42,1.42,0,0,0-.93-.29,4.16,4.16,0,0,0-1.49.34l-.34-.81,6.15-2.49h1Z" transform="translate(-717.02 -390.69)"/><path d="M994.25,565.66a9,9,0,0,1,7.45,3.52,10.8,10.8,0,0,1,2.38,6.91,13.15,13.15,0,0,1-1.31,5.55A9.35,9.35,0,0,1,994,587.3a8.64,8.64,0,0,1-7.33-3.68,11.4,11.4,0,0,1-2.3-7,12.33,12.33,0,0,1,1.4-5.59,9.26,9.26,0,0,1,8.47-5.42Zm-.69,1.45a4.62,4.62,0,0,0-2.37.7,5,5,0,0,0-1.93,2.46,11.84,11.84,0,0,0-.73,4.52,15.75,15.75,0,0,0,1.77,7.69c1.18,2.16,2.74,3.23,4.67,3.23a4.33,4.33,0,0,0,3.56-1.78q1.41-1.78,1.41-6.13,0-5.43-2.34-8.55A4.82,4.82,0,0,0,993.56,567.11Z" transform="translate(-717.02 -390.69)"/><path d="M1013,559.55v6.71h4.77v1.56H1013v13.24a4.51,4.51,0,0,0,.56,2.67,1.81,1.81,0,0,0,1.46.69,2.5,2.5,0,0,0,1.43-.46,2.9,2.9,0,0,0,1.07-1.34h.87a7,7,0,0,1-2.21,3.28,4.74,4.74,0,0,1-2.94,1.11,3.93,3.93,0,0,1-2-.57,3.39,3.39,0,0,1-1.45-1.63,8.53,8.53,0,0,1-.47-3.26V567.82h-3.23v-.74a8.37,8.37,0,0,0,2.51-1.66,13.33,13.33,0,0,0,2.28-2.77,25.75,25.75,0,0,0,1.43-3.1Z" transform="translate(-717.02 -390.69)"/><path d="M1036.77,569.78q3-4.12,6.4-4.12a7.07,7.07,0,0,1,5.48,2.68,10.81,10.81,0,0,1,2.34,7.35,11.31,11.31,0,0,1-3.61,8.75,9.94,9.94,0,0,1-6.91,2.86,10.91,10.91,0,0,1-3.62-.65,16.65,16.65,0,0,1-3.76-1.94V563.56a31.16,31.16,0,0,0-.16-4.27,1.89,1.89,0,0,0-.53-1.1,1.36,1.36,0,0,0-.89-.29,4.6,4.6,0,0,0-1.56.36l-.31-.78,6.13-2.5h1Zm0,1.43v12.21a8.68,8.68,0,0,0,2.35,1.68,5.8,5.8,0,0,0,2.49.57,4.85,4.85,0,0,0,3.77-2.23c1.17-1.48,1.75-3.65,1.75-6.48a9.17,9.17,0,0,0-1.75-6,5.07,5.07,0,0,0-4-2.11,5.21,5.21,0,0,0-2.37.6A10.53,10.53,0,0,0,1036.77,571.21Z" transform="translate(-717.02 -390.69)"/><path d="M1057.43,574a10.48,10.48,0,0,0,2.2,7.13,6.75,6.75,0,0,0,5.24,2.58,5.65,5.65,0,0,0,3.49-1.1,8.08,8.08,0,0,0,2.48-3.78l.69.45a10.61,10.61,0,0,1-2.71,5.56,7.28,7.28,0,0,1-5.64,2.51,8.25,8.25,0,0,1-6.3-2.87,11,11,0,0,1-2.62-7.7q0-5.24,2.69-8.16a8.74,8.74,0,0,1,6.74-2.93,7.53,7.53,0,0,1,5.64,2.26,8.29,8.29,0,0,1,2.2,6.05Zm0-1.29h9.45a8.89,8.89,0,0,0-.47-2.77,4.48,4.48,0,0,0-1.66-2,4.25,4.25,0,0,0-2.31-.71,4.61,4.61,0,0,0-3.31,1.44A6.21,6.21,0,0,0,1057.43,572.66Z" transform="translate(-717.02 -390.69)"/><path d="M1091.59,559.55v6.71h4.77v1.56h-4.77v13.24a4.42,4.42,0,0,0,.57,2.67,1.8,1.8,0,0,0,1.46.69A2.5,2.5,0,0,0,1095,584a2.9,2.9,0,0,0,1.07-1.34h.87a7,7,0,0,1-2.2,3.28,4.76,4.76,0,0,1-3,1.11,3.93,3.93,0,0,1-2-.57,3.39,3.39,0,0,1-1.45-1.63,8.53,8.53,0,0,1-.47-3.26V567.82h-3.23v-.74a8.37,8.37,0,0,0,2.51-1.66,13.33,13.33,0,0,0,2.28-2.77,25.75,25.75,0,0,0,1.43-3.1Z" transform="translate(-717.02 -390.69)"/><path d="M1104.31,565.66v4.59q2.57-4.59,5.26-4.59a2.88,2.88,0,0,1,2,.74,2.33,2.33,0,0,1,.8,1.73,2,2,0,0,1-.58,1.47,1.83,1.83,0,0,1-1.38.6,3,3,0,0,1-1.75-.76,2.78,2.78,0,0,0-1.44-.77,1.34,1.34,0,0,0-.86.44,10.81,10.81,0,0,0-2.08,3v9.78a6,6,0,0,0,.43,2.57,2.29,2.29,0,0,0,1,1,4.49,4.49,0,0,0,2.12.4v.8h-10.45v-.8a4.33,4.33,0,0,0,2.32-.49,1.93,1.93,0,0,0,.78-1.14,11.88,11.88,0,0,0,.11-2.16v-7.91a31.58,31.58,0,0,0-.15-4.24,1.69,1.69,0,0,0-.53-1,1.56,1.56,0,0,0-1-.31,4.28,4.28,0,0,0-1.56.34l-.22-.81,6.17-2.49Z" transform="translate(-717.02 -390.69)"/><path d="M1131.43,566.26v12.37a31.05,31.05,0,0,0,.17,4.33,1.92,1.92,0,0,0,.53,1.1,1.31,1.31,0,0,0,.86.32,4,4,0,0,0,1.56-.38l.31.78-6.1,2.52h-1V583a18.32,18.32,0,0,1-4,3.59,6.11,6.11,0,0,1-2.91.74,4.68,4.68,0,0,1-3-1,5.14,5.14,0,0,1-1.75-2.55,15.3,15.3,0,0,1-.49-4.41v-9.11a4.47,4.47,0,0,0-.31-2,2.1,2.1,0,0,0-.93-.86,5.45,5.45,0,0,0-2.21-.28v-.82h7.15v13.66c0,1.9.33,3.15,1,3.74a3.43,3.43,0,0,0,2.4.89,5,5,0,0,0,2.17-.6,11.77,11.77,0,0,0,2.89-2.29V570.09a3.29,3.29,0,0,0-.64-2.35,4.09,4.09,0,0,0-2.64-.66v-.82Z" transform="translate(-717.02 -390.69)"/><path d="M1149.55,565.66v7h-.74a9.07,9.07,0,0,0-2.17-4.46,4.92,4.92,0,0,0-3.38-1.18,3.71,3.71,0,0,0-2.51.83,2.39,2.39,0,0,0-1,1.83,3.32,3.32,0,0,0,.71,2.13,7.9,7.9,0,0,0,2.81,1.94l3.25,1.59c3,1.47,4.53,3.4,4.53,5.81a5.5,5.5,0,0,1-2.11,4.49,7.27,7.27,0,0,1-4.71,1.71,16.43,16.43,0,0,1-4.28-.67,4.34,4.34,0,0,0-1.2-.23.91.91,0,0,0-.81.58h-.73V579.7h.73a8.29,8.29,0,0,0,2.39,4.7,5.77,5.77,0,0,0,3.94,1.58,3.54,3.54,0,0,0,2.51-.9,2.85,2.85,0,0,0,1-2.17,3.46,3.46,0,0,0-1.08-2.59,18.9,18.9,0,0,0-4.31-2.65,12.8,12.8,0,0,1-4.24-2.9,5,5,0,0,1-1-3.21,5.63,5.63,0,0,1,1.73-4.21,6.1,6.1,0,0,1,4.46-1.69,10.48,10.48,0,0,1,2.92.51,7.05,7.05,0,0,0,1.52.33.93.93,0,0,0,.56-.15,2.1,2.1,0,0,0,.46-.69Z" transform="translate(-717.02 -390.69)"/><path d="M1160,559.55v6.71h4.77v1.56H1160v13.24a4.42,4.42,0,0,0,.57,2.67,1.81,1.81,0,0,0,1.46.69,2.53,2.53,0,0,0,1.43-.46,2.9,2.9,0,0,0,1.07-1.34h.87a7,7,0,0,1-2.21,3.28,4.74,4.74,0,0,1-2.94,1.11,3.93,3.93,0,0,1-2-.57,3.39,3.39,0,0,1-1.45-1.63,8.34,8.34,0,0,1-.47-3.26V567.82h-3.23v-.74a8.34,8.34,0,0,0,2.5-1.66,13.06,13.06,0,0,0,2.29-2.77,24.58,24.58,0,0,0,1.42-3.1Z" transform="translate(-717.02 -390.69)"/><path d="M1170.23,574a10.43,10.43,0,0,0,2.21,7.13,6.72,6.72,0,0,0,5.23,2.58,5.65,5.65,0,0,0,3.49-1.1,8,8,0,0,0,2.48-3.78l.69.45a10.61,10.61,0,0,1-2.71,5.56,7.27,7.27,0,0,1-5.64,2.51,8.25,8.25,0,0,1-6.3-2.87,11,11,0,0,1-2.62-7.7q0-5.24,2.69-8.16a8.74,8.74,0,0,1,6.74-2.93,7.53,7.53,0,0,1,5.64,2.26,8.29,8.29,0,0,1,2.2,6.05Zm0-1.29h9.45a8.89,8.89,0,0,0-.47-2.77,4.48,4.48,0,0,0-1.66-2,4.25,4.25,0,0,0-2.31-.71,4.61,4.61,0,0,0-3.31,1.44A6.21,6.21,0,0,0,1170.23,572.66Z" transform="translate(-717.02 -390.69)"/><path d="M1201.47,584.38a10.38,10.38,0,0,1-2.92,2.24,7.07,7.07,0,0,1-3.07.68,7.62,7.62,0,0,1-5.84-2.8,10.37,10.37,0,0,1-2.5-7.19,13,13,0,0,1,2.77-8,8.53,8.53,0,0,1,7.1-3.64,6.13,6.13,0,0,1,4.46,1.71v-3.76a29.11,29.11,0,0,0-.17-4.3,1.88,1.88,0,0,0-.52-1.1,1.38,1.38,0,0,0-.89-.29,4.66,4.66,0,0,0-1.54.36l-.29-.78,6.08-2.5h1v23.6a32.42,32.42,0,0,0,.16,4.38,1.92,1.92,0,0,0,.54,1.1,1.27,1.27,0,0,0,.86.32,4.91,4.91,0,0,0,1.6-.38l.25.78-6.06,2.52h-1Zm0-1.56V572.3a7.2,7.2,0,0,0-.8-2.76,4.7,4.7,0,0,0-1.77-1.89,4.36,4.36,0,0,0-2.15-.63,4.53,4.53,0,0,0-3.5,1.76q-2,2.31-2,6.77t2,6.9a5.61,5.61,0,0,0,4.37,2.39A5.42,5.42,0,0,0,1201.47,582.82Z" transform="translate(-717.02 -390.69)"/></svg>